<?xml version="1.0" encoding="utf-8"?>
<!-- Generator: Adobe Illustrator 27.5.0, SVG Export Plug-In . SVG Version: 6.00 Build 0)  -->
<svg version="1.1" xmlns="http://www.w3.org/2000/svg" xmlns:xlink="http://www.w3.org/1999/xlink" x="0px" y="0px"
	 viewBox="0 0 500 500" style="enable-background:new 0 0 500 500;" xml:space="preserve">
<g id="BACKGROUND">
	<rect id="XMLID_232_" y="0" style="fill:#FFFFFF;" width="500" height="500"/>
</g>
<g id="OBJECTS">
	<ellipse style="opacity:0.3;fill:#B3B3B3;" cx="250" cy="453.364" rx="147.326" ry="10.423"/>
	<g>
		<rect x="145.748" y="400.306" style="fill:#003159;" width="208.503" height="53.058"/>
		<g>
			<g>
				<rect x="156.208" y="400.306" style="fill:#048ED6;" width="8.9" height="53.058"/>
				<rect x="172.169" y="400.306" style="fill:#048ED6;" width="8.9" height="53.058"/>
			</g>
			<g>
				<rect x="318.931" y="400.306" style="fill:#048ED6;" width="8.9" height="53.058"/>
				<rect x="334.893" y="400.306" style="fill:#048ED6;" width="8.9" height="53.058"/>
			</g>
		</g>
		<rect x="145.748" y="432.733" style="opacity:0.3;fill:#003159;" width="208.503" height="20.63"/>
		<rect x="145.748" y="403.224" style="opacity:0.3;fill:#F7F7F7;" width="208.503" height="9.004"/>
	</g>
	<g>
		<g>
			<path style="fill:#E8E6D5;" d="M373.918,365.316h-34.744H160.826h-34.744c4.076,10.704,4.076,21.917,0,32.621h34.744h178.348
				h34.744C369.842,387.233,369.842,376.02,373.918,365.316z"/>
			<g>
				<g>
					<path style="fill:#D6D4CC;" d="M134.586,372.194c73.94-0.651,156.889-0.656,230.828,0
						C291.474,372.85,208.525,372.844,134.586,372.194L134.586,372.194z"/>
				</g>
				<g>
					<path style="fill:#D6D4CC;" d="M134.586,376.91c73.94-0.651,156.889-0.656,230.828,0
						C291.474,377.566,208.525,377.561,134.586,376.91L134.586,376.91z"/>
				</g>
				<g>
					<path style="fill:#D6D4CC;" d="M134.586,381.626c73.94-0.651,156.889-0.656,230.828,0
						C291.474,382.283,208.525,382.277,134.586,381.626L134.586,381.626z"/>
				</g>
				<g>
					<path style="fill:#D6D4CC;" d="M134.586,386.343c73.94-0.651,156.889-0.656,230.828,0
						C291.474,386.999,208.525,386.993,134.586,386.343L134.586,386.343z"/>
				</g>
				<g>
					<path style="fill:#D6D4CC;" d="M134.586,391.059c73.94-0.651,156.889-0.656,230.828,0
						C291.474,391.716,208.525,391.71,134.586,391.059L134.586,391.059z"/>
				</g>
			</g>
			<path style="fill:#D8D6CE;" d="M373.918,365.316h-34.744H160.826h-34.744c1.946,5.111,2.952,10.337,3.04,15.569l242.207-5.646
				C371.813,371.903,372.673,368.586,373.918,365.316z"/>
		</g>
		<g>
			<rect x="122.969" y="362.947" style="fill:#048ED6;" width="254.061" height="4.738"/>
			<rect x="122.969" y="395.568" style="fill:#048ED6;" width="254.061" height="4.738"/>
		</g>
	</g>
	<g>
		<g>
			<path style="fill:#E8E6D5;" d="M345.58,41.108h-26.799H181.219H154.42c3.144,13.08,3.144,26.782,0,39.863h26.799h137.563h26.799
				C342.436,67.89,342.436,54.189,345.58,41.108z"/>
			<g>
				<g>
					<path style="fill:#D6D4CC;" d="M160.979,49.513c57.03-0.651,121.012-0.656,178.042,0
						C281.991,50.169,218.009,50.163,160.979,49.513L160.979,49.513z"/>
				</g>
				<g>
					<path style="fill:#D6D4CC;" d="M160.979,55.276c57.03-0.651,121.012-0.656,178.042,0
						C281.991,55.932,218.009,55.927,160.979,55.276L160.979,55.276z"/>
				</g>
				<g>
					<path style="fill:#D6D4CC;" d="M160.979,61.04c57.03-0.651,121.012-0.656,178.042,0
						C281.991,61.696,218.009,61.69,160.979,61.04L160.979,61.04z"/>
				</g>
				<g>
					<path style="fill:#D6D4CC;" d="M160.979,66.803c57.03-0.651,121.012-0.656,178.042,0
						C281.991,67.459,218.009,67.454,160.979,66.803L160.979,66.803z"/>
				</g>
				<g>
					<path style="fill:#D6D4CC;" d="M160.979,72.567c57.03-0.651,121.012-0.656,178.042,0
						C281.991,73.223,218.009,73.217,160.979,72.567L160.979,72.567z"/>
				</g>
			</g>
			<path style="fill:#D8D6CE;" d="M345.58,41.108h-26.799H181.219H154.42c1.501,6.245,2.277,12.632,2.345,19.026l186.818-6.9
				C343.956,49.158,344.62,45.104,345.58,41.108z"/>
		</g>
		<g>
			<rect x="152.019" y="38.213" style="fill:#003159;" width="195.962" height="5.79"/>
			<rect x="152.019" y="78.076" style="fill:#003159;" width="195.962" height="5.79"/>
		</g>
	</g>
	<g>
		<path style="fill:#E8E6D5;" d="M338.556,350.82v-30.242c0-5.523-4.477-10-10-10H161.029c5.808,16.525,5.804,33.717-0.011,50.242
			h167.538C334.079,360.82,338.556,356.343,338.556,350.82z"/>
		<g>
			<g>
				<path style="fill:#D6D4CC;" d="M168.004,317.527c50.501-0.651,107.161-0.656,157.662,0
					C275.165,318.183,218.505,318.177,168.004,317.527L168.004,317.527z"/>
			</g>
			<g>
				<path style="fill:#D6D4CC;" d="M168.004,326.007c50.501-0.651,107.161-0.656,157.662,0
					C275.165,326.663,218.505,326.657,168.004,326.007L168.004,326.007z"/>
			</g>
			<g>
				<path style="fill:#D6D4CC;" d="M168.004,334.486c50.501-0.651,107.161-0.656,157.662,0
					C275.165,335.143,218.505,335.137,168.004,334.486L168.004,334.486z"/>
			</g>
			<g>
				<path style="fill:#D6D4CC;" d="M168.004,342.966c50.501-0.651,107.161-0.656,157.662,0
					C275.165,343.622,218.505,343.617,168.004,342.966L168.004,342.966z"/>
			</g>
			<g>
				<path style="fill:#D6D4CC;" d="M168.004,351.446c50.501-0.651,107.161-0.656,157.662,0
					C275.165,352.102,218.505,352.097,168.004,351.446L168.004,351.446z"/>
			</g>
		</g>
		<path style="fill:#D8D6CE;" d="M328.556,310.578H161.029c1.322,3.761,2.327,7.559,3.047,11.373H323.9c5.523,0,10,4.477,10,10
			v27.311c2.795-1.773,4.656-4.887,4.656-8.442v-30.242C338.556,315.055,334.079,310.578,328.556,310.578z"/>
		<g>
			<path style="fill:#003159;" d="M328.555,362.82H159.445v-4h169.111c4.411,0,8-3.589,8-8v-30.242c0-4.411-3.589-8-8-8H159.445v-4
				h169.111c6.617,0,12,5.383,12,12v30.242C340.555,357.437,335.173,362.82,328.555,362.82z"/>
		</g>
	</g>
	<g>
		<path style="fill:#E8E6D5;" d="M141.972,158.821v-12.813c0-5.523,4.477-10,10-10h206.471c-5.949,15.628-2.674,24.651,0.011,32.813
			H151.972C146.449,168.821,141.972,164.344,141.972,158.821z"/>
		<g>
			<g>
				<path style="fill:#D6D4CC;" d="M351.468,142.956c-62.977,0.651-133.629,0.656-196.606,0
					C217.839,142.3,288.491,142.306,351.468,142.956L351.468,142.956z"/>
			</g>
			<g>
				<path style="fill:#D6D4CC;" d="M351.468,151.436c-62.977,0.651-133.629,0.656-196.606,0
					C217.839,150.78,288.491,150.785,351.468,151.436L351.468,151.436z"/>
			</g>
			<g>
				<path style="fill:#D6D4CC;" d="M351.468,159.916c-62.977,0.651-133.629,0.656-196.606,0
					C217.839,159.26,288.491,159.265,351.468,159.916L351.468,159.916z"/>
			</g>
			<g>
				<path style="fill:#D6D4CC;" d="M351.468,150.967c-62.977,0.651-133.629,0.656-196.606,0
					C217.839,150.311,288.491,150.316,351.468,150.967L351.468,150.967z"/>
			</g>
			<g>
				<path style="fill:#D6D4CC;" d="M351.468,159.447c-62.977,0.651-133.629,0.656-196.606,0
					C217.839,158.791,288.491,158.796,351.468,159.447L351.468,159.447z"/>
			</g>
		</g>
		<path style="fill:#D8D6CE;" d="M151.972,136.007h206.471c-1.322,3.761-2.327,7.559-3.047,11.373H156.628c-5.523,0-10,4.477-10,10
			v9.882c-2.795-1.773-4.656-4.887-4.656-8.442v-12.813C141.972,140.485,146.449,136.007,151.972,136.007z"/>
		<g>
			<path style="fill:#003159;" d="M151.973,170.821h208.054v-4H151.973c-4.418,0-8-3.582-8-8v-12.814c0-4.418,3.582-8,8-8h208.054
				v-4H151.973c-6.627,0-12,5.373-12,12v12.814C139.973,165.448,145.345,170.821,151.973,170.821z"/>
		</g>
	</g>
	<g>
		<rect x="141.532" y="268.829" style="fill:#048ED6;" width="216.936" height="40.987"/>
		<g>
			<rect x="147.048" y="268.829" style="fill:#003159;" width="1.595" height="40.987"/>
			<rect x="150.054" y="268.829" style="fill:#003159;" width="1.595" height="40.987"/>
			<rect x="153.163" y="268.829" style="fill:#003159;" width="1.595" height="40.987"/>
			<rect x="167.345" y="268.829" style="fill:#003159;" width="1.595" height="40.987"/>
			<g>
				<rect x="156.406" y="268.829" style="fill:#003159;" width="9.077" height="40.987"/>
				
					<rect x="351.357" y="268.829" transform="matrix(-1 -1.224647e-16 1.224647e-16 -1 704.3089 578.6444)" style="fill:#003159;" width="1.595" height="40.987"/>
				
					<rect x="348.351" y="268.829" transform="matrix(-1 -1.224647e-16 1.224647e-16 -1 698.2961 578.6444)" style="fill:#003159;" width="1.595" height="40.987"/>
				
					<rect x="345.242" y="268.829" transform="matrix(-1 -1.224647e-16 1.224647e-16 -1 692.0784 578.6444)" style="fill:#003159;" width="1.595" height="40.987"/>
				
					<rect x="331.06" y="268.829" transform="matrix(-1 -1.224647e-16 1.224647e-16 -1 663.7158 578.6444)" style="fill:#003159;" width="1.595" height="40.987"/>
				
					<rect x="334.517" y="268.829" transform="matrix(-1 -1.224647e-16 1.224647e-16 -1 678.1116 578.6444)" style="fill:#003159;" width="9.077" height="40.987"/>
			</g>
		</g>
		<g>
			
				<rect x="181.247" y="275.439" transform="matrix(0.7071 -0.7071 0.7071 0.7071 -143.8823 214.1558)" style="fill:#003159;" width="10.641" height="10.641"/>
			
				<rect x="181.247" y="292.564" transform="matrix(0.7071 -0.7071 0.7071 0.7071 -155.9922 219.1719)" style="fill:#003159;" width="10.641" height="10.641"/>
			
				<rect x="199.371" y="275.439" transform="matrix(0.7071 -0.7071 0.7071 0.7071 -138.5741 226.9711)" style="fill:#003159;" width="10.641" height="10.641"/>
			
				<rect x="199.371" y="292.564" transform="matrix(0.7071 -0.7071 0.7071 0.7071 -150.6839 231.9871)" style="fill:#003159;" width="10.641" height="10.641"/>
			
				<rect x="217.494" y="275.439" transform="matrix(0.7071 -0.7071 0.7071 0.7071 -133.2659 239.7863)" style="fill:#003159;" width="10.641" height="10.641"/>
			
				<rect x="217.494" y="292.564" transform="matrix(0.7071 -0.7071 0.7071 0.7071 -145.3757 244.8024)" style="fill:#003159;" width="10.641" height="10.641"/>
			
				<rect x="235.618" y="275.439" transform="matrix(0.7071 -0.7071 0.7071 0.7071 -127.9576 252.6016)" style="fill:#003159;" width="10.641" height="10.641"/>
			
				<rect x="235.618" y="292.564" transform="matrix(0.7071 -0.7071 0.7071 0.7071 -140.0674 257.6176)" style="fill:#003159;" width="10.641" height="10.641"/>
			
				<rect x="253.741" y="275.439" transform="matrix(0.7071 -0.7071 0.7071 0.7071 -122.6494 265.4168)" style="fill:#003159;" width="10.641" height="10.641"/>
			
				<rect x="253.741" y="292.564" transform="matrix(0.7071 -0.7071 0.7071 0.7071 -134.7592 270.4329)" style="fill:#003159;" width="10.641" height="10.641"/>
			
				<rect x="271.865" y="275.439" transform="matrix(0.7071 -0.7071 0.7071 0.7071 -117.3411 278.2321)" style="fill:#003159;" width="10.641" height="10.641"/>
			
				<rect x="271.865" y="292.564" transform="matrix(0.7071 -0.7071 0.7071 0.7071 -129.4509 283.2481)" style="fill:#003159;" width="10.641" height="10.641"/>
			
				<rect x="289.988" y="275.439" transform="matrix(0.7071 -0.7071 0.7071 0.7071 -112.0329 291.0473)" style="fill:#003159;" width="10.641" height="10.641"/>
			
				<rect x="289.988" y="292.564" transform="matrix(0.7071 -0.7071 0.7071 0.7071 -124.1427 296.0633)" style="fill:#003159;" width="10.641" height="10.641"/>
			
				<rect x="308.112" y="275.439" transform="matrix(0.7071 -0.7071 0.7071 0.7071 -106.7246 303.8625)" style="fill:#003159;" width="10.641" height="10.641"/>
			
				<rect x="308.112" y="292.564" transform="matrix(0.7071 -0.7071 0.7071 0.7071 -118.8344 308.8786)" style="fill:#003159;" width="10.641" height="10.641"/>
		</g>
		<rect x="141.532" y="272.379" style="opacity:0.3;fill:#F7F7F7;" width="216.936" height="4.772"/>
		<rect x="141.532" y="297.885" style="opacity:0.5;fill:#048ED6;" width="216.936" height="11.931"/>
	</g>
	<g>
		<rect x="151.489" y="213.848" style="fill:#003159;" width="197.023" height="54.981"/>
		<g>
			<g>
				<rect x="162.042" y="213.848" style="fill:#048ED6;" width="3.654" height="54.981"/>
				<rect x="204.905" y="213.848" style="fill:#048ED6;" width="3.654" height="54.981"/>
			</g>
			<g>
				<g>
					<path style="fill:#048ED6;" d="M175.142,252.121c0.625-0.625,0.625-1.637,0-2.262l-1.63-1.63
						c-0.262-0.262-0.593-0.408-0.935-0.45c0.342-0.042,0.673-0.188,0.935-0.45l1.63-1.63c0.625-0.625,0.625-1.637,0-2.262
						l-1.63-1.63c-0.625-0.625-1.637-0.625-2.262,0l-1.63,1.63c-0.625,0.625-0.625,1.637,0,2.262l1.63,1.63
						c0.262,0.262,0.593,0.408,0.935,0.45c-0.342,0.042-0.673,0.187-0.935,0.45l-1.63,1.63c-0.625,0.625-0.625,1.637,0,2.262
						l1.63,1.63c0.262,0.262,0.593,0.408,0.935,0.45c-0.342,0.042-0.673,0.187-0.935,0.45l-1.63,1.63
						c-0.625,0.625-0.625,1.637,0,2.262l1.63,1.63c0.262,0.262,0.593,0.408,0.935,0.45c-0.342,0.042-0.673,0.188-0.935,0.45
						l-1.63,1.63c-0.625,0.625-0.625,1.637,0,2.262l1.63,1.63c0.625,0.625,1.637,0.625,2.262,0l1.63-1.63
						c0.625-0.625,0.625-1.637,0-2.262l-1.63-1.63c-0.262-0.262-0.593-0.408-0.935-0.45c0.342-0.042,0.673-0.188,0.935-0.45
						l1.63-1.63c0.625-0.625,0.625-1.637,0-2.262l-1.63-1.63c-0.262-0.262-0.593-0.408-0.935-0.45
						c0.342-0.042,0.673-0.187,0.935-0.45L175.142,252.121z"/>
					<path style="fill:#048ED6;" d="M181.602,252.121c0.625-0.625,0.625-1.637,0-2.262l-1.63-1.63
						c-0.262-0.262-0.593-0.408-0.935-0.45c0.342-0.042,0.673-0.188,0.935-0.45l1.63-1.63c0.625-0.625,0.625-1.637,0-2.262
						l-1.63-1.63c-0.625-0.625-1.637-0.625-2.262,0l-1.63,1.63c-0.625,0.625-0.625,1.637,0,2.262l1.63,1.63
						c0.262,0.262,0.593,0.408,0.935,0.45c-0.342,0.042-0.673,0.187-0.935,0.45l-1.63,1.63c-0.625,0.625-0.625,1.637,0,2.262
						l1.63,1.63c0.262,0.262,0.593,0.408,0.935,0.45c-0.342,0.042-0.673,0.187-0.935,0.45l-1.63,1.63
						c-0.625,0.625-0.625,1.637,0,2.262l1.63,1.63c0.262,0.262,0.593,0.408,0.935,0.45c-0.342,0.042-0.673,0.188-0.935,0.45
						l-1.63,1.63c-0.625,0.625-0.625,1.637,0,2.262l1.63,1.63c0.625,0.625,1.637,0.625,2.262,0l1.63-1.63
						c0.625-0.625,0.625-1.637,0-2.262l-1.63-1.63c-0.262-0.262-0.593-0.408-0.935-0.45c0.342-0.042,0.673-0.188,0.935-0.45
						l1.63-1.63c0.625-0.625,0.625-1.637,0-2.262l-1.63-1.63c-0.262-0.262-0.593-0.408-0.935-0.45
						c0.342-0.042,0.673-0.187,0.935-0.45L181.602,252.121z"/>
					<path style="fill:#048ED6;" d="M188.062,252.121c0.625-0.625,0.625-1.637,0-2.262l-1.63-1.63
						c-0.262-0.262-0.593-0.408-0.935-0.45c0.342-0.042,0.673-0.188,0.935-0.45l1.63-1.63c0.625-0.625,0.625-1.637,0-2.262
						l-1.63-1.63c-0.625-0.625-1.637-0.625-2.262,0l-1.63,1.63c-0.625,0.625-0.625,1.637,0,2.262l1.63,1.63
						c0.262,0.262,0.593,0.408,0.935,0.45c-0.342,0.042-0.673,0.187-0.935,0.45l-1.63,1.63c-0.625,0.625-0.625,1.637,0,2.262
						l1.63,1.63c0.262,0.262,0.593,0.408,0.935,0.45c-0.342,0.042-0.673,0.187-0.935,0.45l-1.63,1.63
						c-0.625,0.625-0.625,1.637,0,2.262l1.63,1.63c0.262,0.262,0.593,0.408,0.935,0.45c-0.342,0.042-0.673,0.188-0.935,0.45
						l-1.63,1.63c-0.625,0.625-0.625,1.637,0,2.262l1.63,1.63c0.625,0.625,1.637,0.625,2.262,0l1.63-1.63
						c0.625-0.625,0.625-1.637,0-2.262l-1.63-1.63c-0.262-0.262-0.593-0.408-0.935-0.45c0.342-0.042,0.673-0.188,0.935-0.45
						l1.63-1.63c0.625-0.625,0.625-1.637,0-2.262l-1.63-1.63c-0.262-0.262-0.593-0.408-0.935-0.45
						c0.342-0.042,0.673-0.187,0.935-0.45L188.062,252.121z"/>
					<path style="fill:#048ED6;" d="M194.521,252.121c0.625-0.625,0.625-1.637,0-2.262l-1.63-1.63
						c-0.262-0.262-0.593-0.408-0.935-0.45c0.342-0.042,0.673-0.188,0.935-0.45l1.63-1.63c0.625-0.625,0.625-1.637,0-2.262
						l-1.63-1.63c-0.625-0.625-1.637-0.625-2.262,0l-1.63,1.63c-0.625,0.625-0.625,1.637,0,2.262l1.63,1.63
						c0.262,0.262,0.593,0.408,0.935,0.45c-0.342,0.042-0.673,0.187-0.935,0.45l-1.63,1.63c-0.625,0.625-0.625,1.637,0,2.262
						l1.63,1.63c0.262,0.262,0.593,0.408,0.935,0.45c-0.342,0.042-0.673,0.187-0.935,0.45l-1.63,1.63
						c-0.625,0.625-0.625,1.637,0,2.262l1.63,1.63c0.262,0.262,0.593,0.408,0.935,0.45c-0.342,0.042-0.673,0.188-0.935,0.45
						l-1.63,1.63c-0.625,0.625-0.625,1.637,0,2.262l1.63,1.63c0.625,0.625,1.637,0.625,2.262,0l1.63-1.63
						c0.625-0.625,0.625-1.637,0-2.262l-1.63-1.63c-0.262-0.262-0.593-0.408-0.935-0.45c0.342-0.042,0.673-0.188,0.935-0.45
						l1.63-1.63c0.625-0.625,0.625-1.637,0-2.262l-1.63-1.63c-0.262-0.262-0.593-0.408-0.935-0.45
						c0.342-0.042,0.673-0.187,0.935-0.45L194.521,252.121z"/>
					<path style="fill:#048ED6;" d="M200.981,252.121c0.625-0.625,0.625-1.637,0-2.262l-1.63-1.63
						c-0.262-0.262-0.593-0.408-0.935-0.45c0.342-0.042,0.673-0.188,0.935-0.45l1.63-1.63c0.625-0.625,0.625-1.637,0-2.262
						l-1.63-1.63c-0.625-0.625-1.637-0.625-2.262,0l-1.63,1.63c-0.625,0.625-0.625,1.637,0,2.262l1.63,1.63
						c0.262,0.262,0.593,0.408,0.935,0.45c-0.342,0.042-0.673,0.187-0.935,0.45l-1.63,1.63c-0.625,0.625-0.625,1.637,0,2.262
						l1.63,1.63c0.262,0.262,0.593,0.408,0.935,0.45c-0.342,0.042-0.673,0.187-0.935,0.45l-1.63,1.63
						c-0.625,0.625-0.625,1.637,0,2.262l1.63,1.63c0.262,0.262,0.593,0.408,0.935,0.45c-0.342,0.042-0.673,0.188-0.935,0.45
						l-1.63,1.63c-0.625,0.625-0.625,1.637,0,2.262l1.63,1.63c0.625,0.625,1.637,0.625,2.262,0l1.63-1.63
						c0.625-0.625,0.625-1.637,0-2.262l-1.63-1.63c-0.262-0.262-0.593-0.408-0.935-0.45c0.342-0.042,0.673-0.188,0.935-0.45
						l1.63-1.63c0.625-0.625,0.625-1.637,0-2.262l-1.63-1.63c-0.262-0.262-0.593-0.408-0.935-0.45
						c0.342-0.042,0.673-0.187,0.935-0.45L200.981,252.121z"/>
				</g>
				<g>
					<path style="fill:#048ED6;" d="M175.142,226.395c0.625-0.625,0.625-1.637,0-2.262l-1.63-1.63
						c-0.262-0.262-0.593-0.408-0.935-0.45c0.342-0.042,0.673-0.188,0.935-0.45l1.63-1.63c0.625-0.625,0.625-1.637,0-2.262
						l-1.63-1.63c-0.625-0.625-1.637-0.625-2.262,0l-1.63,1.63c-0.625,0.625-0.625,1.637,0,2.262l1.63,1.63
						c0.262,0.262,0.593,0.408,0.935,0.45c-0.342,0.042-0.673,0.187-0.935,0.45l-1.63,1.63c-0.625,0.625-0.625,1.637,0,2.262
						l1.63,1.63c0.262,0.262,0.593,0.408,0.935,0.45c-0.342,0.042-0.673,0.187-0.935,0.45l-1.63,1.63
						c-0.625,0.625-0.625,1.637,0,2.262l1.63,1.63c0.262,0.262,0.593,0.408,0.935,0.45c-0.342,0.042-0.673,0.188-0.935,0.45
						l-1.63,1.63c-0.625,0.625-0.625,1.637,0,2.262l1.63,1.63c0.625,0.625,1.637,0.625,2.262,0l1.63-1.63
						c0.625-0.625,0.625-1.637,0-2.262l-1.63-1.63c-0.262-0.262-0.593-0.408-0.935-0.45c0.342-0.042,0.673-0.187,0.935-0.45
						l1.63-1.63c0.625-0.625,0.625-1.637,0-2.262l-1.63-1.63c-0.262-0.262-0.593-0.408-0.935-0.45
						c0.342-0.042,0.673-0.187,0.935-0.45L175.142,226.395z"/>
					<path style="fill:#048ED6;" d="M181.602,226.395c0.625-0.625,0.625-1.637,0-2.262l-1.63-1.63
						c-0.262-0.262-0.593-0.408-0.935-0.45c0.342-0.042,0.673-0.188,0.935-0.45l1.63-1.63c0.625-0.625,0.625-1.637,0-2.262
						l-1.63-1.63c-0.625-0.625-1.637-0.625-2.262,0l-1.63,1.63c-0.625,0.625-0.625,1.637,0,2.262l1.63,1.63
						c0.262,0.262,0.593,0.408,0.935,0.45c-0.342,0.042-0.673,0.187-0.935,0.45l-1.63,1.63c-0.625,0.625-0.625,1.637,0,2.262
						l1.63,1.63c0.262,0.262,0.593,0.408,0.935,0.45c-0.342,0.042-0.673,0.187-0.935,0.45l-1.63,1.63
						c-0.625,0.625-0.625,1.637,0,2.262l1.63,1.63c0.262,0.262,0.593,0.408,0.935,0.45c-0.342,0.042-0.673,0.188-0.935,0.45
						l-1.63,1.63c-0.625,0.625-0.625,1.637,0,2.262l1.63,1.63c0.625,0.625,1.637,0.625,2.262,0l1.63-1.63
						c0.625-0.625,0.625-1.637,0-2.262l-1.63-1.63c-0.262-0.262-0.593-0.408-0.935-0.45c0.342-0.042,0.673-0.187,0.935-0.45
						l1.63-1.63c0.625-0.625,0.625-1.637,0-2.262l-1.63-1.63c-0.262-0.262-0.593-0.408-0.935-0.45
						c0.342-0.042,0.673-0.187,0.935-0.45L181.602,226.395z"/>
					<path style="fill:#048ED6;" d="M188.062,226.395c0.625-0.625,0.625-1.637,0-2.262l-1.63-1.63
						c-0.262-0.262-0.593-0.408-0.935-0.45c0.342-0.042,0.673-0.188,0.935-0.45l1.63-1.63c0.625-0.625,0.625-1.637,0-2.262
						l-1.63-1.63c-0.625-0.625-1.637-0.625-2.262,0l-1.63,1.63c-0.625,0.625-0.625,1.637,0,2.262l1.63,1.63
						c0.262,0.262,0.593,0.408,0.935,0.45c-0.342,0.042-0.673,0.187-0.935,0.45l-1.63,1.63c-0.625,0.625-0.625,1.637,0,2.262
						l1.63,1.63c0.262,0.262,0.593,0.408,0.935,0.45c-0.342,0.042-0.673,0.187-0.935,0.45l-1.63,1.63
						c-0.625,0.625-0.625,1.637,0,2.262l1.63,1.63c0.262,0.262,0.593,0.408,0.935,0.45c-0.342,0.042-0.673,0.188-0.935,0.45
						l-1.63,1.63c-0.625,0.625-0.625,1.637,0,2.262l1.63,1.63c0.625,0.625,1.637,0.625,2.262,0l1.63-1.63
						c0.625-0.625,0.625-1.637,0-2.262l-1.63-1.63c-0.262-0.262-0.593-0.408-0.935-0.45c0.342-0.042,0.673-0.187,0.935-0.45
						l1.63-1.63c0.625-0.625,0.625-1.637,0-2.262l-1.63-1.63c-0.262-0.262-0.593-0.408-0.935-0.45
						c0.342-0.042,0.673-0.187,0.935-0.45L188.062,226.395z"/>
					<path style="fill:#048ED6;" d="M194.521,226.395c0.625-0.625,0.625-1.637,0-2.262l-1.63-1.63
						c-0.262-0.262-0.593-0.408-0.935-0.45c0.342-0.042,0.673-0.188,0.935-0.45l1.63-1.63c0.625-0.625,0.625-1.637,0-2.262
						l-1.63-1.63c-0.625-0.625-1.637-0.625-2.262,0l-1.63,1.63c-0.625,0.625-0.625,1.637,0,2.262l1.63,1.63
						c0.262,0.262,0.593,0.408,0.935,0.45c-0.342,0.042-0.673,0.187-0.935,0.45l-1.63,1.63c-0.625,0.625-0.625,1.637,0,2.262
						l1.63,1.63c0.262,0.262,0.593,0.408,0.935,0.45c-0.342,0.042-0.673,0.187-0.935,0.45l-1.63,1.63
						c-0.625,0.625-0.625,1.637,0,2.262l1.63,1.63c0.262,0.262,0.593,0.408,0.935,0.45c-0.342,0.042-0.673,0.188-0.935,0.45
						l-1.63,1.63c-0.625,0.625-0.625,1.637,0,2.262l1.63,1.63c0.625,0.625,1.637,0.625,2.262,0l1.63-1.63
						c0.625-0.625,0.625-1.637,0-2.262l-1.63-1.63c-0.262-0.262-0.593-0.408-0.935-0.45c0.342-0.042,0.673-0.187,0.935-0.45
						l1.63-1.63c0.625-0.625,0.625-1.637,0-2.262l-1.63-1.63c-0.262-0.262-0.593-0.408-0.935-0.45
						c0.342-0.042,0.673-0.187,0.935-0.45L194.521,226.395z"/>
					<path style="fill:#048ED6;" d="M200.981,226.395c0.625-0.625,0.625-1.637,0-2.262l-1.63-1.63
						c-0.262-0.262-0.593-0.408-0.935-0.45c0.342-0.042,0.673-0.188,0.935-0.45l1.63-1.63c0.625-0.625,0.625-1.637,0-2.262
						l-1.63-1.63c-0.625-0.625-1.637-0.625-2.262,0l-1.63,1.63c-0.625,0.625-0.625,1.637,0,2.262l1.63,1.63
						c0.262,0.262,0.593,0.408,0.935,0.45c-0.342,0.042-0.673,0.187-0.935,0.45l-1.63,1.63c-0.625,0.625-0.625,1.637,0,2.262
						l1.63,1.63c0.262,0.262,0.593,0.408,0.935,0.45c-0.342,0.042-0.673,0.187-0.935,0.45l-1.63,1.63
						c-0.625,0.625-0.625,1.637,0,2.262l1.63,1.63c0.262,0.262,0.593,0.408,0.935,0.45c-0.342,0.042-0.673,0.188-0.935,0.45
						l-1.63,1.63c-0.625,0.625-0.625,1.637,0,2.262l1.63,1.63c0.625,0.625,1.637,0.625,2.262,0l1.63-1.63
						c0.625-0.625,0.625-1.637,0-2.262l-1.63-1.63c-0.262-0.262-0.593-0.408-0.935-0.45c0.342-0.042,0.673-0.187,0.935-0.45
						l1.63-1.63c0.625-0.625,0.625-1.637,0-2.262l-1.63-1.63c-0.262-0.262-0.593-0.408-0.935-0.45
						c0.342-0.042,0.673-0.187,0.935-0.45L200.981,226.395z"/>
				</g>
			</g>
			<g>
				<rect x="226.742" y="213.848" style="fill:#048ED6;" width="3.654" height="54.981"/>
				<rect x="269.604" y="213.848" style="fill:#048ED6;" width="3.654" height="54.981"/>
			</g>
			<g>
				<g>
					<path style="fill:#048ED6;" d="M239.842,252.121c0.625-0.625,0.625-1.637,0-2.262l-1.63-1.63
						c-0.262-0.262-0.593-0.408-0.935-0.45c0.342-0.042,0.673-0.188,0.935-0.45l1.63-1.63c0.625-0.625,0.625-1.637,0-2.262
						l-1.63-1.63c-0.625-0.625-1.637-0.625-2.262,0l-1.63,1.63c-0.625,0.625-0.625,1.637,0,2.262l1.63,1.63
						c0.262,0.262,0.593,0.408,0.935,0.45c-0.342,0.042-0.673,0.187-0.935,0.45l-1.63,1.63c-0.625,0.625-0.625,1.637,0,2.262
						l1.63,1.63c0.262,0.262,0.593,0.408,0.935,0.45c-0.342,0.042-0.673,0.187-0.935,0.45l-1.63,1.63
						c-0.625,0.625-0.625,1.637,0,2.262l1.63,1.63c0.262,0.262,0.593,0.408,0.935,0.45c-0.342,0.042-0.673,0.188-0.935,0.45
						l-1.63,1.63c-0.625,0.625-0.625,1.637,0,2.262l1.63,1.63c0.625,0.625,1.637,0.625,2.262,0l1.63-1.63
						c0.625-0.625,0.625-1.637,0-2.262l-1.63-1.63c-0.262-0.262-0.593-0.408-0.935-0.45c0.342-0.042,0.673-0.188,0.935-0.45
						l1.63-1.63c0.625-0.625,0.625-1.637,0-2.262l-1.63-1.63c-0.262-0.262-0.593-0.408-0.935-0.45
						c0.342-0.042,0.673-0.187,0.935-0.45L239.842,252.121z"/>
					<path style="fill:#048ED6;" d="M246.302,252.121c0.625-0.625,0.625-1.637,0-2.262l-1.63-1.63
						c-0.262-0.262-0.593-0.408-0.935-0.45c0.342-0.042,0.673-0.188,0.935-0.45l1.63-1.63c0.625-0.625,0.625-1.637,0-2.262
						l-1.63-1.63c-0.625-0.625-1.637-0.625-2.262,0l-1.63,1.63c-0.625,0.625-0.625,1.637,0,2.262l1.63,1.63
						c0.262,0.262,0.593,0.408,0.935,0.45c-0.342,0.042-0.673,0.187-0.935,0.45l-1.63,1.63c-0.625,0.625-0.625,1.637,0,2.262
						l1.63,1.63c0.262,0.262,0.593,0.408,0.935,0.45c-0.342,0.042-0.673,0.187-0.935,0.45l-1.63,1.63
						c-0.625,0.625-0.625,1.637,0,2.262l1.63,1.63c0.262,0.262,0.593,0.408,0.935,0.45c-0.342,0.042-0.673,0.188-0.935,0.45
						l-1.63,1.63c-0.625,0.625-0.625,1.637,0,2.262l1.63,1.63c0.625,0.625,1.637,0.625,2.262,0l1.63-1.63
						c0.625-0.625,0.625-1.637,0-2.262l-1.63-1.63c-0.262-0.262-0.593-0.408-0.935-0.45c0.342-0.042,0.673-0.188,0.935-0.45
						l1.63-1.63c0.625-0.625,0.625-1.637,0-2.262l-1.63-1.63c-0.262-0.262-0.593-0.408-0.935-0.45
						c0.342-0.042,0.673-0.187,0.935-0.45L246.302,252.121z"/>
					<path style="fill:#048ED6;" d="M252.761,252.121c0.625-0.625,0.625-1.637,0-2.262l-1.63-1.63
						c-0.262-0.262-0.593-0.408-0.935-0.45c0.342-0.042,0.673-0.188,0.935-0.45l1.63-1.63c0.625-0.625,0.625-1.637,0-2.262
						l-1.63-1.63c-0.625-0.625-1.637-0.625-2.262,0l-1.63,1.63c-0.625,0.625-0.625,1.637,0,2.262l1.63,1.63
						c0.262,0.262,0.593,0.408,0.935,0.45c-0.342,0.042-0.673,0.187-0.935,0.45l-1.63,1.63c-0.625,0.625-0.625,1.637,0,2.262
						l1.63,1.63c0.262,0.262,0.593,0.408,0.935,0.45c-0.342,0.042-0.673,0.187-0.935,0.45l-1.63,1.63
						c-0.625,0.625-0.625,1.637,0,2.262l1.63,1.63c0.262,0.262,0.593,0.408,0.935,0.45c-0.342,0.042-0.673,0.188-0.935,0.45
						l-1.63,1.63c-0.625,0.625-0.625,1.637,0,2.262l1.63,1.63c0.625,0.625,1.637,0.625,2.262,0l1.63-1.63
						c0.625-0.625,0.625-1.637,0-2.262l-1.63-1.63c-0.262-0.262-0.593-0.408-0.935-0.45c0.342-0.042,0.673-0.188,0.935-0.45
						l1.63-1.63c0.625-0.625,0.625-1.637,0-2.262l-1.63-1.63c-0.262-0.262-0.593-0.408-0.935-0.45
						c0.342-0.042,0.673-0.187,0.935-0.45L252.761,252.121z"/>
					<path style="fill:#048ED6;" d="M259.221,252.121c0.625-0.625,0.625-1.637,0-2.262l-1.63-1.63
						c-0.262-0.262-0.593-0.408-0.935-0.45c0.342-0.042,0.673-0.188,0.935-0.45l1.63-1.63c0.625-0.625,0.625-1.637,0-2.262
						l-1.63-1.63c-0.625-0.625-1.637-0.625-2.262,0l-1.63,1.63c-0.625,0.625-0.625,1.637,0,2.262l1.63,1.63
						c0.262,0.262,0.593,0.408,0.935,0.45c-0.342,0.042-0.673,0.187-0.935,0.45l-1.63,1.63c-0.625,0.625-0.625,1.637,0,2.262
						l1.63,1.63c0.262,0.262,0.593,0.408,0.935,0.45c-0.342,0.042-0.673,0.187-0.935,0.45l-1.63,1.63
						c-0.625,0.625-0.625,1.637,0,2.262l1.63,1.63c0.262,0.262,0.593,0.408,0.935,0.45c-0.342,0.042-0.673,0.188-0.935,0.45
						l-1.63,1.63c-0.625,0.625-0.625,1.637,0,2.262l1.63,1.63c0.625,0.625,1.637,0.625,2.262,0l1.63-1.63
						c0.625-0.625,0.625-1.637,0-2.262l-1.63-1.63c-0.262-0.262-0.593-0.408-0.935-0.45c0.342-0.042,0.673-0.188,0.935-0.45
						l1.63-1.63c0.625-0.625,0.625-1.637,0-2.262l-1.63-1.63c-0.262-0.262-0.593-0.408-0.935-0.45
						c0.342-0.042,0.673-0.187,0.935-0.45L259.221,252.121z"/>
					<path style="fill:#048ED6;" d="M265.681,252.121c0.625-0.625,0.625-1.637,0-2.262l-1.63-1.63
						c-0.262-0.262-0.593-0.408-0.935-0.45c0.342-0.042,0.673-0.188,0.935-0.45l1.63-1.63c0.625-0.625,0.625-1.637,0-2.262
						l-1.63-1.63c-0.625-0.625-1.637-0.625-2.262,0l-1.63,1.63c-0.625,0.625-0.625,1.637,0,2.262l1.63,1.63
						c0.262,0.262,0.593,0.408,0.935,0.45c-0.342,0.042-0.673,0.187-0.935,0.45l-1.63,1.63c-0.625,0.625-0.625,1.637,0,2.262
						l1.63,1.63c0.262,0.262,0.593,0.408,0.935,0.45c-0.342,0.042-0.673,0.187-0.935,0.45l-1.63,1.63
						c-0.625,0.625-0.625,1.637,0,2.262l1.63,1.63c0.262,0.262,0.593,0.408,0.935,0.45c-0.342,0.042-0.673,0.188-0.935,0.45
						l-1.63,1.63c-0.625,0.625-0.625,1.637,0,2.262l1.63,1.63c0.625,0.625,1.637,0.625,2.262,0l1.63-1.63
						c0.625-0.625,0.625-1.637,0-2.262l-1.63-1.63c-0.262-0.262-0.593-0.408-0.935-0.45c0.342-0.042,0.673-0.188,0.935-0.45
						l1.63-1.63c0.625-0.625,0.625-1.637,0-2.262l-1.63-1.63c-0.262-0.262-0.593-0.408-0.935-0.45
						c0.342-0.042,0.673-0.187,0.935-0.45L265.681,252.121z"/>
				</g>
				<g>
					<path style="fill:#048ED6;" d="M239.842,226.395c0.625-0.625,0.625-1.637,0-2.262l-1.63-1.63
						c-0.262-0.262-0.593-0.408-0.935-0.45c0.342-0.042,0.673-0.188,0.935-0.45l1.63-1.63c0.625-0.625,0.625-1.637,0-2.262
						l-1.63-1.63c-0.625-0.625-1.637-0.625-2.262,0l-1.63,1.63c-0.625,0.625-0.625,1.637,0,2.262l1.63,1.63
						c0.262,0.262,0.593,0.408,0.935,0.45c-0.342,0.042-0.673,0.187-0.935,0.45l-1.63,1.63c-0.625,0.625-0.625,1.637,0,2.262
						l1.63,1.63c0.262,0.262,0.593,0.408,0.935,0.45c-0.342,0.042-0.673,0.187-0.935,0.45l-1.63,1.63
						c-0.625,0.625-0.625,1.637,0,2.262l1.63,1.63c0.262,0.262,0.593,0.408,0.935,0.45c-0.342,0.042-0.673,0.188-0.935,0.45
						l-1.63,1.63c-0.625,0.625-0.625,1.637,0,2.262l1.63,1.63c0.625,0.625,1.637,0.625,2.262,0l1.63-1.63
						c0.625-0.625,0.625-1.637,0-2.262l-1.63-1.63c-0.262-0.262-0.593-0.408-0.935-0.45c0.342-0.042,0.673-0.187,0.935-0.45
						l1.63-1.63c0.625-0.625,0.625-1.637,0-2.262l-1.63-1.63c-0.262-0.262-0.593-0.408-0.935-0.45
						c0.342-0.042,0.673-0.187,0.935-0.45L239.842,226.395z"/>
					<path style="fill:#048ED6;" d="M246.302,226.395c0.625-0.625,0.625-1.637,0-2.262l-1.63-1.63
						c-0.262-0.262-0.593-0.408-0.935-0.45c0.342-0.042,0.673-0.188,0.935-0.45l1.63-1.63c0.625-0.625,0.625-1.637,0-2.262
						l-1.63-1.63c-0.625-0.625-1.637-0.625-2.262,0l-1.63,1.63c-0.625,0.625-0.625,1.637,0,2.262l1.63,1.63
						c0.262,0.262,0.593,0.408,0.935,0.45c-0.342,0.042-0.673,0.187-0.935,0.45l-1.63,1.63c-0.625,0.625-0.625,1.637,0,2.262
						l1.63,1.63c0.262,0.262,0.593,0.408,0.935,0.45c-0.342,0.042-0.673,0.187-0.935,0.45l-1.63,1.63
						c-0.625,0.625-0.625,1.637,0,2.262l1.63,1.63c0.262,0.262,0.593,0.408,0.935,0.45c-0.342,0.042-0.673,0.188-0.935,0.45
						l-1.63,1.63c-0.625,0.625-0.625,1.637,0,2.262l1.63,1.63c0.625,0.625,1.637,0.625,2.262,0l1.63-1.63
						c0.625-0.625,0.625-1.637,0-2.262l-1.63-1.63c-0.262-0.262-0.593-0.408-0.935-0.45c0.342-0.042,0.673-0.187,0.935-0.45
						l1.63-1.63c0.625-0.625,0.625-1.637,0-2.262l-1.63-1.63c-0.262-0.262-0.593-0.408-0.935-0.45
						c0.342-0.042,0.673-0.187,0.935-0.45L246.302,226.395z"/>
					<path style="fill:#048ED6;" d="M252.761,226.395c0.625-0.625,0.625-1.637,0-2.262l-1.63-1.63
						c-0.262-0.262-0.593-0.408-0.935-0.45c0.342-0.042,0.673-0.188,0.935-0.45l1.63-1.63c0.625-0.625,0.625-1.637,0-2.262
						l-1.63-1.63c-0.625-0.625-1.637-0.625-2.262,0l-1.63,1.63c-0.625,0.625-0.625,1.637,0,2.262l1.63,1.63
						c0.262,0.262,0.593,0.408,0.935,0.45c-0.342,0.042-0.673,0.187-0.935,0.45l-1.63,1.63c-0.625,0.625-0.625,1.637,0,2.262
						l1.63,1.63c0.262,0.262,0.593,0.408,0.935,0.45c-0.342,0.042-0.673,0.187-0.935,0.45l-1.63,1.63
						c-0.625,0.625-0.625,1.637,0,2.262l1.63,1.63c0.262,0.262,0.593,0.408,0.935,0.45c-0.342,0.042-0.673,0.188-0.935,0.45
						l-1.63,1.63c-0.625,0.625-0.625,1.637,0,2.262l1.63,1.63c0.625,0.625,1.637,0.625,2.262,0l1.63-1.63
						c0.625-0.625,0.625-1.637,0-2.262l-1.63-1.63c-0.262-0.262-0.593-0.408-0.935-0.45c0.342-0.042,0.673-0.187,0.935-0.45
						l1.63-1.63c0.625-0.625,0.625-1.637,0-2.262l-1.63-1.63c-0.262-0.262-0.593-0.408-0.935-0.45
						c0.342-0.042,0.673-0.187,0.935-0.45L252.761,226.395z"/>
					<path style="fill:#048ED6;" d="M259.221,226.395c0.625-0.625,0.625-1.637,0-2.262l-1.63-1.63
						c-0.262-0.262-0.593-0.408-0.935-0.45c0.342-0.042,0.673-0.188,0.935-0.45l1.63-1.63c0.625-0.625,0.625-1.637,0-2.262
						l-1.63-1.63c-0.625-0.625-1.637-0.625-2.262,0l-1.63,1.63c-0.625,0.625-0.625,1.637,0,2.262l1.63,1.63
						c0.262,0.262,0.593,0.408,0.935,0.45c-0.342,0.042-0.673,0.187-0.935,0.45l-1.63,1.63c-0.625,0.625-0.625,1.637,0,2.262
						l1.63,1.63c0.262,0.262,0.593,0.408,0.935,0.45c-0.342,0.042-0.673,0.187-0.935,0.45l-1.63,1.63
						c-0.625,0.625-0.625,1.637,0,2.262l1.63,1.63c0.262,0.262,0.593,0.408,0.935,0.45c-0.342,0.042-0.673,0.188-0.935,0.45
						l-1.63,1.63c-0.625,0.625-0.625,1.637,0,2.262l1.63,1.63c0.625,0.625,1.637,0.625,2.262,0l1.63-1.63
						c0.625-0.625,0.625-1.637,0-2.262l-1.63-1.63c-0.262-0.262-0.593-0.408-0.935-0.45c0.342-0.042,0.673-0.187,0.935-0.45
						l1.63-1.63c0.625-0.625,0.625-1.637,0-2.262l-1.63-1.63c-0.262-0.262-0.593-0.408-0.935-0.45
						c0.342-0.042,0.673-0.187,0.935-0.45L259.221,226.395z"/>
					<path style="fill:#048ED6;" d="M265.681,226.395c0.625-0.625,0.625-1.637,0-2.262l-1.63-1.63
						c-0.262-0.262-0.593-0.408-0.935-0.45c0.342-0.042,0.673-0.188,0.935-0.45l1.63-1.63c0.625-0.625,0.625-1.637,0-2.262
						l-1.63-1.63c-0.625-0.625-1.637-0.625-2.262,0l-1.63,1.63c-0.625,0.625-0.625,1.637,0,2.262l1.63,1.63
						c0.262,0.262,0.593,0.408,0.935,0.45c-0.342,0.042-0.673,0.187-0.935,0.45l-1.63,1.63c-0.625,0.625-0.625,1.637,0,2.262
						l1.63,1.63c0.262,0.262,0.593,0.408,0.935,0.45c-0.342,0.042-0.673,0.187-0.935,0.45l-1.63,1.63
						c-0.625,0.625-0.625,1.637,0,2.262l1.63,1.63c0.262,0.262,0.593,0.408,0.935,0.45c-0.342,0.042-0.673,0.188-0.935,0.45
						l-1.63,1.63c-0.625,0.625-0.625,1.637,0,2.262l1.63,1.63c0.625,0.625,1.637,0.625,2.262,0l1.63-1.63
						c0.625-0.625,0.625-1.637,0-2.262l-1.63-1.63c-0.262-0.262-0.593-0.408-0.935-0.45c0.342-0.042,0.673-0.187,0.935-0.45
						l1.63-1.63c0.625-0.625,0.625-1.637,0-2.262l-1.63-1.63c-0.262-0.262-0.593-0.408-0.935-0.45
						c0.342-0.042,0.673-0.187,0.935-0.45L265.681,226.395z"/>
				</g>
			</g>
			<g>
				<rect x="291.442" y="213.848" style="fill:#048ED6;" width="3.654" height="54.981"/>
				<rect x="334.304" y="213.848" style="fill:#048ED6;" width="3.654" height="54.981"/>
			</g>
			<g>
				<g>
					<path style="fill:#048ED6;" d="M304.542,252.121c0.625-0.625,0.625-1.637,0-2.262l-1.63-1.63
						c-0.262-0.262-0.593-0.408-0.935-0.45c0.342-0.042,0.673-0.188,0.935-0.45l1.63-1.63c0.625-0.625,0.625-1.637,0-2.262
						l-1.63-1.63c-0.625-0.625-1.637-0.625-2.262,0l-1.63,1.63c-0.625,0.625-0.625,1.637,0,2.262l1.63,1.63
						c0.262,0.262,0.593,0.408,0.935,0.45c-0.342,0.042-0.673,0.187-0.935,0.45l-1.63,1.63c-0.625,0.625-0.625,1.637,0,2.262
						l1.63,1.63c0.262,0.262,0.593,0.408,0.935,0.45c-0.342,0.042-0.673,0.187-0.935,0.45l-1.63,1.63
						c-0.625,0.625-0.625,1.637,0,2.262l1.63,1.63c0.262,0.262,0.593,0.408,0.935,0.45c-0.342,0.042-0.673,0.188-0.935,0.45
						l-1.63,1.63c-0.625,0.625-0.625,1.637,0,2.262l1.63,1.63c0.625,0.625,1.637,0.625,2.262,0l1.63-1.63
						c0.625-0.625,0.625-1.637,0-2.262l-1.63-1.63c-0.262-0.262-0.593-0.408-0.935-0.45c0.342-0.042,0.673-0.188,0.935-0.45
						l1.63-1.63c0.625-0.625,0.625-1.637,0-2.262l-1.63-1.63c-0.262-0.262-0.593-0.408-0.935-0.45
						c0.342-0.042,0.673-0.187,0.935-0.45L304.542,252.121z"/>
					<path style="fill:#048ED6;" d="M311.001,252.121c0.625-0.625,0.625-1.637,0-2.262l-1.63-1.63
						c-0.262-0.262-0.593-0.408-0.935-0.45c0.342-0.042,0.673-0.188,0.935-0.45l1.63-1.63c0.625-0.625,0.625-1.637,0-2.262
						l-1.63-1.63c-0.625-0.625-1.637-0.625-2.262,0l-1.63,1.63c-0.625,0.625-0.625,1.637,0,2.262l1.63,1.63
						c0.262,0.262,0.593,0.408,0.935,0.45c-0.342,0.042-0.673,0.187-0.935,0.45l-1.63,1.63c-0.625,0.625-0.625,1.637,0,2.262
						l1.63,1.63c0.262,0.262,0.593,0.408,0.935,0.45c-0.342,0.042-0.673,0.187-0.935,0.45l-1.63,1.63
						c-0.625,0.625-0.625,1.637,0,2.262l1.63,1.63c0.262,0.262,0.593,0.408,0.935,0.45c-0.342,0.042-0.673,0.188-0.935,0.45
						l-1.63,1.63c-0.625,0.625-0.625,1.637,0,2.262l1.63,1.63c0.625,0.625,1.637,0.625,2.262,0l1.63-1.63
						c0.625-0.625,0.625-1.637,0-2.262l-1.63-1.63c-0.262-0.262-0.593-0.408-0.935-0.45c0.342-0.042,0.673-0.188,0.935-0.45
						l1.63-1.63c0.625-0.625,0.625-1.637,0-2.262l-1.63-1.63c-0.262-0.262-0.593-0.408-0.935-0.45
						c0.342-0.042,0.673-0.187,0.935-0.45L311.001,252.121z"/>
					<path style="fill:#048ED6;" d="M317.461,252.121c0.625-0.625,0.625-1.637,0-2.262l-1.63-1.63
						c-0.262-0.262-0.593-0.408-0.935-0.45c0.342-0.042,0.673-0.188,0.935-0.45l1.63-1.63c0.625-0.625,0.625-1.637,0-2.262
						l-1.63-1.63c-0.625-0.625-1.637-0.625-2.262,0l-1.63,1.63c-0.625,0.625-0.625,1.637,0,2.262l1.63,1.63
						c0.262,0.262,0.593,0.408,0.935,0.45c-0.342,0.042-0.673,0.187-0.935,0.45l-1.63,1.63c-0.625,0.625-0.625,1.637,0,2.262
						l1.63,1.63c0.262,0.262,0.593,0.408,0.935,0.45c-0.342,0.042-0.673,0.187-0.935,0.45l-1.63,1.63
						c-0.625,0.625-0.625,1.637,0,2.262l1.63,1.63c0.262,0.262,0.593,0.408,0.935,0.45c-0.342,0.042-0.673,0.188-0.935,0.45
						l-1.63,1.63c-0.625,0.625-0.625,1.637,0,2.262l1.63,1.63c0.625,0.625,1.637,0.625,2.262,0l1.63-1.63
						c0.625-0.625,0.625-1.637,0-2.262l-1.63-1.63c-0.262-0.262-0.593-0.408-0.935-0.45c0.342-0.042,0.673-0.188,0.935-0.45
						l1.63-1.63c0.625-0.625,0.625-1.637,0-2.262l-1.63-1.63c-0.262-0.262-0.593-0.408-0.935-0.45
						c0.342-0.042,0.673-0.187,0.935-0.45L317.461,252.121z"/>
					<path style="fill:#048ED6;" d="M323.921,252.121c0.625-0.625,0.625-1.637,0-2.262l-1.63-1.63
						c-0.262-0.262-0.593-0.408-0.935-0.45c0.342-0.042,0.673-0.188,0.935-0.45l1.63-1.63c0.625-0.625,0.625-1.637,0-2.262
						l-1.63-1.63c-0.625-0.625-1.637-0.625-2.262,0l-1.63,1.63c-0.625,0.625-0.625,1.637,0,2.262l1.63,1.63
						c0.262,0.262,0.593,0.408,0.935,0.45c-0.342,0.042-0.673,0.187-0.935,0.45l-1.63,1.63c-0.625,0.625-0.625,1.637,0,2.262
						l1.63,1.63c0.262,0.262,0.593,0.408,0.935,0.45c-0.342,0.042-0.673,0.187-0.935,0.45l-1.63,1.63
						c-0.625,0.625-0.625,1.637,0,2.262l1.63,1.63c0.262,0.262,0.593,0.408,0.935,0.45c-0.342,0.042-0.673,0.188-0.935,0.45
						l-1.63,1.63c-0.625,0.625-0.625,1.637,0,2.262l1.63,1.63c0.625,0.625,1.637,0.625,2.262,0l1.63-1.63
						c0.625-0.625,0.625-1.637,0-2.262l-1.63-1.63c-0.262-0.262-0.593-0.408-0.935-0.45c0.342-0.042,0.673-0.188,0.935-0.45
						l1.63-1.63c0.625-0.625,0.625-1.637,0-2.262l-1.63-1.63c-0.262-0.262-0.593-0.408-0.935-0.45
						c0.342-0.042,0.673-0.187,0.935-0.45L323.921,252.121z"/>
					<path style="fill:#048ED6;" d="M330.38,252.121c0.625-0.625,0.625-1.637,0-2.262l-1.63-1.63
						c-0.262-0.262-0.593-0.408-0.935-0.45c0.342-0.042,0.673-0.188,0.935-0.45l1.63-1.63c0.625-0.625,0.625-1.637,0-2.262
						l-1.63-1.63c-0.625-0.625-1.637-0.625-2.262,0l-1.63,1.63c-0.625,0.625-0.625,1.637,0,2.262l1.63,1.63
						c0.262,0.262,0.593,0.408,0.935,0.45c-0.342,0.042-0.673,0.187-0.935,0.45l-1.63,1.63c-0.625,0.625-0.625,1.637,0,2.262
						l1.63,1.63c0.262,0.262,0.593,0.408,0.935,0.45c-0.342,0.042-0.673,0.187-0.935,0.45l-1.63,1.63
						c-0.625,0.625-0.625,1.637,0,2.262l1.63,1.63c0.262,0.262,0.593,0.408,0.935,0.45c-0.342,0.042-0.673,0.188-0.935,0.45
						l-1.63,1.63c-0.625,0.625-0.625,1.637,0,2.262l1.63,1.63c0.625,0.625,1.637,0.625,2.262,0l1.63-1.63
						c0.625-0.625,0.625-1.637,0-2.262l-1.63-1.63c-0.262-0.262-0.593-0.408-0.935-0.45c0.342-0.042,0.673-0.188,0.935-0.45
						l1.63-1.63c0.625-0.625,0.625-1.637,0-2.262l-1.63-1.63c-0.262-0.262-0.593-0.408-0.935-0.45
						c0.342-0.042,0.673-0.187,0.935-0.45L330.38,252.121z"/>
				</g>
				<g>
					<path style="fill:#048ED6;" d="M304.542,226.395c0.625-0.625,0.625-1.637,0-2.262l-1.63-1.63
						c-0.262-0.262-0.593-0.408-0.935-0.45c0.342-0.042,0.673-0.188,0.935-0.45l1.63-1.63c0.625-0.625,0.625-1.637,0-2.262
						l-1.63-1.63c-0.625-0.625-1.637-0.625-2.262,0l-1.63,1.63c-0.625,0.625-0.625,1.637,0,2.262l1.63,1.63
						c0.262,0.262,0.593,0.408,0.935,0.45c-0.342,0.042-0.673,0.187-0.935,0.45l-1.63,1.63c-0.625,0.625-0.625,1.637,0,2.262
						l1.63,1.63c0.262,0.262,0.593,0.408,0.935,0.45c-0.342,0.042-0.673,0.187-0.935,0.45l-1.63,1.63
						c-0.625,0.625-0.625,1.637,0,2.262l1.63,1.63c0.262,0.262,0.593,0.408,0.935,0.45c-0.342,0.042-0.673,0.188-0.935,0.45
						l-1.63,1.63c-0.625,0.625-0.625,1.637,0,2.262l1.63,1.63c0.625,0.625,1.637,0.625,2.262,0l1.63-1.63
						c0.625-0.625,0.625-1.637,0-2.262l-1.63-1.63c-0.262-0.262-0.593-0.408-0.935-0.45c0.342-0.042,0.673-0.187,0.935-0.45
						l1.63-1.63c0.625-0.625,0.625-1.637,0-2.262l-1.63-1.63c-0.262-0.262-0.593-0.408-0.935-0.45
						c0.342-0.042,0.673-0.187,0.935-0.45L304.542,226.395z"/>
					<path style="fill:#048ED6;" d="M311.001,226.395c0.625-0.625,0.625-1.637,0-2.262l-1.63-1.63
						c-0.262-0.262-0.593-0.408-0.935-0.45c0.342-0.042,0.673-0.188,0.935-0.45l1.63-1.63c0.625-0.625,0.625-1.637,0-2.262
						l-1.63-1.63c-0.625-0.625-1.637-0.625-2.262,0l-1.63,1.63c-0.625,0.625-0.625,1.637,0,2.262l1.63,1.63
						c0.262,0.262,0.593,0.408,0.935,0.45c-0.342,0.042-0.673,0.187-0.935,0.45l-1.63,1.63c-0.625,0.625-0.625,1.637,0,2.262
						l1.63,1.63c0.262,0.262,0.593,0.408,0.935,0.45c-0.342,0.042-0.673,0.187-0.935,0.45l-1.63,1.63
						c-0.625,0.625-0.625,1.637,0,2.262l1.63,1.63c0.262,0.262,0.593,0.408,0.935,0.45c-0.342,0.042-0.673,0.188-0.935,0.45
						l-1.63,1.63c-0.625,0.625-0.625,1.637,0,2.262l1.63,1.63c0.625,0.625,1.637,0.625,2.262,0l1.63-1.63
						c0.625-0.625,0.625-1.637,0-2.262l-1.63-1.63c-0.262-0.262-0.593-0.408-0.935-0.45c0.342-0.042,0.673-0.187,0.935-0.45
						l1.63-1.63c0.625-0.625,0.625-1.637,0-2.262l-1.63-1.63c-0.262-0.262-0.593-0.408-0.935-0.45
						c0.342-0.042,0.673-0.187,0.935-0.45L311.001,226.395z"/>
					<path style="fill:#048ED6;" d="M317.461,226.395c0.625-0.625,0.625-1.637,0-2.262l-1.63-1.63
						c-0.262-0.262-0.593-0.408-0.935-0.45c0.342-0.042,0.673-0.188,0.935-0.45l1.63-1.63c0.625-0.625,0.625-1.637,0-2.262
						l-1.63-1.63c-0.625-0.625-1.637-0.625-2.262,0l-1.63,1.63c-0.625,0.625-0.625,1.637,0,2.262l1.63,1.63
						c0.262,0.262,0.593,0.408,0.935,0.45c-0.342,0.042-0.673,0.187-0.935,0.45l-1.63,1.63c-0.625,0.625-0.625,1.637,0,2.262
						l1.63,1.63c0.262,0.262,0.593,0.408,0.935,0.45c-0.342,0.042-0.673,0.187-0.935,0.45l-1.63,1.63
						c-0.625,0.625-0.625,1.637,0,2.262l1.63,1.63c0.262,0.262,0.593,0.408,0.935,0.45c-0.342,0.042-0.673,0.188-0.935,0.45
						l-1.63,1.63c-0.625,0.625-0.625,1.637,0,2.262l1.63,1.63c0.625,0.625,1.637,0.625,2.262,0l1.63-1.63
						c0.625-0.625,0.625-1.637,0-2.262l-1.63-1.63c-0.262-0.262-0.593-0.408-0.935-0.45c0.342-0.042,0.673-0.187,0.935-0.45
						l1.63-1.63c0.625-0.625,0.625-1.637,0-2.262l-1.63-1.63c-0.262-0.262-0.593-0.408-0.935-0.45
						c0.342-0.042,0.673-0.187,0.935-0.45L317.461,226.395z"/>
					<path style="fill:#048ED6;" d="M323.921,226.395c0.625-0.625,0.625-1.637,0-2.262l-1.63-1.63
						c-0.262-0.262-0.593-0.408-0.935-0.45c0.342-0.042,0.673-0.188,0.935-0.45l1.63-1.63c0.625-0.625,0.625-1.637,0-2.262
						l-1.63-1.63c-0.625-0.625-1.637-0.625-2.262,0l-1.63,1.63c-0.625,0.625-0.625,1.637,0,2.262l1.63,1.63
						c0.262,0.262,0.593,0.408,0.935,0.45c-0.342,0.042-0.673,0.187-0.935,0.45l-1.63,1.63c-0.625,0.625-0.625,1.637,0,2.262
						l1.63,1.63c0.262,0.262,0.593,0.408,0.935,0.45c-0.342,0.042-0.673,0.187-0.935,0.45l-1.63,1.63
						c-0.625,0.625-0.625,1.637,0,2.262l1.63,1.63c0.262,0.262,0.593,0.408,0.935,0.45c-0.342,0.042-0.673,0.188-0.935,0.45
						l-1.63,1.63c-0.625,0.625-0.625,1.637,0,2.262l1.63,1.63c0.625,0.625,1.637,0.625,2.262,0l1.63-1.63
						c0.625-0.625,0.625-1.637,0-2.262l-1.63-1.63c-0.262-0.262-0.593-0.408-0.935-0.45c0.342-0.042,0.673-0.187,0.935-0.45
						l1.63-1.63c0.625-0.625,0.625-1.637,0-2.262l-1.63-1.63c-0.262-0.262-0.593-0.408-0.935-0.45
						c0.342-0.042,0.673-0.187,0.935-0.45L323.921,226.395z"/>
					<path style="fill:#048ED6;" d="M330.38,226.395c0.625-0.625,0.625-1.637,0-2.262l-1.63-1.63
						c-0.262-0.262-0.593-0.408-0.935-0.45c0.342-0.042,0.673-0.188,0.935-0.45l1.63-1.63c0.625-0.625,0.625-1.637,0-2.262
						l-1.63-1.63c-0.625-0.625-1.637-0.625-2.262,0l-1.63,1.63c-0.625,0.625-0.625,1.637,0,2.262l1.63,1.63
						c0.262,0.262,0.593,0.408,0.935,0.45c-0.342,0.042-0.673,0.187-0.935,0.45l-1.63,1.63c-0.625,0.625-0.625,1.637,0,2.262
						l1.63,1.63c0.262,0.262,0.593,0.408,0.935,0.45c-0.342,0.042-0.673,0.187-0.935,0.45l-1.63,1.63
						c-0.625,0.625-0.625,1.637,0,2.262l1.63,1.63c0.262,0.262,0.593,0.408,0.935,0.45c-0.342,0.042-0.673,0.188-0.935,0.45
						l-1.63,1.63c-0.625,0.625-0.625,1.637,0,2.262l1.63,1.63c0.625,0.625,1.637,0.625,2.262,0l1.63-1.63
						c0.625-0.625,0.625-1.637,0-2.262l-1.63-1.63c-0.262-0.262-0.593-0.408-0.935-0.45c0.342-0.042,0.673-0.187,0.935-0.45
						l1.63-1.63c0.625-0.625,0.625-1.637,0-2.262l-1.63-1.63c-0.262-0.262-0.593-0.408-0.935-0.45
						c0.342-0.042,0.673-0.187,0.935-0.45L330.38,226.395z"/>
				</g>
			</g>
		</g>
		<line style="fill:none;stroke:#048ED6;stroke-miterlimit:10;" x1="217.118" y1="219.169" x2="217.118" y2="263.508"/>
		<line style="fill:none;stroke:#048ED6;stroke-miterlimit:10;" x1="282.296" y1="219.169" x2="282.296" y2="263.508"/>
		<rect x="151.489" y="216.081" style="opacity:0.3;fill:#F7F7F7;" width="197.023" height="8.052"/>
		<rect x="151.489" y="252.121" style="opacity:0.3;fill:#003159;" width="197.023" height="16.707"/>
	</g>
	<g>
		<rect x="123.76" y="170.821" style="fill:#048ED6;" width="252.48" height="43.027"/>
		<g>
			<rect x="145.074" y="170.821" style="fill:#003159;" width="3.677" height="43.027"/>
			<g>
				<rect x="133.123" y="170.821" style="fill:#003159;" width="7.824" height="43.027"/>
				<rect x="359.053" y="170.821" style="fill:#003159;" width="7.824" height="43.027"/>
			</g>
			<rect x="185.093" y="170.821" style="fill:#003159;" width="3.677" height="43.027"/>
			
				<rect x="161.653" y="188.707" transform="matrix(0.7071 -0.7071 0.7071 0.7071 -87.5914 173.2044)" style="fill:#003159;" width="7.254" height="7.254"/>
			<rect x="226.632" y="170.821" style="fill:#003159;" width="3.677" height="43.027"/>
			
				<rect x="203.193" y="188.707" transform="matrix(0.7071 -0.7071 0.7071 0.7071 -75.4249 202.5771)" style="fill:#003159;" width="7.254" height="7.254"/>
			<rect x="268.171" y="170.821" style="fill:#003159;" width="3.677" height="43.027"/>
			
				<rect x="244.732" y="188.707" transform="matrix(0.7071 -0.7071 0.7071 0.7071 -63.2583 231.9497)" style="fill:#003159;" width="7.254" height="7.254"/>
			<rect x="309.71" y="170.821" style="fill:#003159;" width="3.677" height="43.027"/>
			
				<rect x="286.271" y="188.707" transform="matrix(0.7071 -0.7071 0.7071 0.7071 -51.0918 261.3224)" style="fill:#003159;" width="7.254" height="7.254"/>
			<rect x="351.249" y="170.821" style="fill:#003159;" width="3.677" height="43.027"/>
			
				<rect x="327.81" y="188.707" transform="matrix(0.7071 -0.7071 0.7071 0.7071 -38.9252 290.695)" style="fill:#003159;" width="7.254" height="7.254"/>
		</g>
		<rect x="123.76" y="200.77" style="opacity:0.5;fill:#048ED6;" width="252.48" height="13.078"/>
		<rect x="123.76" y="210.219" style="opacity:0.5;fill:#048ED6;" width="252.48" height="3.629"/>
		<rect x="123.76" y="174.887" style="opacity:0.3;fill:#F7F7F7;" width="252.48" height="4.917"/>
	</g>
	<g>
		<rect x="142.981" y="83.511" style="fill:#048ED6;" width="214.038" height="50.497"/>
		<g>
			<g>
				<rect x="154.846" y="83.511" style="fill:#003159;" width="6.501" height="50.497"/>
				<rect x="175.685" y="83.511" style="fill:#003159;" width="6.501" height="50.497"/>
				<rect x="184.123" y="83.511" style="fill:#003159;" width="1.389" height="50.497"/>
				<rect x="151.57" y="83.511" style="fill:#003159;" width="1.389" height="50.497"/>
				<g>
					
						<rect x="164.707" y="86.386" transform="matrix(0.7071 -0.7071 0.7071 0.7071 -14.127 144.8685)" style="fill:none;stroke:#003159;stroke-miterlimit:10;" width="6.202" height="6.202"/>
					
						<rect x="164.707" y="92.156" transform="matrix(0.7071 -0.7071 0.7071 0.7071 -18.2067 146.5583)" style="fill:none;stroke:#003159;stroke-miterlimit:10;" width="6.202" height="6.202"/>
					
						<rect x="164.707" y="97.523" transform="matrix(0.7071 -0.7071 0.7071 0.7071 -22.0018 148.1303)" style="fill:none;stroke:#003159;stroke-miterlimit:10;" width="6.202" height="6.202"/>
					
						<rect x="164.707" y="103.292" transform="matrix(0.7071 -0.7071 0.7071 0.7071 -26.0814 149.8202)" style="fill:none;stroke:#003159;stroke-miterlimit:10;" width="6.202" height="6.202"/>
					
						<rect x="164.707" y="108.024" transform="matrix(0.7071 -0.7071 0.7071 0.7071 -29.4272 151.206)" style="fill:none;stroke:#003159;stroke-miterlimit:10;" width="6.202" height="6.202"/>
					
						<rect x="164.707" y="113.793" transform="matrix(0.7071 -0.7071 0.7071 0.7071 -33.5069 152.8959)" style="fill:none;stroke:#003159;stroke-miterlimit:10;" width="6.202" height="6.202"/>
					
						<rect x="164.707" y="119.16" transform="matrix(0.7071 -0.7071 0.7071 0.7071 -37.302 154.4679)" style="fill:none;stroke:#003159;stroke-miterlimit:10;" width="6.202" height="6.202"/>
					
						<rect x="164.707" y="124.93" transform="matrix(0.7071 -0.7071 0.7071 0.7071 -41.3817 156.1577)" style="fill:none;stroke:#003159;stroke-miterlimit:10;" width="6.202" height="6.202"/>
				</g>
			</g>
			<g>
				<rect x="317.764" y="83.511" style="fill:#003159;" width="6.501" height="50.497"/>
				<rect x="338.603" y="83.511" style="fill:#003159;" width="6.501" height="50.497"/>
				<rect x="347.041" y="83.511" style="fill:#003159;" width="1.389" height="50.497"/>
				<rect x="314.488" y="83.511" style="fill:#003159;" width="1.389" height="50.497"/>
				<g>
					
						<rect x="327.626" y="86.386" transform="matrix(0.7071 -0.7071 0.7071 0.7071 33.5907 260.0691)" style="fill:none;stroke:#003159;stroke-miterlimit:10;" width="6.202" height="6.202"/>
					
						<rect x="327.626" y="92.156" transform="matrix(0.7071 -0.7071 0.7071 0.7071 29.511 261.7589)" style="fill:none;stroke:#003159;stroke-miterlimit:10;" width="6.202" height="6.202"/>
					
						<rect x="327.626" y="97.523" transform="matrix(0.7071 -0.7071 0.7071 0.7071 25.7159 263.3309)" style="fill:none;stroke:#003159;stroke-miterlimit:10;" width="6.202" height="6.202"/>
					
						<rect x="327.626" y="103.292" transform="matrix(0.7071 -0.7071 0.7071 0.7071 21.6362 265.0208)" style="fill:none;stroke:#003159;stroke-miterlimit:10;" width="6.202" height="6.202"/>
					
						<rect x="327.626" y="108.024" transform="matrix(0.7071 -0.7071 0.7071 0.7071 18.2905 266.4066)" style="fill:none;stroke:#003159;stroke-miterlimit:10;" width="6.202" height="6.202"/>
					
						<rect x="327.626" y="113.793" transform="matrix(0.7071 -0.7071 0.7071 0.7071 14.2108 268.0965)" style="fill:none;stroke:#003159;stroke-miterlimit:10;" width="6.202" height="6.202"/>
					
						<rect x="327.626" y="119.16" transform="matrix(0.7071 -0.7071 0.7071 0.7071 10.4157 269.6685)" style="fill:none;stroke:#003159;stroke-miterlimit:10;" width="6.202" height="6.202"/>
					
						<rect x="327.626" y="124.93" transform="matrix(0.7071 -0.7071 0.7071 0.7071 6.336 271.3583)" style="fill:none;stroke:#003159;stroke-miterlimit:10;" width="6.202" height="6.202"/>
				</g>
			</g>
			<g>
				<rect x="236.305" y="83.511" style="fill:#003159;" width="6.501" height="50.497"/>
				<rect x="257.144" y="83.511" style="fill:#003159;" width="6.501" height="50.497"/>
				<rect x="265.582" y="83.511" style="fill:#003159;" width="1.389" height="50.497"/>
				<rect x="233.029" y="83.511" style="fill:#003159;" width="1.389" height="50.497"/>
				<g>
					
						<rect x="246.166" y="86.386" transform="matrix(0.7071 -0.7071 0.7071 0.7071 9.7318 202.4688)" style="fill:none;stroke:#003159;stroke-miterlimit:10;" width="6.202" height="6.202"/>
					
						<rect x="246.166" y="92.156" transform="matrix(0.7071 -0.7071 0.7071 0.7071 5.6521 204.1586)" style="fill:none;stroke:#003159;stroke-miterlimit:10;" width="6.202" height="6.202"/>
					
						<rect x="246.166" y="97.523" transform="matrix(0.7071 -0.7071 0.7071 0.7071 1.8571 205.7306)" style="fill:none;stroke:#003159;stroke-miterlimit:10;" width="6.202" height="6.202"/>
					
						<rect x="246.166" y="103.292" transform="matrix(0.7071 -0.7071 0.7071 0.7071 -2.2226 207.4205)" style="fill:none;stroke:#003159;stroke-miterlimit:10;" width="6.202" height="6.202"/>
					
						<rect x="246.166" y="108.024" transform="matrix(0.7071 -0.7071 0.7071 0.7071 -5.5684 208.8063)" style="fill:none;stroke:#003159;stroke-miterlimit:10;" width="6.202" height="6.202"/>
					
						<rect x="246.166" y="113.793" transform="matrix(0.7071 -0.7071 0.7071 0.7071 -9.6481 210.4962)" style="fill:none;stroke:#003159;stroke-miterlimit:10;" width="6.202" height="6.202"/>
					
						<rect x="246.166" y="119.16" transform="matrix(0.7071 -0.7071 0.7071 0.7071 -13.4431 212.0682)" style="fill:none;stroke:#003159;stroke-miterlimit:10;" width="6.202" height="6.202"/>
					
						<rect x="246.166" y="124.93" transform="matrix(0.7071 -0.7071 0.7071 0.7071 -17.5228 213.758)" style="fill:none;stroke:#003159;stroke-miterlimit:10;" width="6.202" height="6.202"/>
				</g>
			</g>
		</g>
		<rect x="142.981" y="116.894" style="opacity:0.5;fill:#048ED6;" width="214.038" height="17.113"/>
		<rect x="142.981" y="87.957" style="opacity:0.3;fill:#F7F7F7;" width="214.038" height="5.915"/>
	</g>
</g>
</svg>
