<?xml version="1.0" encoding="utf-8"?>
<!-- Generator: Adobe Illustrator 27.5.0, SVG Export Plug-In . SVG Version: 6.00 Build 0)  -->
<svg version="1.1" id="Layer_1" xmlns="http://www.w3.org/2000/svg" xmlns:xlink="http://www.w3.org/1999/xlink" x="0px" y="0px"
	 viewBox="0 0 3970 2000" style="enable-background:new 0 0 3970 2000;" xml:space="preserve">
<rect x="0" style="fill:#FFFFFF;" width="3970" height="2000"/>
<g>
	<path style="fill:#CAF0FF;" d="M3285.399,106.434c-437.254-201.269-690.967,128.421-1165.202,162.729
		c-474.235,34.307-560.076-196.791-1022.206-142.504C684.176,175.27,546.731,485.55,355.296,821.761S135.43,1044.163,48.415,1375.8
		C-38.602,1707.437,331.759,2000,331.759,2000h3151.484c187.083-13.723,364.864-196.474,374.285-475.536
		c18.057-534.931-180.558-523.756-189.26-754.758C3659.567,538.705,3722.653,307.703,3285.399,106.434L3285.399,106.434z"/>
	<g>
		<path style="fill:#4188E4;" d="M1254.344,1843.446H652.379c-10.491,0-18.996-8.504-18.996-18.996V525.665
			c0-10.491,8.505-18.996,18.996-18.996h601.964c10.491,0,18.996,8.504,18.996,18.996V1824.45
			C1273.339,1834.942,1264.835,1843.446,1254.344,1843.446z"/>
		<rect x="671.767" y="615.683" style="fill:#142666;" width="563.333" height="301.654"/>
		<rect x="671.767" y="944.813" style="fill:#142666;" width="563.333" height="301.653"/>
		<rect x="671.767" y="1273.942" style="fill:#142666;" width="563.333" height="301.652"/>
	</g>
	<g>
		<path style="fill:#4188E4;" d="M2517.391,1843.446H1411.683c-10.491,0-18.996-8.504-18.996-18.996V525.665
			c0-10.491,8.505-18.996,18.996-18.996h1105.708c10.491,0,18.995,8.504,18.995,18.996V1824.45
			C2536.386,1834.942,2527.882,1843.446,2517.391,1843.446z"/>
		<rect x="1461.285" y="615.683" style="fill:#142666;" width="1006.761" height="301.654"/>
		<rect x="1461.285" y="944.813" style="fill:#142666;" width="1006.761" height="301.653"/>
		<rect x="1461.285" y="1273.942" style="fill:#142666;" width="1006.761" height="301.652"/>
	</g>
	<g>
		
			<rect x="1985.423" y="1475.5" transform="matrix(6.123234e-17 -1 1 6.123234e-17 440.8287 3561.0181)" style="fill:#AFDBFE;" width="31" height="169.19"/>
		
			<rect x="2001.59" y="1455.148" transform="matrix(6.123234e-17 -1 1 6.123234e-17 484.5635 3546.1846)" style="fill:#FFFFFF;" width="27.568" height="151.324"/>
		
			<rect x="1978.256" y="1427.581" transform="matrix(6.123234e-17 -1 1 6.123234e-17 488.7959 3495.2822)" style="fill:#70C0FD;" width="27.566" height="151.324"/>
		<rect x="2199.78" y="1386.679" style="fill:#AFDBFE;" width="34.431" height="188.916"/>
		<rect x="2242.365" y="1418.667" style="fill:#70C0FD;" width="27.183" height="156.928"/>
		<rect x="2120.197" y="1386.679" style="fill:#AFDBFE;" width="34.431" height="188.916"/>
		<rect x="2162.782" y="1418.667" style="fill:#70C0FD;" width="27.182" height="156.928"/>
		<rect x="1557.658" y="1424.704" style="fill:#AFDBFE;" width="60.103" height="150.891"/>
		<rect x="1530.477" y="1439.491" style="fill:#FFFFFF;" width="16.913" height="136.104"/>
		<rect x="1498.16" y="1417.763" style="fill:#70C0FD;" width="26.88" height="157.832"/>
		<rect x="1860.287" y="1417.763" style="fill:#70C0FD;" width="26.88" height="157.832"/>
		<rect x="1666.688" y="1439.491" style="fill:#FFFFFF;" width="54.666" height="136.104"/>
		<rect x="1727.092" y="1386.679" style="fill:#AFDBFE;" width="34.43" height="188.916"/>
		<rect x="1769.677" y="1418.667" style="fill:#70C0FD;" width="27.182" height="156.928"/>
		<rect x="1624.707" y="1407.501" style="fill:#70C0FD;" width="31.712" height="168.094"/>
		<rect x="1802.304" y="1434.058" style="fill:#FFFFFF;" width="49.833" height="141.537"/>
	</g>
	<g>
		<rect x="734.662" y="1439.382" style="fill:#FFFFFF;" width="16.913" height="136.105"/>
		<rect x="702.345" y="1417.653" style="fill:#A2CFF6;" width="26.88" height="157.834"/>
		<rect x="1157.489" y="1424.595" style="fill:#AFDBFE;" width="60.102" height="150.893"/>
		<rect x="1130.307" y="1439.382" style="fill:#FFFFFF;" width="16.913" height="136.105"/>
		<rect x="1097.991" y="1417.653" style="fill:#70C0FD;" width="26.88" height="157.834"/>
		<rect x="959.066" y="1386.571" style="fill:#AFDBFE;" width="34.43" height="188.916"/>
		
			<rect x="829.883" y="1475.392" transform="matrix(6.123234e-17 -1 1 6.123234e-17 -714.6047 2405.3699)" style="fill:#B0C1EC;" width="31" height="169.19"/>
		
			<rect x="846.049" y="1455.041" transform="matrix(6.123234e-17 -1 1 6.123234e-17 -670.8696 2390.5366)" style="fill:#FFFFFF;" width="27.568" height="151.324"/>
		
			<rect x="822.714" y="1427.473" transform="matrix(6.123234e-17 -1 1 6.123234e-17 -666.6362 2339.6333)" style="fill:#A2CFF6;" width="27.568" height="151.324"/>
		<rect x="1001.651" y="1418.56" style="fill:#70C0FD;" width="27.182" height="156.928"/>
		<rect x="1040.007" y="1433.95" style="fill:#FFFFFF;" width="49.833" height="141.537"/>
	</g>
	<rect x="1510.611" y="781.232" style="fill:#FFFFFF;" width="16.913" height="136.105"/>
	<rect x="1478.295" y="759.503" style="fill:#70C0FD;" width="26.88" height="157.833"/>
	<rect x="1933.439" y="766.444" style="fill:#AFDBFE;" width="60.102" height="150.893"/>
	<rect x="1906.257" y="781.232" style="fill:#FFFFFF;" width="16.913" height="136.105"/>
	<rect x="1873.941" y="759.503" style="fill:#70C0FD;" width="26.88" height="157.833"/>
	<rect x="1735.016" y="728.419" style="fill:#AFDBFE;" width="34.43" height="188.917"/>
	
		<rect x="1605.832" y="817.241" transform="matrix(6.123234e-17 -1 1 6.123234e-17 719.4962 2523.1689)" style="fill:#AFDBFE;" width="31.001" height="169.191"/>
	
		<rect x="1621.999" y="796.89" transform="matrix(6.123234e-17 -1 1 6.123234e-17 763.2312 2508.3352)" style="fill:#FFFFFF;" width="27.568" height="151.324"/>
	
		<rect x="1598.665" y="769.322" transform="matrix(6.123234e-17 -1 1 6.123234e-17 767.4639 2457.4326)" style="fill:#70C0FD;" width="27.567" height="151.324"/>
	<rect x="1777.601" y="760.409" style="fill:#70C0FD;" width="27.182" height="156.928"/>
	<rect x="1815.957" y="775.8" style="fill:#FFFFFF;" width="49.834" height="141.537"/>
	<rect x="2730.545" y="764.12" style="fill:#FFFFFF;" width="16.913" height="136.105"/>
	<rect x="2698.229" y="742.392" style="fill:#70C0FD;" width="26.88" height="157.833"/>
	<rect x="3093.874" y="742.392" style="fill:#70C0FD;" width="26.881" height="157.833"/>
	<rect x="2954.949" y="711.308" style="fill:#AFDBFE;" width="34.431" height="188.917"/>
	
		<rect x="2825.766" y="800.129" transform="matrix(6.123234e-17 -1 1 6.123234e-17 1956.5417 3725.9905)" style="fill:#AFDBFE;" width="31" height="169.191"/>
	
		<rect x="2841.933" y="779.778" transform="matrix(6.123234e-17 -1 1 6.123234e-17 2000.2766 3711.157)" style="fill:#FFFFFF;" width="27.568" height="151.324"/>
	
		<rect x="2818.598" y="752.211" transform="matrix(6.123234e-17 -1 1 6.123234e-17 2004.5093 3660.2544)" style="fill:#A2CFF6;" width="27.567" height="151.324"/>
	<rect x="2997.534" y="743.297" style="fill:#70C0FD;" width="27.182" height="156.928"/>
	<rect x="3035.891" y="758.688" style="fill:#FFFFFF;" width="49.834" height="141.537"/>
	<rect x="2317.362" y="728.419" style="fill:#AFDBFE;" width="34.43" height="188.917"/>
	<rect x="2359.947" y="760.409" style="fill:#70C0FD;" width="27.182" height="156.928"/>
	<rect x="2398.304" y="775.8" style="fill:#FFFFFF;" width="49.834" height="141.537"/>
	<rect x="761.844" y="766.444" style="fill:#AFDBFE;" width="60.102" height="150.893"/>
	<rect x="734.662" y="781.232" style="fill:#FFFFFF;" width="16.913" height="136.105"/>
	<rect x="702.345" y="759.503" style="fill:#70C0FD;" width="26.88" height="157.833"/>
	<rect x="1129.701" y="766.444" style="fill:#AFDBFE;" width="60.102" height="150.893"/>
	<rect x="1102.519" y="781.232" style="fill:#FFFFFF;" width="16.913" height="136.105"/>
	<rect x="1070.203" y="759.503" style="fill:#70C0FD;" width="26.88" height="157.833"/>
	<rect x="870.873" y="781.232" style="fill:#FFFFFF;" width="54.666" height="136.105"/>
	<rect x="931.277" y="728.419" style="fill:#AFDBFE;" width="34.431" height="188.917"/>
	<rect x="973.862" y="760.409" style="fill:#70C0FD;" width="27.182" height="156.928"/>
	<rect x="828.893" y="749.243" style="fill:#70C0FD;" width="31.712" height="168.094"/>
	<rect x="2068.345" y="766.444" style="fill:#AFDBFE;" width="60.102" height="150.893"/>
	<rect x="2041.162" y="781.232" style="fill:#FFFFFF;" width="16.913" height="136.105"/>
	<rect x="2008.847" y="759.503" style="fill:#70C0FD;" width="26.88" height="157.833"/>
	<rect x="2177.374" y="781.232" style="fill:#FFFFFF;" width="54.666" height="136.105"/>
	<rect x="2237.778" y="728.419" style="fill:#AFDBFE;" width="34.431" height="188.917"/>
	<rect x="2280.363" y="760.409" style="fill:#70C0FD;" width="27.183" height="156.928"/>
	<rect x="2135.394" y="749.243" style="fill:#70C0FD;" width="31.712" height="168.094"/>
	<rect x="2806.977" y="440.992" style="fill:#AFDBFE;" width="34.431" height="188.917"/>
	<rect x="2849.562" y="472.981" style="fill:#70C0FD;" width="27.182" height="156.928"/>
	<rect x="2887.918" y="488.373" style="fill:#FFFFFF;" width="49.833" height="141.537"/>
	<rect x="2666.988" y="493.805" style="fill:#FFFFFF;" width="54.666" height="136.105"/>
	<rect x="2727.393" y="440.992" style="fill:#AFDBFE;" width="34.431" height="188.917"/>
	<rect x="2769.978" y="472.981" style="fill:#70C0FD;" width="27.182" height="156.928"/>
	<rect x="2625.008" y="461.815" style="fill:#70C0FD;" width="31.712" height="168.094"/>
	<rect x="2187.011" y="1095.573" style="fill:#AFDBFE;" width="60.103" height="150.893"/>
	<rect x="2159.829" y="1110.362" style="fill:#FFFFFF;" width="16.913" height="136.104"/>
	<rect x="2127.513" y="1088.634" style="fill:#70C0FD;" width="26.88" height="157.832"/>
	<rect x="2321.917" y="1095.573" style="fill:#AFDBFE;" width="60.102" height="150.893"/>
	<rect x="2294.734" y="1110.362" style="fill:#FFFFFF;" width="16.913" height="136.104"/>
	<rect x="2262.418" y="1088.634" style="fill:#70C0FD;" width="26.88" height="157.832"/>
	<rect x="2388.966" y="1078.372" style="fill:#70C0FD;" width="31.712" height="168.094"/>
	<rect x="1012.219" y="775.8" style="fill:#FFFFFF;" width="49.833" height="141.537"/>
	<rect x="1557.658" y="1095.573" style="fill:#AFDBFE;" width="60.103" height="150.893"/>
	<rect x="1530.477" y="1110.362" style="fill:#FFFFFF;" width="16.913" height="136.104"/>
	<rect x="1498.16" y="1088.634" style="fill:#70C0FD;" width="26.88" height="157.832"/>
	<rect x="1925.516" y="1095.573" style="fill:#AFDBFE;" width="60.103" height="150.893"/>
	<rect x="1898.333" y="1110.362" style="fill:#FFFFFF;" width="16.914" height="136.104"/>
	<rect x="1866.018" y="1088.634" style="fill:#70C0FD;" width="26.88" height="157.832"/>
	<rect x="1666.688" y="1110.362" style="fill:#FFFFFF;" width="54.666" height="136.104"/>
	<rect x="1727.092" y="1057.55" style="fill:#AFDBFE;" width="34.43" height="188.916"/>
	<rect x="1769.677" y="1089.538" style="fill:#70C0FD;" width="27.182" height="156.928"/>
	<rect x="1624.707" y="1078.372" style="fill:#70C0FD;" width="31.712" height="168.094"/>
	<rect x="1808.034" y="1104.929" style="fill:#FFFFFF;" width="49.833" height="141.537"/>
	<rect x="761.844" y="1081.774" style="fill:#FFFFFF;" width="60.102" height="164.691"/>
	<rect x="734.662" y="1110.362" style="fill:#70C0FD;" width="16.913" height="136.104"/>
	<rect x="702.345" y="1088.634" style="fill:#AFDBFE;" width="26.88" height="157.832"/>
	<rect x="1102.519" y="1110.362" style="fill:#70C0FD;" width="16.913" height="136.104"/>
	<rect x="1070.203" y="1071.595" style="fill:#FFFFFF;" width="26.88" height="174.871"/>
	<rect x="870.873" y="1071.595" style="fill:#70C0FD;" width="54.666" height="174.871"/>
	<rect x="931.277" y="1095.573" style="fill:#FFFFFF;" width="34.431" height="150.893"/>
	<rect x="973.862" y="1047.845" style="fill:#AFDBFE;" width="27.182" height="198.621"/>
	<rect x="828.893" y="1099.587" style="fill:#AFDBFE;" width="31.712" height="146.879"/>
	<rect x="1012.219" y="1078.372" style="fill:#70C0FD;" width="49.833" height="168.094"/>
	
		<rect x="1138.614" y="1075.453" transform="matrix(0.9418 -0.3361 0.3361 0.9418 -322.0327 458.5338)" style="fill:#FFFFFF;" width="49.829" height="168.11"/>
	
		<rect x="2010.131" y="1075.453" transform="matrix(0.9418 -0.3361 0.3361 0.9418 -271.3297 751.461)" style="fill:#FFFFFF;" width="49.829" height="168.11"/>
	
		<rect x="2063.549" y="1079.075" transform="matrix(0.9418 -0.3361 0.3361 0.9418 -270.1492 765.3519)" style="fill:#70C0FD;" width="24.914" height="168.109"/>
	
		<rect x="2959.044" y="461.808" transform="matrix(0.9418 -0.3361 0.3361 0.9418 -10.5855 1030.5729)" style="fill:#70C0FD;" width="24.914" height="168.109"/>
	<g>
		<polygon style="fill:#FFC0BB;" points="2798.673,1908.291 2792.379,1958.777 2758.498,1961.404 2759.022,1914.584 		"/>
		<polygon style="fill:#F9537F;" points="2201.438,1428.746 2529.316,1428.746 2493.496,1676.48 2222.893,1632.426 		"/>
		<g>
			<path style="fill:#3D3A55;" d="M2707.017,1998.359l92.559,0.625c2.023,0.014,3.649-1.578,3.632-3.555l-0.023-2.662
				c-0.018-1.977-1.672-3.588-3.694-3.602l-92.56-0.625c-2.023-0.014-3.649,1.578-3.632,3.553l0.023,2.664
				C2703.339,1996.732,2704.993,1998.346,2707.017,1998.359z"/>
			<path style="fill:#09083C;" d="M2798.317,1959.332l3.549,27.328c0.438,3.371-1.464,6.414-3.997,6.398l-88.02-0.594
				c-2.286-0.016-4.559-1.424-5.782-4.053c-1.256-2.695-1.537-6.744,2.355-12.158c7.784-10.826,33.653-13.305,46.235-22.508
				l41.001,0.275C2795.949,1954.037,2797.921,1956.285,2798.317,1959.332z"/>
			<g>
				<path style="fill:#FFFFFF;" d="M2759.022,1969.643L2759.022,1969.643c0.633-0.377,0.856-1.422,0.48-2.221
					c-1.76-3.752-7.242-12.898-18.218-11.102c-0.634,0.105-1.058,0.926-0.941,1.775l0.004,0.027
					c0.112,0.824,0.688,1.365,1.302,1.268c9.836-1.574,14.5,6.484,15.926,9.629
					C2757.879,1969.691,2758.496,1969.957,2759.022,1969.643z"/>
			</g>
			<g>
				<path style="fill:#FFFFFF;" d="M2749.912,1973.096L2749.912,1973.096c0.633-0.377,0.856-1.422,0.481-2.221
					c-1.762-3.752-7.244-12.898-18.219-11.102c-0.634,0.105-1.058,0.926-0.941,1.775l0.004,0.027
					c0.111,0.824,0.688,1.365,1.302,1.268c9.836-1.576,14.499,6.484,15.926,9.629
					C2748.769,1973.145,2749.386,1973.41,2749.912,1973.096z"/>
			</g>
			<g>
				<path style="fill:#FFFFFF;" d="M2741.438,1976.318L2741.438,1976.318c0.633-0.377,0.856-1.422,0.481-2.223
					c-1.761-3.752-7.243-12.896-18.219-11.1c-0.634,0.104-1.057,0.924-0.941,1.775l0.004,0.027c0.112,0.822,0.688,1.365,1.302,1.268
					c9.836-1.576,14.5,6.482,15.926,9.629C2740.296,1976.365,2740.913,1976.633,2741.438,1976.318z"/>
			</g>
			<path style="opacity:0.3;fill:#E87B50;" d="M2774.378,1992.898c6.738-22.012,18.672-24.367,25.206-23.813l2.282,17.574
				c0.438,3.371-1.464,6.414-3.996,6.396L2774.378,1992.898z"/>
		</g>
		<polygon style="fill:#FFC0BB;" points="2949.562,1905.145 2952.433,1958.086 2917.952,1958.322 2914.661,1909.367 		"/>
		<g>
			<path style="fill:#3D3A55;" d="M2868.425,1999.264l92.559,0.623c2.023,0.014,3.649-1.578,3.633-3.553l-0.023-2.664
				c-0.018-1.975-1.672-3.588-3.695-3.602l-92.559-0.625c-2.023-0.014-3.65,1.578-3.633,3.555l0.023,2.662
				C2864.747,1997.637,2866.401,1999.25,2868.425,1999.264z"/>
			<path style="fill:#09083C;" d="M2959.726,1960.236l3.55,27.328c0.438,3.369-1.465,6.414-3.997,6.396l-88.021-0.594
				c-2.286-0.016-4.559-1.424-5.782-4.053c-1.255-2.695-1.537-6.744,2.355-12.156c7.784-10.828,33.653-13.307,46.236-22.51
				l41.001,0.277C2957.358,1954.941,2959.33,1957.189,2959.726,1960.236z"/>
			<g>
				<path style="fill:#FFFFFF;" d="M2920.431,1970.547L2920.431,1970.547c0.634-0.379,0.857-1.424,0.481-2.223
					c-1.761-3.752-7.243-12.896-18.218-11.1c-0.635,0.104-1.058,0.924-0.942,1.775l0.005,0.027c0.111,0.822,0.688,1.365,1.302,1.266
					c9.836-1.574,14.499,6.484,15.925,9.629C2919.288,1970.594,2919.905,1970.861,2920.431,1970.547z"/>
			</g>
			<g>
				<path style="fill:#FFFFFF;" d="M2911.321,1974L2911.321,1974c0.632-0.379,0.855-1.424,0.48-2.223
					c-1.761-3.752-7.243-12.896-18.219-11.1c-0.634,0.104-1.057,0.924-0.941,1.773l0.004,0.029c0.112,0.822,0.688,1.365,1.303,1.266
					c9.836-1.574,14.499,6.484,15.925,9.631C2910.177,1974.047,2910.794,1974.314,2911.321,1974z"/>
			</g>
			<g>
				<path style="fill:#FFFFFF;" d="M2902.847,1977.223L2902.847,1977.223c0.634-0.379,0.856-1.424,0.481-2.223
					c-1.761-3.752-7.243-12.898-18.218-11.102c-0.635,0.105-1.058,0.926-0.942,1.775l0.005,0.027
					c0.111,0.824,0.688,1.365,1.302,1.268c9.836-1.574,14.5,6.484,15.925,9.629
					C2901.704,1977.27,2902.321,1977.535,2902.847,1977.223z"/>
			</g>
			<path style="opacity:0.3;fill:#E87B50;" d="M2935.786,1993.803c6.739-22.012,18.673-24.369,25.206-23.814l2.283,17.576
				c0.438,3.369-1.465,6.412-3.997,6.396L2935.786,1993.803z"/>
		</g>
		<path style="fill:#3D3A55;" d="M3384.699,1828.809H2263.139c-2.089,0-3.783-1.693-3.783-3.783v-11.518
			c0-2.09,1.693-3.785,3.783-3.785h1121.561c2.091,0,3.784,1.695,3.784,3.785v11.518
			C3388.483,1827.115,3386.79,1828.809,3384.699,1828.809z"/>
		<path style="fill:#FF5B7E;" d="M3456.603,1262.365c-4.224,0.295-730.248,0.096-968.761,0.023
			c-41.401-0.014-74.956,33.52-74.956,74.889v305.719h897.539l139.223-139.113L3456.603,1262.365z"/>
		<path style="fill:#E03268;" d="M3434.419,1549.643h44.367c8.04,0,14.558-6.518,14.558-14.557v-258.164
			c0-8.039-6.518-14.557-14.558-14.557h-44.367c-8.039,0-14.557,6.518-14.557,14.557v258.164
			C3419.862,1543.125,3426.38,1549.643,3434.419,1549.643z"/>
		
			<rect x="2222.893" y="1597.287" transform="matrix(-1 -1.224647e-16 1.224647e-16 -1 5368 3377.9531)" style="fill:#E03268;" width="922.215" height="183.379"/>
		<path style="fill:#2B1C35;" d="M2940.912,1528.494c0,0-170.058,0.613-196.301,34.703s-46.188,264.326,0,365.023
			c0,0,59.835,2.098,73.481-6.295c0,0-4.198-169.924-2.1-215.027c2.1-45.104,33.592-51.396,37.791-55.592
			S2940.912,1528.494,2940.912,1528.494z"/>
		<polygon style="fill:#FFC0BB;" points="3201.413,1175.48 3207.863,1227.787 3155.97,1226.012 3157.462,1166.152 		"/>
		<path style="opacity:0.6;fill:#FC8D84;" d="M3156.775,1193.709l0.687-27.557l44.588,14.281l1.254,10.328
			C3193.41,1194.461,3174.606,1198.953,3156.775,1193.709z"/>
		<polygon style="fill:#FEE4CB;" points="3094.897,1092.65 3101.615,1128.326 3108.1,1130.254 3106.479,1084.986 		"/>
		<path style="fill:#F99893;" d="M3111.025,1121.83c3.716,7.471,1.872,15.936-4.119,18.906c-5.992,2.973-13.861-0.674-17.578-8.145
			s-1.872-15.936,4.119-18.906C3099.438,1110.713,3107.309,1114.359,3111.025,1121.83z"/>
		<path style="fill:#FFC0BB;" d="M3116.571,1166.736c-2.169-3.18-4.055-6.584-5.628-10.178c-4.43-9.635-7.073-20.02-8.645-29.131
			c-0.337-1.955-0.787-3.885-1.273-5.809c-1.964-7.768-2.551-16.113-1.332-24.832c3.92-28.051,26.269-50.629,54.34-54.816
			c37.817-5.643,71.466,21.969,74.203,59.002c3.87-2.539,8.363-3.393,12.483-1.91c7.907,2.842,11.424,13.143,7.855,23.008
			c-3.568,9.863-12.871,15.557-20.777,12.715c-1.098-0.395-2.102-0.945-3.023-1.607c-0.89,31.75-24.967,57.996-56.039,59.793
			c-15.195,0.879-29.393-4.252-40.468-13.395c-0.735-0.525-1.511-1.148-2.332-1.879
			C3122.332,1174.494,3119.243,1170.768,3116.571,1166.736z"/>
		<path style="fill:#333333;" d="M3170.735,1110.863c0.178,3.105,2.845,5.479,5.958,5.299s5.492-2.844,5.314-5.951
			c-0.178-3.105-2.846-5.477-5.958-5.297C3172.937,1105.094,3170.558,1107.758,3170.735,1110.863z"/>
		<path style="fill:#333333;" d="M3122.514,1116.828c0.178,3.107,2.845,5.479,5.958,5.299s5.492-2.844,5.314-5.949
			c-0.178-3.107-2.846-5.479-5.958-5.299C3124.715,1111.059,3122.335,1113.723,3122.514,1116.828z"/>
		<path style="fill:#07085B;" d="M3163.294,1100.104c2.694-1.293,5.277-2.357,7.888-3.129c2.604-0.773,5.214-1.193,7.81-1.207
			c2.583,0.016,5.209,0.252,7.787,1.076l0.992,0.248c0.331,0.088,0.637,0.242,0.967,0.346l1.977,0.697
			c1.33,0.49,2.589,1.158,4.054,1.627c-0.894-1.176-1.888-2.32-3.004-3.338c-1.21-0.873-2.355-1.951-3.78-2.559
			c-2.693-1.525-5.9-2.188-9.047-2.182c-3.164,0.023-6.295,0.869-8.998,2.342
			C3167.259,1095.525,3164.866,1097.525,3163.294,1100.104z"/>
		<path style="fill:#07085B;" d="M3140.679,1102.568c-2.089-2.18-4.855-3.617-7.795-4.504c-2.955-0.855-6.193-1.01-9.289-0.35
			c-3.074,0.672-6.063,2.008-8.367,4.08c-1.261,0.9-2.147,2.199-3.143,3.313c-0.87,1.234-1.596,2.564-2.217,3.906
			c1.33-0.773,2.416-1.697,3.609-2.461l1.781-1.107c0.301-0.172,0.565-0.389,0.869-0.547l0.916-0.455
			c2.342-1.361,4.855-2.156,7.374-2.729c2.538-0.545,5.178-0.699,7.886-0.504C3135.02,1101.402,3137.771,1101.887,3140.679,1102.568
			z"/>
		<path style="fill:#07085B;" d="M3085.883,1050.229c0,0-19.328,1.58,0.19-15.758c19.519-17.337,73.124-39.184,108.983-22.489
			c0,0,6.267-15.176,16.545-12.134c10.279,3.042-5.9,14.068-5.9,14.068s12.885-1.053,17.132,5.069
			c3.139,4.526-4.754,5.122-9.084,5.124c7.407,0.885,32.085,13.863,20.715,71.227c-5.078-0.854-45.646-34.107-45.646-34.107
			s-53.063,35.389-46.841,16.551c0,0-63.299,36.008-55.378,0.641C3086.6,1078.42,3060.464,1081.635,3085.883,1050.229z"/>
		<path style="fill:#F99893;" d="M3149.397,1101.082c1.455,3.799,2.271,7.787,2.618,11.865c0.17,2.047,0.181,4.111-0.038,6.23
			c-0.262,2.109-0.688,4.289-1.963,6.42l-0.567,0.775l-0.511,0.664c-0.21,0.311-0.537,0.578-0.676,0.91
			c-0.401,0.619-0.639,1.285-0.718,1.967c-0.245,1.377,0.443,2.846,1.479,4.143c2.23,2.613,6.048,3.975,10.011,4.658
			c-3.9,0.887-8.574,0.537-12.139-2.521c-1.74-1.477-3.123-3.863-3.006-6.512c0.028-0.654,0.111-1.303,0.33-1.912
			c0.153-0.641,0.454-1.193,0.75-1.752c0.275-0.584,0.713-1.004,1.074-1.504c0.232-0.281,0.268-0.371,0.385-0.533l0.314-0.434
			c0.805-1.289,1.27-3.08,1.621-4.885c0.39-1.82,0.461-3.754,0.646-5.684C3149.233,1109.094,3149.272,1105.133,3149.397,1101.082z"
			/>
		<path style="fill:#07085B;" d="M3188.818,1061.229c0,0,22.43,35.412,22.929,56.355c0,0,9.477-18.76,25.094-19.244
			c0,0,5.08-35.266-4.464-57.311l-35.278,7.555L3188.818,1061.229z"/>
		<path style="fill:#FEB546;" d="M3143.511,1206.043c0,0,15.746,24.648,68.233,0c0,0,95.001-26.223,102.349,86.535l3.674,104.891
			c0,0-49.078,0.168-74.271,1.104l-0.783,21.973l-143.289,116.43c0,0-85.029-7.342-102.35-15.732c0,0,30.442-60.313,35.166-73.949
			s8.127-145.275,13.121-158.91C3050.355,1274.746,3064.998,1207.91,3143.511,1206.043z"/>
		<path style="fill:#452B52;" d="M3072.951,1284.973c-1.907,3.133-3.445,6.455-4.749,9.863c-0.718,1.676-1.274,3.418-1.919,5.121
			l-1.638,5.215c-2.064,6.99-3.591,14.133-4.683,21.34c-1.298,7.18-1.879,14.465-2.506,21.742
			c-0.256,3.643-0.402,7.297-0.613,10.949c-0.114,3.656-0.168,7.316-0.337,10.984c-0.232-3.658-0.352-7.324-0.531-10.994
			c0.035-3.668,0.029-7.342,0.12-11.014c0.348-7.338,0.948-14.68,2.12-21.949c1.248-7.248,2.768-14.48,5.135-21.465
			C3065.737,1297.822,3068.573,1290.898,3072.951,1284.973z"/>
		<g>
			<path style="fill:#DAEEF7;" d="M2991.739,1363.072c-1.287,0.047-53.248-31.42-53.248-31.42l-9.711,2.061l3.446,2.543
				l-5.808-1.457l-9.447,1.457c0,0,31.229,36.828,31.754,37.877c0.524,1.049,14.172,6.293,15.221,6.818
				C2964.996,1381.475,2991.739,1363.072,2991.739,1363.072z"/>
			<path style="fill:#DAEEF7;" d="M3074.891,1337.945l-4.724-2.951l-2.165,1.477v-2.758l-2.952-2.061l-75.582,29.893
				c0,0,24.21,15.342,24.997,14.75c0.788-0.59,43.893-8.455,44.68-9.637C3059.932,1365.479,3074.891,1337.945,3074.891,1337.945z"/>
			<path style="fill:#E03268;" d="M3073.695,1336.547l-85.663,27.725l-69.082-30.055c-4.191-1.824-8.79,1.566-8.282,6.107
				l13.158,117.654c0.219,1.957,1.394,3.678,3.136,4.596l66.329,34.939l60.078-22.225l1.547-2.271l7.788-1.182l25.191-9.318
				c2.251-0.834,3.668-3.066,3.463-5.455l-9.906-115.371C3081.125,1337.883,3077.335,1335.369,3073.695,1336.547z"/>
			<path style="opacity:0.5;fill:#E03268;" d="M3073.695,1336.547c3.64-1.178,7.43,1.336,7.757,5.145l9.893,115.219
				c0.213,2.479-1.258,4.795-3.594,5.66l-25.047,9.266l-7.788,1.182l-1.547,2.271l-54.777,19.621l-10.56-130.639L3073.695,1336.547z
				"/>
			<polygon style="fill:#C1215B;" points="2975.245,1378.334 2921.826,1354.99 2923.532,1379.246 2975.888,1403.502 			"/>
		</g>
		<path style="fill:#FFC0BB;" d="M3102.31,1454.848c0.23-0.777,0.703-1.895-0.356-2.688c-0.29-0.193-0.581-0.389-0.873-0.582
			c-4.229-2.832-7.116-6.258-9.276-10.865c-0.48-1.025-1.022-2.67-1.604-3.35c-0.414-0.486-0.517,0.197-0.517,0.197l0.944,10.998
			l-12.771,4.652c0,0-22.366,3.521-33.388-1.328c0,0-5.773-4.064-3.937,3.277c0.177,0.705,0.579,1.352,1.158,1.947
			c-0.811,0.502-1.694,1.789-0.108,6.738c0.061,0.189,0.141,0.379,0.233,0.566c-0.392,2.938-0.088,6.627,3.161,8.605
			c0.755,2.432,2.54,5.053,6.648,6.234c5.7,1.641,18.745,3.459,26.997,4.512c7.229,1.109,12.445,1.609,15.327,1.027l3.037,0.49
			c-0.023-0.803,7.84-12.01,8.668-16.813C3106.505,1463.662,3100.946,1459.521,3102.31,1454.848z"/>
		<path style="fill:#FFC0BB;" d="M3101.954,1452.16c0,0,77.511-3.949,99.161-11.424c21.651-7.473,41.597-20.191,41.597-20.191
			v-22.021l73.541-1.1c0,0,9.256,67.307-11.607,75.174s-164.245,20.453-210.695,12.193L3101.954,1452.16z"/>
		<g>
			<path style="fill:#F99893;" d="M3041.691,1464.021c1.326,1.545,3.04,2.723,4.826,3.709c1.793,0.99,3.729,1.699,5.7,2.248
				c1.985,0.492,4.011,0.832,6.05,0.918c1.017,0.072,2.037,0.016,3.052,0.025c1.014-0.076,2.025-0.164,3.029-0.287
				c-2.027-0.098-4.034-0.166-6.023-0.418c-1.987-0.242-3.953-0.596-5.882-1.094c-1.924-0.514-3.805-1.178-5.621-1.998
				C3045.017,1466.285,3043.263,1465.295,3041.691,1464.021z"/>
			<path style="fill:#F99893;" d="M3044.952,1473.035c1.444,1.438,3.246,2.477,5.104,3.318c1.865,0.848,3.852,1.402,5.859,1.793
				c2.019,0.336,4.064,0.514,6.104,0.438c1.019-0.008,2.032-0.143,3.044-0.213c1.006-0.156,2.007-0.324,2.998-0.525
				c-2.029,0.061-4.035,0.152-6.037,0.059c-2.001-0.086-3.988-0.283-5.95-0.629c-1.959-0.359-3.886-0.873-5.762-1.549
				C3048.446,1475.031,3046.62,1474.184,3044.952,1473.035z"/>
			<path style="fill:#F99893;" d="M3041.691,1457.107c1.326,1.547,3.04,2.723,4.826,3.709c1.793,0.992,3.729,1.701,5.7,2.248
				c1.985,0.494,4.011,0.832,6.05,0.918c1.017,0.072,2.037,0.018,3.052,0.027c1.014-0.076,2.025-0.166,3.029-0.287
				c-2.027-0.1-4.034-0.166-6.023-0.418c-1.987-0.242-3.953-0.596-5.882-1.096c-1.924-0.512-3.805-1.176-5.621-1.998
				C3045.017,1459.371,3043.263,1458.381,3041.691,1457.107z"/>
		</g>
		<path style="fill:#452B52;" d="M3297.95,1397.539c-6.604,0.006-13.207-0.016-19.809-0.111l-19.806-0.281
			c-6.288-0.121-12.579-0.281-18.86-0.492c0.646-6.453,1.155-12.918,1.473-19.389c0.304-6.791,0.594-13.582,0.563-20.377
			c0.012-6.795-0.076-13.586-0.282-20.375c-0.273-6.785-0.572-13.57-1.142-20.336c0.165,6.787,0.291,13.568,0.268,20.352
			c0.033,6.781-0.036,13.563-0.214,20.338c-0.187,6.775-0.414,13.549-0.806,20.311c-0.38,6.764-0.983,13.508-1.7,20.236
			l-0.101,0.953l0.949,0.025c6.614,0.176,13.219,0.285,19.829,0.357c6.608,0.061,13.218,0.123,19.828,0.025
			c13.217-0.123,26.436-0.477,39.627-1.307C3311.158,1397.496,3304.556,1397.594,3297.95,1397.539z"/>
		<path style="fill:#FFC0BB;" d="M2934.307,1394.674c-0.891-1.85-16.483,0.838-16.649-0.275
			c-0.165-1.113,15.356-8.885,14.953-10.734c-0.45-2.064-16.864,3.479-17.964,2.719c-1.101-0.76,13.516-12.799,10.76-14.33
			c-2.09-1.16-12.006,5.67-16.684,9.045c-1.503,1.084-2.24,2.934-1.897,4.752l6.324,37.459c0.555,3.285,3.499,5.625,6.827,5.426
			l0.563-0.033l-0.895-20.301c4.709-0.164,13.493-0.701,12.736-2.428c-0.703-1.605-8.272-2.799-12.992-3.395l-0.016-0.373
			C2919.454,1401.471,2935.11,1396.342,2934.307,1394.674z"/>
		<g>
			<g>
				<path style="fill:#FF85A5;" d="M2717.409,1722.104h-103.228h-9.447h-190.604h-103.033c-36.794,0-66.621-29.803-66.621-66.568
					v-183.783c0-23.752-19.269-43.006-43.039-43.006l0,0c-23.771,0-43.039,19.254-43.039,43.006v188.521
					c0,82.539,66.964,149.449,149.567,149.449h106.165h88.076h102.527h9.447h104.978
					C2716.932,1780.873,2716.489,1750.891,2717.409,1722.104z"/>
				<path style="fill:#FF85A5;" d="M2815.569,1722.104c-0.348,21.906-0.098,54.801,0.359,87.619h206.862v-87.619H2815.569z"/>
			</g>
		</g>
		<path style="fill:#F9537F;" d="M3151.198,1429.275l306.019,2.195c29.567,0,53.536,23.949,53.536,53.494v188.602
			c0,75.197-61.007,136.156-136.264,136.156h-317.223c0,0,62.984-109.73,62.984-112.877S3151.198,1429.275,3151.198,1429.275z"/>
		<g>
			<path style="fill:#FF85A5;" d="M3155.063,1428.746L3155.063,1428.746c-23.77,0-43.039,19.254-43.039,43.006v183.783
				c0,1.266-0.043,2.521-0.113,3.77l0.004,0.033l-0.006-0.002c-1.973,34.996-30.989,62.768-66.506,62.768h-90.947
				c2.704,26.162,6.081,57.357,9.416,87.619h84.663c82.604,0,149.567-66.91,149.567-149.449v-188.521
				C3198.103,1448,3178.834,1428.746,3155.063,1428.746z"/>
		</g>
		<path style="fill:#3A2645;" d="M2960.133,1775.537c-1.532-14.178-3.521-32.594-5.677-53.434l0,0
			c-3.852-40.932-7.851-67.84-3.556-64.969c14.766-5.35,106.351-0.859,161.009,2.201c0.002,0.002,0.001,0.002,0.006,0.002
			c0.337-9.053-0.013-148.627,0.109-155.91c-359.037,29.883-279.925,91.352-246.255,303.572l0,0
			c0.188,0.908,0.377,1.818,0.565,2.723l0,0c14.606,70.178,28.389,127.938,28.389,127.938s52.487,2.098,82.929-5.244
			C2977.689,1932.74,2968.19,1849.85,2960.133,1775.537z"/>
		<g>
			<path style="fill:#F7AEAA;" d="M2354.989,1981.293l43.242-26.658l37.348,22.545l-13.047,9.279l-45.289,6.383
				c0,0-17.678-2.262-18.455-2.785C2358.01,1989.533,2354.989,1981.293,2354.989,1981.293z"/>
			<path style="fill:#FF6088;" d="M2354.989,1981.293l-10.959,7.043c-5.078,3.201-2.829,11.045,3.176,11.074l82.968,0.391
				c2.927,0.014,5.31-2.346,5.323-5.27l0.082-17.352C2380.241,1994.498,2361.182,1989.061,2354.989,1981.293z"/>
			<path style="fill:#FFC0BB;" d="M2402.169,1981.293l43.243-26.658l37.347,22.545l-13.047,9.279l-45.289,6.383
				c0,0-17.678-2.262-18.455-2.785C2405.189,1989.533,2402.169,1981.293,2402.169,1981.293z"/>
			<path style="fill:#FF6088;" d="M2402.169,1981.293l-10.958,7.043c-5.079,3.201-2.83,11.045,3.175,11.074l82.968,0.391
				c2.927,0.014,5.31-2.346,5.324-5.27l0.081-17.352C2427.421,1994.498,2408.361,1989.061,2402.169,1981.293z"/>
			<path style="fill:#07085B;" d="M2634.042,1219.605c22.296-15.619,10.459-21.885,23.557-35.465
				c10.202-10.578,13.377-18.486,13.178-26.23c0.257-7.742-2.858-15.674-12.98-26.326c-12.995-13.678-1.112-19.855-23.291-35.641
				c-22.178-15.785-45.745,22.486-45.745,22.486l-24.317,30.055l4.543,15.572l-9.524,30.363
				C2559.461,1194.42,2611.745,1235.225,2634.042,1219.605z"/>
			<path style="fill:#030321;" d="M2425.657,1517.045c0,0-92.377,34.615-97.625,61.887c-5.249,27.271,32.541,373.414,48.813,390.195
				c0,0,33.666,9.441,60.135-5.244s13.871-129.016,13.871-132.162c0-3.148,29.652-170.975,29.522-177.268
				s48.145-81.814,59.698-92.305c11.555-10.488,30.188-61.623,30.188-61.623L2425.657,1517.045z"/>
			<path style="fill:#09083C;" d="M2697.802,1491.105c0,0,7.19,90.529-18.108,122.783s-168.482,32.961-168.482,32.961
				l-28.452,330.33c0,0-38.05-2.346-62.455-7.066c0,0-20.103-364.172,5.879-388.559c25.98-24.389,144.076-81.029,144.076-81.029
				L2697.802,1491.105z"/>
			<path style="fill:#07085B;" d="M2548.753,1057.961c0,0-38.463-14.672-61.18,17.66c-17.398,24.762-13.768,58.631,7.414,80.25
				l8.568,8.746c0,0,35-37.633,35.383-39.449C2539.322,1123.354,2548.753,1057.961,2548.753,1057.961z"/>
			<path style="fill:#FFC0BB;" d="M2522.681,1243.785c0,0,54.148-9.953,79.05-9.113c24.9,0.84-15.091,65.535-15.091,65.535
				l-40.668,0.902c0,0-24.931-27.822-23.291-31.061c1.639-3.238-0.078-24.463-0.078-24.463L2522.681,1243.785z"/>
			<g>
				<path style="fill:#FFC0BB;" d="M2583.634,1189.73l9.714,44.563c0,0-15.032,24.264-51.759,9.299c0,0,5.252-8.473,1.371-27.451
					C2538.994,1196.748,2583.634,1189.73,2583.634,1189.73z"/>
				<path style="opacity:0.6;fill:#FC8D84;" d="M2583.634,1189.73l4.568,20.82c-5.504,14.297-19.438,22.971-44.072,23.551
					c0.465-4.373,0.396-10.295-1.17-17.961C2538.994,1196.748,2583.634,1189.73,2583.634,1189.73z"/>
				<g>
					<path style="fill:#F99893;" d="M2500.271,1149.166c2.344,7.316-0.505,14.766-6.362,16.641
						c-5.858,1.873-12.507-2.539-14.851-9.855c-2.345-7.316,0.504-14.766,6.361-16.641
						C2491.276,1137.438,2497.926,1141.85,2500.271,1149.166z"/>
					<path style="fill:#FFC0BB;" d="M2499.095,1190.816c-1.53-3.195-2.773-6.557-3.707-10.045
						c-2.692-9.387-3.658-19.207-3.825-27.721c-0.036-1.826-0.178-3.646-0.354-5.465c-0.71-7.344-0.088-15.023,2.227-22.791
						c7.446-24.992,30.887-42.445,56.983-42.361c35.158,0.111,61.924,29.916,59.285,64.008c3.869-1.773,8.072-1.926,11.612-0.006
						c6.794,3.686,8.564,13.551,3.956,22.035c-4.61,8.486-13.854,12.377-20.647,8.693c-0.943-0.512-1.779-1.154-2.525-1.883
						c-5.204,28.779-30.725,49.334-59.218,46.656c-13.935-1.309-26.13-7.949-34.933-17.809c-0.595-0.58-1.214-1.256-1.858-2.035
						C2503.258,1198.678,2500.966,1194.857,2499.095,1190.816z"/>
					<path style="fill:#F99893;" d="M2537.162,1140.25c0.786,3.322,1.021,6.729,0.856,10.158c-0.087,1.723-0.308,3.439-0.725,5.178
						c-0.451,1.725-1.047,3.488-2.344,5.119l-0.557,0.58l-0.497,0.496c-0.21,0.236-0.511,0.422-0.663,0.682
						c-0.401,0.471-0.672,0.998-0.814,1.555c-0.355,1.119,0.053,2.416,0.768,3.611c1.562,2.422,4.58,3.979,7.795,4.988
						c-3.337,0.303-7.179-0.51-9.8-3.449c-1.28-1.422-2.163-3.561-1.771-5.75c0.097-0.541,0.237-1.07,0.486-1.553
						c0.198-0.516,0.51-0.941,0.817-1.373c0.293-0.455,0.703-0.756,1.059-1.133c0.225-0.207,0.264-0.277,0.379-0.398l0.31-0.326
						c0.812-0.982,1.396-2.42,1.889-3.881c0.526-1.471,0.8-3.07,1.169-4.654C2536.136,1146.895,2536.608,1143.605,2537.162,1140.25z
						"/>
					<path style="fill:#333333;" d="M2556.065,1147.467c-0.269,2.854,1.828,5.383,4.683,5.65c2.854,0.27,5.386-1.826,5.654-4.678
						c0.269-2.854-1.828-5.383-4.683-5.65C2558.865,1142.52,2556.333,1144.615,2556.065,1147.467z"/>
					<path style="fill:#333333;" d="M2511.405,1146.207c-0.269,2.852,1.828,5.381,4.683,5.65c2.854,0.268,5.387-1.828,5.654-4.68
						c0.269-2.852-1.828-5.383-4.683-5.65S2511.674,1143.354,2511.405,1146.207z"/>
					<path style="opacity:0.3;fill:#F99893;" d="M2552.882,1186.793c0,0-7.111-3.412-14.534,0.414c0,0-7.022-5.48-13.409-1.609
						c0,0,1.582,11.463,14.001,11.996C2551.358,1198.125,2552.882,1186.793,2552.882,1186.793z"/>
					<path style="fill:#F99893;" d="M2559.764,1183.461c-1.515,0.984-3.076,1.875-4.702,2.625c-1.607,0.781-3.261,1.461-4.953,2.002
						c-3.38,1.08-6.893,1.721-10.409,1.65c-3.517-0.051-6.99-0.85-10.248-2.227c-3.241-1.422-6.234-3.43-9.015-5.732
						c1.207,1.344,2.523,2.598,3.949,3.734c1.426,1.139,3.002,2.082,4.622,2.947c1.646,0.818,3.382,1.471,5.176,1.92
						c1.799,0.426,3.642,0.666,5.491,0.719c3.701,0.041,7.385-0.678,10.786-2.031
						C2553.858,1187.719,2557.064,1185.881,2559.764,1183.461z"/>
					<path style="fill:#07085B;" d="M2551.255,1134.957c2.73-0.439,5.28-0.707,7.771-0.74c2.485-0.031,4.879,0.24,7.162,0.852
						c2.266,0.637,4.519,1.459,6.609,2.791c1.133,0.535,2.067,1.385,3.196,2.055c1.075,0.738,2.044,1.623,3.259,2.373
						c-0.478-1.283-1.067-2.557-1.797-3.748c-0.832-1.105-1.605-2.328-2.713-3.236c-2.017-2.039-4.718-3.426-7.532-4.188
						c-2.834-0.754-5.841-0.75-8.605-0.072C2555.853,1131.744,2553.246,1132.994,2551.255,1134.957z"/>
					<path style="fill:#07085B;" d="M2528.25,1134.303c-1.816-2.125-4.307-3.594-6.989-4.527c-2.697-0.91-5.691-1.172-8.58-0.664
						c-2.869,0.52-5.68,1.672-7.863,3.529c-1.18,0.811-2.056,1.963-2.979,2.992c-0.828,1.127-1.525,2.344-2.111,3.582
						c1.274-0.645,2.316-1.441,3.45-2.088c1.182-0.57,2.186-1.336,3.361-1.773c2.196-1.146,4.512-1.773,6.823-2.215
						c2.327-0.414,4.735-0.48,7.209-0.236C2523.049,1133.148,2525.566,1133.633,2528.25,1134.303z"/>
				</g>
			</g>
			<path style="fill:#FFC0BB;" d="M2461.142,1349.199c0,0-4.932,122.689-18.738,141.906l75.939-17.246V1340.33L2461.142,1349.199z"
				/>
			<path style="fill:#02CCC0;" d="M2493.496,1365.953c0,0,10.57,30.881,12.492,47.283c4.772,40.732-0.412,69.467-8.849,92.65
				c-11.836,32.521,84.814,20.695,86.787,19.709c1.973-0.984,84.815-33.012,84.815-33.012l15.78-45.824v-80.807l-4.438-36.955
				L2493.496,1365.953z"/>
			<path style="fill:#FFC0BB;" d="M2724.958,1328.998l-60.817,20.693c0,0,10.52,97.232,7.232,111.029
				c-2.811,11.793-46.917,35.238-74.865,48.365c-4.499,2.113-9.456,3.018-14.41,2.609c-15.92-1.307-44.14-3.77-48.569-4.074
				c-6.954-0.479-26.087,0.014-26.699,2.449c-0.569,2.264,14.941-0.229,25,1.846c1.416,0.291,0.66,2.18,0.332,2.191
				c-5.339,0.199-19.076,0.787-23.598,2.291c-5.544,1.844,14.06,0.381,24.647,2.328c0.744,0.137,1.337,2.238,0.798,2.77
				c-1.264,1.248-5.871,2.33-18.521,3.623c-21.103,2.156-0.458,4.77-0.458,4.77s1.899-0.543,20.033-3.021
				c0.665-0.09,1.412,1.789,0.405,2.672c-1.747,1.533-5.805,4.557-11.258,6.166c-6.793,2.002-1.853,3.77-1.853,3.77
				s12.856-3.828,20.067-4.369c5.398-0.404,30.835,1.666,41.27,2.264l0.799-1.787c14.144-0.412,126.977-3.34,137.834-73.219
				C2733.505,1390.424,2724.958,1328.998,2724.958,1328.998z"/>
			<g>
				<path style="fill:#07085B;" d="M2282.894,1398.631h193.809l54.951,134.025h93.359c2.611,0,4.728,2.115,4.728,4.723l0,0
					c0,2.609-2.116,4.723-4.728,4.723h-277.714L2282.894,1398.631z"/>
				<path style="fill:#DAEEF7;" d="M2378.995,1475.111c1.145,5.711,6.127,9.531,11.129,8.531s8.131-6.441,6.986-12.154
					c-1.144-5.711-6.126-9.531-11.129-8.531C2380.979,1463.957,2377.852,1469.398,2378.995,1475.111z"/>
			</g>
			<path style="fill:#02CCC0;" d="M2522.681,1243.785c0,0,36.813,42.934,79.05-9.113c0,0,46.146-3.756,80.17,20.387
				c34.025,24.145,54.399,78.373,54.399,78.373s-61.64,31.043-76.926,32.521h-171.111c0,0-26.135-1.971-51.283-14.783
				C2436.979,1351.17,2441.316,1264.973,2522.681,1243.785z"/>
			<path style="fill:#FFFFFF;" d="M2631.974,1301.109c1.762,5.268,3.322,10.596,4.9,15.922c1.588,5.322,3.018,10.689,4.436,16.061
				c1.355,5.389,2.724,10.777,3.902,16.215c1.168,5.438,2.316,10.891,3.19,16.408l-1.304-1.307c1.681,0.174,3.747,0.113,5.651-0.039
				c1.942-0.127,3.891-0.414,5.833-0.693c3.876-0.689,7.764-1.428,11.584-2.502l2.874-0.76l2.847-0.871
				c1.895-0.598,3.805-1.141,5.678-1.816l5.642-1.947l5.575-2.154c3.732-1.4,7.373-3.043,11.068-4.555l10.912-4.967l10.812-5.227
				c3.557-1.838,7.123-3.668,10.726-5.445c-3.391,2.143-6.816,4.234-10.252,6.316c-3.463,2.027-6.962,4.006-10.479,5.951
				c-3.549,1.885-7.134,3.711-10.733,5.51l-5.479,2.539c-1.824,0.852-3.648,1.709-5.525,2.445c-7.4,3.193-15.033,5.9-22.847,8.045
				l-2.937,0.791l-2.971,0.674c-1.97,0.494-3.992,0.797-5.998,1.148c-2.025,0.277-4.049,0.559-6.109,0.68
				c-2.088,0.135-4.049,0.225-6.356-0.035l-1.123-0.125l-0.181-1.182c-1.661-10.893-3.877-21.75-6.186-32.582l-3.524-16.252
				L2631.974,1301.109z"/>
			<path style="fill:#FFFFFF;" d="M2501.877,1288.637c-2.412,6.307-4.604,12.637-6.562,19.02
				c-1.921,6.391-3.621,12.832-4.756,19.359c-0.63,3.252-1.036,6.537-1.314,9.822c-0.333,3.285-0.367,6.584-0.246,9.871
				c0.244,6.584,10.006,37.553,12.878,43.682c-4.053-5.439-14.682-36.668-15.398-43.479c-0.825-6.842-0.261-13.748,0.894-20.465
				c0.639-3.352,1.388-6.68,2.318-9.951c0.971-3.26,2.002-6.498,3.242-9.656C2495.372,1300.516,2498.259,1294.355,2501.877,1288.637
				z"/>
			<path style="fill:#07085B;" d="M2609.704,1146.441c0,0-61.302-21.703-86.888-67.523c0,0,1.704-40.205,58.039-23.686
				C2619.891,1066.678,2633.521,1119.51,2609.704,1146.441z"/>
		</g>
		<path style="fill:#F99893;" d="M3182.017,1149.266c-4.591,0.754-9.131,1.244-13.652,1.881c-4.531,0.619-8.981,1.334-13.496,2.439
			c4.017-2.42,8.68-3.525,13.255-4.191C3172.73,1148.801,3177.397,1148.627,3182.017,1149.266z"/>
		<g>
			<polygon style="fill:#3D3A55;" points="2280.849,2000 2262.569,2000 2308.159,1820.996 2325.327,1825.361 			"/>
		</g>
		<g>
			<g>
				<g>
					<polygon style="fill:#3D3A55;" points="3363.005,1999.887 3381.284,1999.887 3335.694,1820.883 3318.526,1825.248 					"/>
				</g>
			</g>
		</g>
		<g>
			<polygon style="fill:#3D3A55;" points="3168.918,1999.887 3150.638,1999.887 3196.229,1820.883 3213.396,1825.248 			"/>
		</g>
		<path style="fill:#C1215B;" d="M2991.927,1362.082l6.665,132.828c0.099,1.969-1.565,3.57-3.529,3.398l-6.197-0.543
			c-1.642-0.143-2.917-1.492-2.965-3.139l-3.929-133.541C2981.972,1361.086,2987.007,1358.607,2991.927,1362.082z"/>
	</g>
	<g>
		<rect x="638.386" y="1588.154" style="fill:#E03268;" width="388.042" height="159.607"/>
		<path style="fill:#FF5B7E;" d="M340.281,1251.742c4.837,0.34,388.783,0,388.783,0v364.268H480.175l-133.237-133.133
			L340.281,1251.742z"/>
		<path style="fill:#F9537F;" d="M1018.645,1456.402c0,0-266.278,15.896-266.278,0s0,69.264,0,69.264s130.227,23.34,144.881,23.34
			c14.654,0,82.884,36.137,91.925,39.148s28.469-77.67,29.471-78.361C1019.646,1509.104,1018.645,1456.402,1018.645,1456.402z"/>
		<path style="fill:#E03268;" d="M360.578,1526.67h-40.592c-8.21,0-14.865-6.654-14.865-14.865v-245.197
			c0-8.209,6.655-14.865,14.865-14.865h40.593c8.209,0,14.865,6.656,14.865,14.865v245.197
			C375.442,1520.016,368.787,1526.67,360.578,1526.67z"/>
		<path style="fill:#F9537F;" d="M628.857,1456.402H314.415c-28.296,0-51.235,22.922-51.235,51.195v180.494
			c0,71.965,58.385,130.303,130.405,130.303l323.763,1.982c0,0-22.474-5.982-26.17-12.445
			c-15.241-26.645-54.284-95.139-54.284-97.563C636.894,1707.357,628.857,1456.402,628.857,1456.402z"/>
		<path style="fill:#FF85A5;" d="M977.456,1497.559v175.885c0,35.184-28.544,63.705-63.756,63.705H733.802
			c-35.211,0-63.756-28.521-63.756-63.705v-175.885c0-22.729-18.441-41.156-41.189-41.156l0,0
			c-22.748,0-41.189,18.428-41.189,41.156v180.418c0,78.99,64.085,143.025,143.137,143.025h185.891
			c79.053,0,143.137-64.035,143.137-143.025v-180.418c0-22.729-18.441-41.156-41.189-41.156l0,0
			C995.896,1456.402,977.456,1474.83,977.456,1497.559z"/>
		<polygon style="fill:#FFC0BB;" points="982.595,1904.668 989.145,1957.215 1024.408,1959.947 1023.861,1911.219 		"/>
		<g>
			<path style="fill:#3D3A55;" d="M1077.988,1998.41l-96.333,0.65c-2.106,0.014-3.798-1.643-3.78-3.699l0.024-2.771
				c0.018-2.057,1.74-3.734,3.845-3.75l96.333-0.648c2.106-0.014,3.798,1.641,3.78,3.697l-0.024,2.771
				C1081.816,1996.717,1080.094,1998.396,1077.988,1998.41z"/>
			<path style="fill:#E03268;" d="M982.965,1957.791l-3.694,28.443c-0.455,3.506,1.525,6.676,4.16,6.658l91.609-0.619
				c2.379-0.016,4.744-1.48,6.018-4.217c1.306-2.805,1.599-7.02-2.452-12.652c-8.102-11.27-35.026-13.85-48.121-23.428
				l-42.673,0.287C985.429,1952.281,983.376,1954.621,982.965,1957.791z"/>
			<g>
				<path style="fill:#FFFFFF;" d="M1023.861,1968.523L1023.861,1968.523c-0.659-0.395-0.891-1.48-0.5-2.313
					c1.833-3.906,7.539-13.424,18.961-11.553c0.66,0.107,1.1,0.961,0.979,1.846l-0.004,0.029c-0.116,0.857-0.716,1.422-1.355,1.318
					c-10.237-1.639-15.09,6.748-16.574,10.021C1025.052,1968.572,1024.409,1968.85,1023.861,1968.523z"/>
			</g>
			<g>
				<path style="fill:#FFFFFF;" d="M1033.344,1972.117L1033.344,1972.117c-0.659-0.393-0.891-1.48-0.501-2.313
					c1.833-3.906,7.539-13.424,18.961-11.553c0.66,0.107,1.101,0.961,0.98,1.846l-0.004,0.029c-0.117,0.857-0.717,1.422-1.355,1.318
					c-10.237-1.639-15.091,6.748-16.575,10.023C1034.534,1972.166,1033.891,1972.443,1033.344,1972.117z"/>
			</g>
			<g>
				<path style="fill:#FFFFFF;" d="M1042.162,1975.471L1042.162,1975.471c-0.659-0.395-0.891-1.48-0.5-2.313
					c1.832-3.906,7.538-13.424,18.961-11.553c0.66,0.107,1.1,0.961,0.979,1.846l-0.004,0.029c-0.116,0.857-0.716,1.422-1.356,1.318
					c-10.237-1.639-15.091,6.748-16.574,10.021C1043.353,1975.52,1042.71,1975.797,1042.162,1975.471z"/>
			</g>
			<path style="opacity:0.3;fill:#E87B50;" d="M1007.88,1992.727c-7.014-22.908-19.434-25.361-26.234-24.785l-2.376,18.293
				c-0.455,3.506,1.524,6.676,4.16,6.658L1007.88,1992.727z"/>
		</g>
		<polygon style="fill:#FFC0BB;" points="915.438,1905.787 931.026,1956.494 966.913,1956.74 960.663,1919.725 		"/>
		<path style="fill:#07085B;" d="M597.479,1136.74c0,0-10.718-54.047,20.606-73.057c31.324-19.01,63.601-15.648,85.174-2.852
			c21.574,12.797,33.128,55.191,22.306,78.809l-72.274-25.432L597.479,1136.74z"/>
		<g>
			<path style="fill:#3D3A55;" d="M1018.459,1999.35l-96.333,0.65c-2.106,0.014-3.798-1.643-3.78-3.699l0.024-2.771
				c0.018-2.057,1.74-3.734,3.846-3.748l96.334-0.65c2.105-0.014,3.798,1.643,3.78,3.699l-0.025,2.771
				C1022.287,1997.658,1020.565,1999.336,1018.459,1999.35z"/>
			<path style="fill:#F9537F;" d="M923.436,1958.732l-3.694,28.441c-0.456,3.508,1.524,6.676,4.16,6.658l91.609-0.617
				c2.379-0.016,4.745-1.482,6.018-4.219c1.306-2.805,1.6-7.018-2.452-12.652c-8.102-11.27-35.025-13.85-48.121-23.428
				l-42.673,0.289C925.9,1953.221,923.848,1955.561,923.436,1958.732z"/>
			<g>
				<path style="fill:#FFFFFF;" d="M964.333,1969.463L964.333,1969.463c-0.659-0.393-0.891-1.48-0.5-2.313
					c1.832-3.906,7.539-13.424,18.961-11.553c0.66,0.107,1.101,0.961,0.98,1.848l-0.004,0.027c-0.117,0.857-0.717,1.422-1.356,1.318
					c-10.237-1.639-15.091,6.75-16.575,10.023C965.522,1969.512,964.88,1969.789,964.333,1969.463z"/>
			</g>
			<g>
				<path style="fill:#FFFFFF;" d="M973.814,1973.057L973.814,1973.057c-0.659-0.393-0.891-1.48-0.501-2.313
					c1.833-3.904,7.539-13.424,18.961-11.553c0.66,0.107,1.1,0.961,0.98,1.848l-0.004,0.027c-0.116,0.857-0.717,1.422-1.356,1.32
					c-10.237-1.641-15.091,6.748-16.574,10.021C975.005,1973.105,974.362,1973.383,973.814,1973.057z"/>
			</g>
			<g>
				<path style="fill:#FFFFFF;" d="M982.633,1976.41L982.633,1976.41c-0.659-0.393-0.891-1.48-0.501-2.313
					c1.833-3.906,7.539-13.424,18.961-11.553c0.66,0.107,1.101,0.961,0.98,1.848l-0.004,0.027c-0.116,0.857-0.717,1.422-1.356,1.32
					c-10.237-1.641-15.091,6.748-16.574,10.021C983.823,1976.459,983.181,1976.736,982.633,1976.41z"/>
			</g>
			<path style="opacity:0.3;fill:#E87B50;" d="M948.352,1993.666c-7.014-22.908-19.434-25.361-26.234-24.785l-2.376,18.293
				c-0.456,3.508,1.524,6.676,4.16,6.658L948.352,1993.666z"/>
		</g>
		<polygon style="fill:#FFC0BB;" points="630.594,1185.924 625.357,1246.277 680.148,1243.732 673.831,1190.287 		"/>
		<path style="fill:#F99893;" d="M676.836,1215.703l-3.004-25.416l-43.237-4.363l-1.814,20.9
			C637.377,1215.15,652.836,1223.781,676.836,1215.703z"/>
		<path style="fill:#F99893;" d="M710.431,1145.258c-3.294,6.623-1.546,14.068,3.904,16.631c5.451,2.563,12.54-0.73,15.835-7.354
			c3.294-6.623,1.546-14.068-3.904-16.631C720.814,1135.342,713.725,1138.635,710.431,1145.258z"/>
		<path style="fill:#FFC0BB;" d="M705.829,1184.906c1.933-2.824,3.608-5.844,4.998-9.027c3.92-8.539,6.216-17.721,7.554-25.77
			c0.287-1.727,0.676-3.434,1.098-5.135c1.705-6.867,2.159-14.232,0.975-21.908c-3.809-24.695-24.247-44.385-49.696-47.803
			c-34.283-4.607-64.483,20.066-66.616,52.744c-3.526-2.199-7.601-2.908-11.317-1.563c-7.13,2.584-10.217,11.701-6.896,20.365
			c3.322,8.662,11.795,13.592,18.925,11.008c0.99-0.359,1.893-0.854,2.721-1.445c1.101,27.984,23.139,50.893,51.28,52.174
			c13.762,0.627,26.565-4.035,36.505-12.203c0.66-0.473,1.356-1.029,2.093-1.68C700.686,1191.803,703.447,1188.486,705.829,1184.906
			z"/>
		<path style="fill:#333333;" d="M656.282,1136.17c-0.132,2.74-2.524,4.857-5.344,4.73c-2.819-0.129-4.998-2.455-4.866-5.195
			c0.132-2.74,2.524-4.857,5.344-4.729C654.236,1131.104,656.414,1133.43,656.282,1136.17z"/>
		<path style="fill:#333333;" d="M699.985,1140.961c-0.132,2.74-2.524,4.857-5.344,4.729c-2.819-0.129-4.997-2.453-4.866-5.193
			c0.132-2.742,2.525-4.859,5.344-4.73C697.939,1135.895,700.117,1138.219,699.985,1140.961z"/>
		<path style="fill:#07085B;" d="M662.698,1124.953c-2.602-0.783-5.05-1.379-7.473-1.744c-2.418-0.361-4.788-0.426-7.098-0.152
			c-2.296,0.301-4.607,0.779-6.827,1.76c-1.179,0.357-2.207,1.037-3.399,1.52c-1.15,0.557-2.216,1.266-3.504,1.814
			c0.644-1.152,1.394-2.279,2.269-3.314c0.963-0.936,1.887-1.992,3.091-2.705c2.247-1.66,5.071-2.613,7.919-2.959
			c2.867-0.336,5.796,0.072,8.397,1.084C658.659,1121.289,661.027,1122.824,662.698,1124.953z"/>
		<path style="fill:#3D3A55;" d="M978.079,1835.398H375.539c-2.134,0-3.864-1.73-3.864-3.865v-10.535
			c0-2.135,1.73-3.865,3.864-3.865h602.539c2.134,0,3.864,1.73,3.864,3.865v10.535
			C981.942,1833.668,980.213,1835.398,978.079,1835.398z"/>
		<path style="fill:#07085B;" d="M685.209,1127.416c2.064-1.771,4.694-2.832,7.438-3.355c2.754-0.504,5.709-0.35,8.454,0.52
			c2.725,0.877,5.305,2.346,7.177,4.4c1.039,0.926,1.733,2.137,2.492,3.236c0.652,1.18,1.163,2.426,1.563,3.678
			c-1.153-0.781-2.058-1.676-3.075-2.439c-1.073-0.699-1.946-1.561-3.031-2.133c-1.982-1.383-4.153-2.287-6.345-3.016
			c-2.211-0.703-4.549-1.09-6.994-1.189C690.438,1127.018,687.918,1127.141,685.209,1127.416z"/>
		<path style="fill:#07085B;" d="M604.957,1128.811c-3.246-2.953-5.83-2.84-5.83-2.84l2.217-17.268l5.956-10.229
			c0,0,22.826-27.264,23.618-27.932s17.715-9.121,18.753-9.549c1.038-0.428,24.098,3.854,24.098,3.854s41.12-6.555,33.404,13.92
			c-7.716,20.475-37.942,30.217-39.435,29.236c5.025-4.463,6.052-17.646,6.052-17.646
			C651.803,1111.791,611.267,1126.592,604.957,1128.811z"/>
		<path style="fill:#F99893;" d="M674.352,1135.76c1.492,2.342,2.766,4.795,3.919,7.303c1.158,2.508,2.167,5.082,2.958,7.758
			c0.365,1.348,0.695,2.713,0.794,4.186c0.012,0.373,0.008,0.754-0.039,1.152c-0.023,0.199-0.081,0.416-0.125,0.621
			c-0.091,0.225-0.147,0.441-0.312,0.668c-0.083,0.113-0.172,0.225-0.263,0.328l-0.221,0.188c-0.147,0.119-0.29,0.25-0.442,0.357
			c-0.31,0.207-0.613,0.426-0.933,0.602c-1.258,0.75-2.588,1.283-3.932,1.742c-1.351,0.441-2.718,0.818-4.117,1.051
			c2.545-1.178,5.111-2.346,7.294-3.883c0.277-0.188,0.517-0.402,0.769-0.605l0.347-0.32l0.168-0.158
			c0.012-0.033,0.026-0.063,0.045-0.086c0.169-0.268,0.19-0.955,0.123-1.551c-0.13-1.252-0.447-2.561-0.827-3.842
			c-0.728-2.586-1.653-5.15-2.543-7.729C676.111,1140.967,675.19,1138.389,674.352,1135.76z"/>
		<path style="fill:#050849;" d="M685.906,1231.404c0,0,42.905,1.811,65.333,29.104c22.428,27.291,86.039,295.027,86.039,295.027
			l-71.539-7.643c0,0-93.026-127.182-93.026-130.455C672.713,1414.162,685.906,1231.404,685.906,1231.404z"/>
		<path style="fill:#FFC0BB;" d="M601.589,1231.826c0,0,82.126-0.162,83.395-0.08c1.269,0.08,7.569-0.588,9.889,1.84
			c2.319,2.428,6.321,15.801-5.103,22.35c-11.424,6.551,12.857,6.824-18.13,12.281c-30.987,5.459-21.7,12.828-45.19,3.275
			c-23.49-9.553-26.516-5.459-27.324-13.918C598.318,1249.113,601.589,1231.826,601.589,1231.826z"/>
		<path style="fill:#07085B;" d="M764.817,1353.369c-4.764-42.965-16.29-71.781-29.211-91.088
			c-9.66-14.432-24.289-24.461-40.732-28.695c-0.074,0.283-4.161,15.549-25.267,17.984c-21.305,2.455-67.2-19.795-68.017-19.744
			l-0.001-0.002c-23.709,1.475-44.212,5.928-54.893,18.381c-21.303,24.836-91.773,198.27-90.134,222.768
			c1.639,24.498,20.488,24.498,20.488,24.498l192.997,0.088v44.389l139.997,9.563
			C806.14,1548.926,778.313,1475.092,764.817,1353.369z"/>
		<g>
			<path style="fill:#DAEEF7;" d="M780.323,1336.508c1.231,0.045,50.959-30.07,50.959-30.07l9.293,1.975l-3.298,2.432l5.558-1.395
				l9.042,1.395c0,0-29.887,35.246-30.39,36.25c-0.502,1.002-13.562,6.021-14.566,6.523
				C805.917,1354.119,780.323,1336.508,780.323,1336.508z"/>
			<path style="fill:#DAEEF7;" d="M700.747,1312.461l4.521-2.822l2.072,1.41v-2.637l2.826-1.975l72.331,28.609
				c0,0-23.169,14.682-23.922,14.117c-0.753-0.566-42.005-8.094-42.758-9.223C715.063,1338.811,700.747,1312.461,700.747,1312.461z"
				/>
			<path style="fill:#FEB546;" d="M701.891,1311.125l81.98,26.531l66.111-28.764c4.013-1.746,8.413,1.498,7.927,5.844l-12.593,112.6
				c-0.209,1.871-1.333,3.52-3.001,4.396l-63.477,33.438l-57.496-21.27l-1.48-2.174l-7.454-1.131l-24.107-8.918
				c-2.154-0.797-3.51-2.934-3.314-5.221l9.48-110.41C694.781,1312.402,698.407,1309.996,701.891,1311.125z"/>
			<path style="fill:#F4A640;" d="M701.891,1311.123c-3.483-1.127-7.11,1.279-7.423,4.924L685,1426.311
				c-0.204,2.373,1.204,4.592,3.439,5.418l23.97,8.867l7.454,1.131l1.48,2.174l38.672,14.307c8.896-1.713,17.725-3.367,17.725-3.367
				l6.132-117.184L701.891,1311.123z"/>
			<polygon style="fill:#F4A640;" points="796.108,1351.113 847.231,1328.773 845.599,1351.986 795.494,1375.199 			"/>
		</g>
		<path style="fill:#2B1C35;" d="M823.72,1542.23c0,0,173.101-5.459,212.432,31.658c39.332,37.117,1.093,311.205-5.462,336.822
			c0,0-24.036,22.342-52.442,13.607c-28.406-8.732-17.48-131.002-17.48-131.002s3.277-116.811-1.093-133.186
			c-4.37-16.375-64.46-28.383-64.46-28.383s-92.866-64.41-87.403-64.41C813.274,1567.338,823.72,1542.23,823.72,1542.23z"/>
		<path style="fill:#3A2645;" d="M670.046,1536.982c0,0,231.724-27.504,263.408,77.299
			c31.684,104.801,55.719,312.221,55.719,312.221s-30.591,18.559-72.107,0c0,0-58.721-222.703-80.71-244.537
			c-21.989-21.834-166.31-8.521-166.31-8.521V1536.982z"/>
		<path style="fill:#FFFFFF;" d="M729.607,1470.346c-0.884-5.004-2.135-9.926-3.553-14.789c-1.442-4.863-3.035-9.658-4.949-14.389
			l-0.215-0.531l-0.581-0.029l-154.618-7.74c0.578-4.688,2.008-9.291,3.565-13.801c1.644-4.68,3.518-9.281,5.478-13.846
			c3.946-9.119,8.276-18.074,12.753-26.953c8.991-17.742,18.557-35.197,28.516-52.42l-0.159-0.094
			c-10.081,17.158-19.768,34.551-28.888,52.242c-4.542,8.855-8.938,17.791-12.958,26.906c-1.997,4.563-3.908,9.166-5.596,13.861
			c-1.655,4.701-3.192,9.486-3.773,14.525l-0.059,0.506l0.523,0.029l154.518,8.574c1.776,4.455,3.316,9.055,4.683,13.674
			c1.4,4.811,2.635,9.676,3.503,14.602c0.846,4.922,1.56,9.891,1.576,14.867c0.057,4.754-0.314,9.525-1.569,14.076l-45.763-1.33
			l-23.223-0.648l-23.232-0.391l-0.008,0.223l23.213,0.92l23.211,0.988l46.423,1.926l0.638,0.025l0.187-0.607
			c1.523-4.953,1.989-10.111,1.967-15.211C731.197,1480.396,730.468,1475.346,729.607,1470.346z"/>
		<path style="fill:#ED9935;" d="M778.541,1336.051l-5.928,123.471l9.048-1.314l6.372-122.156
			C788.033,1336.051,783.25,1332.727,778.541,1336.051z"/>
		<g>
			<path style="fill:#FFC0BB;" d="M785.142,1452.848c-11.471,5.049-34.75,1.385-34.75,1.385l-17.624-6.127
				c-2.465,1.676-4.973,3.379-7.455,5.033c0.249,0.805,0.5,1.609,0.74,2.418c1.418,4.863,2.669,9.785,3.553,14.789
				c0.862,5,1.591,10.051,1.611,15.166c0.004,0.836-0.03,1.672-0.055,2.51l2.482-0.924c2.998,0.605,8.427,0.088,15.951-1.068
				c8.589-1.096,22.166-2.988,28.098-4.695c4.276-1.23,6.134-3.959,6.92-6.488c3.381-2.061,3.698-5.9,3.29-8.957
				c0.096-0.195,0.18-0.391,0.244-0.588c1.65-5.152,0.73-6.49-0.113-7.014c0.603-0.621,1.022-1.295,1.206-2.027
				C791.151,1448.617,785.142,1452.848,785.142,1452.848z"/>
			<path style="fill:#F99893;" d="M788.033,1465.482c-1.38,1.609-3.165,2.832-5.022,3.859c-1.866,1.031-3.881,1.77-5.933,2.34
				c-2.067,0.514-4.175,0.865-6.296,0.955c-1.058,0.076-2.121,0.018-3.176,0.029c-1.056-0.08-2.109-0.174-3.153-0.301
				c2.11-0.102,4.198-0.172,6.268-0.434c2.069-0.254,4.115-0.621,6.122-1.139c2.003-0.535,3.96-1.227,5.851-2.08
				C784.572,1467.838,786.397,1466.809,788.033,1465.482z"/>
			<path style="fill:#F99893;" d="M784.639,1474.865c-1.502,1.496-3.378,2.576-5.311,3.453c-1.942,0.881-4.009,1.457-6.099,1.865
				c-2.101,0.35-4.23,0.533-6.353,0.455c-1.06-0.008-2.115-0.148-3.168-0.221c-1.046-0.162-2.089-0.338-3.12-0.547
				c2.111,0.063,4.199,0.158,6.284,0.061c2.083-0.09,4.151-0.295,6.193-0.654c2.039-0.375,4.044-0.908,5.997-1.613
				C781.003,1476.941,782.904,1476.059,784.639,1474.865z"/>
			<path style="fill:#F99893;" d="M788.033,1458.287c-1.38,1.609-3.165,2.834-5.022,3.859c-1.866,1.031-3.881,1.77-5.933,2.34
				c-2.067,0.514-4.175,0.865-6.296,0.955c-1.058,0.076-2.121,0.018-3.176,0.029c-1.056-0.08-2.109-0.172-3.153-0.301
				c2.11-0.102,4.198-0.172,6.268-0.434c2.069-0.254,4.115-0.621,6.122-1.139c2.003-0.535,3.96-1.225,5.851-2.08
				C784.572,1460.643,786.397,1459.613,788.033,1458.287z"/>
		</g>
		<path style="fill:#F99893;" d="M653.631,1171.809c4.81,0.564,9.491,1.379,14.198,2.041c4.71,0.684,9.368,1.246,14.201,1.438
			c-4.714,1.268-9.696,1.033-14.464,0.385C662.786,1174.941,658.068,1173.773,653.631,1171.809z"/>
		<g>
			<polygon style="fill:#3D3A55;" points="384.038,1999.65 366.544,1999.65 410.174,1828.342 426.604,1832.521 			"/>
		</g>
		<g>
			<g>
				<g>
					<polygon style="fill:#3D3A55;" points="704.812,1999.65 687.318,1999.65 730.948,1828.342 747.378,1832.521 					"/>
				</g>
			</g>
		</g>
		<g>
			<polygon style="fill:#3D3A55;" points="597.13,1999.65 614.624,1999.65 570.994,1828.342 554.565,1832.521 			"/>
		</g>
	</g>
	<rect x="2598.196" y="629.91" style="fill:#4188E4;" width="537.547" height="30.751"/>
	<rect x="2677.253" y="891.802" style="fill:#4188E4;" width="537.548" height="30.752"/>
	<g>
		<g>
			<g>
				<rect x="1249.3" y="609.588" style="fill:#09083C;" width="15.237" height="1244.241"/>
			</g>
			<g>
				<rect x="1412.554" y="609.588" style="fill:#09083C;" width="15.237" height="1244.241"/>
			</g>
			<g>
				<rect x="1256.918" y="628.523" style="fill:#09083C;" width="163.254" height="12.883"/>
			</g>
			<g>
				<rect x="1256.918" y="712.032" style="fill:#09083C;" width="163.254" height="12.883"/>
			</g>
			<g>
				<rect x="1256.918" y="795.541" style="fill:#09083C;" width="163.254" height="12.883"/>
			</g>
			<g>
				<rect x="1256.918" y="879.049" style="fill:#09083C;" width="163.254" height="12.883"/>
			</g>
			<g>
				<rect x="1256.918" y="962.558" style="fill:#09083C;" width="163.254" height="12.883"/>
			</g>
			<g>
				<rect x="1256.918" y="1046.067" style="fill:#09083C;" width="163.254" height="12.883"/>
			</g>
			<g>
				<rect x="1256.918" y="1129.577" style="fill:#09083C;" width="163.254" height="12.883"/>
			</g>
			<g>
				<rect x="1256.918" y="1213.085" style="fill:#09083C;" width="163.254" height="12.883"/>
			</g>
			<g>
				<rect x="1256.918" y="1296.593" style="fill:#09083C;" width="163.254" height="12.883"/>
			</g>
			<g>
				<rect x="1256.918" y="1380.103" style="fill:#09083C;" width="163.254" height="12.883"/>
			</g>
			<g>
				<rect x="1256.918" y="1463.61" style="fill:#09083C;" width="163.254" height="12.883"/>
			</g>
			<g>
				<rect x="1256.918" y="1547.12" style="fill:#09083C;" width="163.254" height="12.883"/>
			</g>
			<g>
				<rect x="1256.918" y="1630.628" style="fill:#09083C;" width="163.254" height="12.883"/>
			</g>
		</g>
	</g>
	<g>
		<ellipse style="fill:#4188E4;" cx="3318.527" cy="450.709" rx="147.571" ry="147.455"/>
		<path style="fill:#FFFFFF;" d="M3448.261,442.574c4.496,71.594-49.942,133.275-121.593,137.768
			c-71.649,4.493-133.378-49.903-137.875-121.497c-4.497-71.594,49.942-133.274,121.593-137.767
			C3382.035,316.584,3443.765,370.98,3448.261,442.574z"/>
		<g>
			
				<rect x="3211.071" y="428.176" transform="matrix(6.123234e-17 -1 1 6.123234e-17 2762.6963 3662.8057)" style="fill:#B0C1EC;" width="3.359" height="43.758"/>
			
				<rect x="3422.893" y="428.175" transform="matrix(6.123234e-17 -1 1 6.123234e-17 2974.5181 3874.6274)" style="fill:#B0C1EC;" width="3.359" height="43.759"/>
			<rect x="3316.662" y="324.049" style="fill:#B0C1EC;" width="3.362" height="43.725"/>
			<rect x="3316.662" y="534.858" style="fill:#B0C1EC;" width="3.362" height="43.725"/>
			<path style="fill:#B0C1EC;" d="M3322.149,450.709c0,1.999-1.622,3.62-3.623,3.62c-2,0-3.621-1.621-3.621-3.62
				c0-1.999,1.621-3.619,3.621-3.619C3320.527,447.09,3322.149,448.71,3322.149,450.709z"/>
			<g>
				<path style="fill:#B0C1EC;" d="M3318.526,452.327c-0.414,0-0.828-0.158-1.145-0.474l-65.087-65.035
					c-0.632-0.632-0.632-1.657,0-2.288c0.632-0.632,1.658-0.632,2.29,0l65.086,65.035c0.634,0.632,0.634,1.656,0,2.288
					C3319.355,452.169,3318.941,452.327,3318.526,452.327z"/>
			</g>
			<g>
				<g>
					<path style="fill:#B0C1EC;" d="M3339.454,516.435c-0.269-0.135-0.486-0.373-0.589-0.682l-21.038-63.497
						c-0.205-0.617,0.131-1.283,0.748-1.487c0.617-0.204,1.283,0.13,1.488,0.748l21.038,63.497c0.204,0.617-0.131,1.283-0.748,1.487
						C3340.045,516.602,3339.724,516.57,3339.454,516.435z"/>
				</g>
			</g>
		</g>
	</g>
</g>
</svg>
