<?xml version="1.0" encoding="utf-8"?>
<!-- Generator: Adobe Illustrator 27.5.0, SVG Export Plug-In . SVG Version: 6.00 Build 0)  -->
<svg version="1.1" xmlns="http://www.w3.org/2000/svg" xmlns:xlink="http://www.w3.org/1999/xlink" x="0px" y="0px"
	 viewBox="0 0 500 500" style="enable-background:new 0 0 500 500;" xml:space="preserve">
<g id="Background_Complete">
	<g>
		<rect x="416.779" y="398.494" style="fill:#EBEBEB;" width="33.122" height="0.25"/>
		<rect x="322.527" y="401.208" style="fill:#EBEBEB;" width="8.693" height="0.25"/>
		<rect x="396.586" y="389.208" style="fill:#EBEBEB;" width="19.192" height="0.25"/>
		<rect x="52.459" y="390.888" style="fill:#EBEBEB;" width="43.193" height="0.25"/>
		<rect x="104.556" y="390.888" style="fill:#EBEBEB;" width="6.333" height="0.25"/>
		<rect x="131.471" y="395.111" style="fill:#EBEBEB;" width="93.676" height="0.25"/>
		<path style="fill:#EBEBEB;" d="M237.014,337.8H43.915c-3.147,0-5.708-2.561-5.708-5.708V60.66c0-3.147,2.561-5.708,5.708-5.708
			h193.099c3.146,0,5.707,2.561,5.707,5.708v271.432C242.721,335.239,240.16,337.8,237.014,337.8z M43.915,55.203
			c-3.01,0-5.458,2.448-5.458,5.458v271.432c0,3.01,2.448,5.458,5.458,5.458h193.099c3.009,0,5.457-2.448,5.457-5.458V60.66
			c0-3.009-2.448-5.458-5.457-5.458H43.915z"/>
		<path style="fill:#EBEBEB;" d="M453.31,337.8H260.212c-3.147,0-5.707-2.561-5.707-5.708V60.66c0-3.147,2.561-5.708,5.707-5.708
			H453.31c3.148,0,5.708,2.561,5.708,5.708v271.432C459.019,335.239,456.458,337.8,453.31,337.8z M260.212,55.203
			c-3.009,0-5.457,2.448-5.457,5.458v271.432c0,3.01,2.448,5.458,5.457,5.458H453.31c3.01,0,5.458-2.448,5.458-5.458V60.66
			c0-3.009-2.448-5.458-5.458-5.458H260.212z"/>
		<rect y="382.398" style="fill:#EBEBEB;" width="500" height="0.25"/>
	</g>
	<g>
		<g>
			<rect x="346.272" y="140.737" style="fill:#E0E0E0;" width="84.579" height="213.095"/>
			<path style="fill:#E6E6E6;" d="M430.851,138.868v216.833h15.583V138.868H430.851z"/>
			<path style="fill:#E6E6E6;" d="M331.436,138.868v216.833h15.583V138.868H331.436z"/>
			<path style="fill:#F5F5F5;" d="M328.79,138.868v216.833H432.72V138.868H328.79z M428.982,142.607v38.88h-96.453v-38.88H428.982z
				 M332.529,266.725v-38.88h96.453v38.88H332.529z M428.982,270.463v38.88h-96.453v-38.88H428.982z M332.529,224.106v-38.881
				h96.453v38.881H332.529z M332.529,351.963v-38.88h96.453v38.88H332.529z"/>
			<g>
				
					<rect x="395.286" y="151.676" transform="matrix(-1 -1.224647e-16 1.224647e-16 -1 794.1664 333.5199)" style="fill:#E6E6E6;" width="3.595" height="30.169"/>
				
					<rect x="398.881" y="151.676" transform="matrix(-1 -1.224647e-16 1.224647e-16 -1 801.3563 333.5199)" style="fill:#E0E0E0;" width="3.595" height="30.169"/>
				
					<rect x="388.096" y="153.796" transform="matrix(-1 -1.224647e-16 1.224647e-16 -1 783.3815 335.6401)" style="fill:#E6E6E6;" width="7.19" height="28.049"/>
				
					<rect x="379.855" y="151.676" transform="matrix(-1 -1.224647e-16 1.224647e-16 -1 764.3554 333.5199)" style="fill:#F0F0F0;" width="4.646" height="30.169"/>
				
					<rect x="384.501" y="151.676" transform="matrix(-1 -1.224647e-16 1.224647e-16 -1 772.5964 333.5199)" style="fill:#EBEBEB;" width="3.595" height="30.169"/>
				
					<rect x="352.588" y="151.676" transform="matrix(-1 -1.224647e-16 1.224647e-16 -1 709.8216 333.5199)" style="fill:#E6E6E6;" width="4.646" height="30.169"/>
				
					<rect x="357.234" y="151.676" transform="matrix(-1 -1.224647e-16 1.224647e-16 -1 718.0627 333.5199)" style="fill:#EBEBEB;" width="3.595" height="30.169"/>
				
					<rect x="368.019" y="151.676" transform="matrix(-1 -1.224647e-16 1.224647e-16 -1 740.6834 333.5199)" style="fill:#E6E6E6;" width="4.646" height="30.169"/>
				
					<rect x="372.665" y="151.676" transform="matrix(-1 -1.224647e-16 1.224647e-16 -1 748.9245 333.5199)" style="fill:#E0E0E0;" width="3.595" height="30.169"/>
				
					<rect x="345.398" y="152.39" transform="matrix(-1 -1.224647e-16 1.224647e-16 -1 697.9855 334.2345)" style="fill:#EBEBEB;" width="7.19" height="29.454"/>
				
					<rect x="341.803" y="152.39" transform="matrix(-1 -1.224647e-16 1.224647e-16 -1 687.2006 334.2345)" style="fill:#E0E0E0;" width="3.595" height="29.454"/>
				
					<rect x="363.225" y="152.39" transform="matrix(-1 -1.224647e-16 1.224647e-16 -1 731.2439 334.2345)" style="fill:#E0E0E0;" width="4.793" height="29.454"/>
				
					<rect x="360.829" y="152.39" transform="matrix(-1 -1.224647e-16 1.224647e-16 -1 724.054 334.2345)" style="fill:#F0F0F0;" width="2.397" height="29.454"/>
				
					<rect x="372.665" y="153.796" transform="matrix(-1 -1.224647e-16 1.224647e-16 -1 752.5194 335.6401)" style="fill:#F5F5F5;" width="7.19" height="28.049"/>
				
					<rect x="413.26" y="151.676" transform="matrix(-1 -1.224647e-16 1.224647e-16 -1 831.1673 333.5199)" style="fill:#EBEBEB;" width="4.646" height="30.169"/>
				
					<rect x="417.907" y="151.676" transform="matrix(-1 -1.224647e-16 1.224647e-16 -1 839.4084 333.5199)" style="fill:#E6E6E6;" width="3.595" height="30.169"/>
				
					<rect x="406.071" y="152.39" transform="matrix(-1 -1.224647e-16 1.224647e-16 -1 819.3311 334.2345)" style="fill:#E0E0E0;" width="7.19" height="29.454"/>
				
					<rect x="402.476" y="152.39" transform="matrix(-1 -1.224647e-16 1.224647e-16 -1 808.5462 334.2345)" style="fill:#EBEBEB;" width="3.595" height="29.454"/>
				
					<rect x="423.898" y="152.39" transform="matrix(-1 -1.224647e-16 1.224647e-16 -1 852.5895 334.2345)" style="fill:#EBEBEB;" width="4.793" height="29.454"/>
				
					<rect x="421.501" y="152.39" transform="matrix(-1 -1.224647e-16 1.224647e-16 -1 845.3995 334.2345)" style="fill:#FAFAFA;" width="2.397" height="29.454"/>
			</g>
			<g>
				<rect x="371.614" y="193.921" style="fill:#E6E6E6;" width="3.595" height="30.169"/>
				<rect x="368.019" y="193.921" style="fill:#E0E0E0;" width="3.595" height="30.169"/>
				<rect x="375.208" y="196.041" style="fill:#E6E6E6;" width="7.19" height="28.049"/>
				<rect x="385.993" y="193.921" style="fill:#F0F0F0;" width="4.646" height="30.169"/>
				<rect x="382.398" y="193.921" style="fill:#EBEBEB;" width="3.595" height="30.169"/>
				<rect x="413.26" y="193.921" style="fill:#E6E6E6;" width="4.646" height="30.169"/>
				<rect x="409.665" y="193.921" style="fill:#EBEBEB;" width="3.595" height="30.169"/>
				<rect x="397.829" y="193.921" style="fill:#E6E6E6;" width="4.646" height="30.169"/>
				<rect x="394.235" y="193.921" style="fill:#E0E0E0;" width="3.595" height="30.169"/>
				<rect x="417.906" y="194.635" style="fill:#EBEBEB;" width="7.19" height="29.454"/>
				<rect x="425.096" y="194.635" style="fill:#E0E0E0;" width="3.595" height="29.454"/>
				<rect x="402.476" y="194.635" style="fill:#E0E0E0;" width="4.793" height="29.454"/>
				<rect x="407.269" y="194.635" style="fill:#F0F0F0;" width="2.397" height="29.454"/>
				<rect x="390.64" y="196.041" style="fill:#F5F5F5;" width="7.19" height="28.049"/>
				<rect x="352.587" y="193.921" style="fill:#EBEBEB;" width="4.646" height="30.169"/>
				<rect x="348.993" y="193.921" style="fill:#E6E6E6;" width="3.595" height="30.169"/>
				<rect x="357.234" y="194.635" style="fill:#E0E0E0;" width="7.19" height="29.454"/>
				<rect x="364.424" y="194.635" style="fill:#EBEBEB;" width="3.595" height="29.454"/>
				<rect x="341.803" y="194.635" style="fill:#EBEBEB;" width="4.793" height="29.454"/>
				<rect x="346.596" y="194.635" style="fill:#FAFAFA;" width="2.397" height="29.454"/>
			</g>
			<g>
				<rect x="371.614" y="236.913" style="fill:#E6E6E6;" width="3.595" height="30.169"/>
				<rect x="368.019" y="236.913" style="fill:#E0E0E0;" width="3.595" height="30.169"/>
				<rect x="375.208" y="239.034" style="fill:#E6E6E6;" width="7.19" height="28.049"/>
				<rect x="385.993" y="236.913" style="fill:#F0F0F0;" width="4.646" height="30.169"/>
				<rect x="382.398" y="236.913" style="fill:#EBEBEB;" width="3.595" height="30.169"/>
				<rect x="413.26" y="236.913" style="fill:#E6E6E6;" width="4.646" height="30.169"/>
				<rect x="409.665" y="236.913" style="fill:#EBEBEB;" width="3.595" height="30.169"/>
				<rect x="397.829" y="236.913" style="fill:#E6E6E6;" width="4.646" height="30.169"/>
				<rect x="394.235" y="236.913" style="fill:#E0E0E0;" width="3.595" height="30.169"/>
				<rect x="417.906" y="237.628" style="fill:#EBEBEB;" width="7.19" height="29.454"/>
				<rect x="425.096" y="237.628" style="fill:#E0E0E0;" width="3.595" height="29.454"/>
				<rect x="402.476" y="237.628" style="fill:#E0E0E0;" width="4.793" height="29.454"/>
				<rect x="407.269" y="237.628" style="fill:#F0F0F0;" width="2.397" height="29.454"/>
				<rect x="390.64" y="239.034" style="fill:#F5F5F5;" width="7.19" height="28.049"/>
				<rect x="352.587" y="236.913" style="fill:#EBEBEB;" width="4.646" height="30.169"/>
				<rect x="348.993" y="236.913" style="fill:#E6E6E6;" width="3.595" height="30.169"/>
				<rect x="357.234" y="237.628" style="fill:#E0E0E0;" width="7.19" height="29.454"/>
				<rect x="364.424" y="237.628" style="fill:#EBEBEB;" width="3.595" height="29.454"/>
				<rect x="341.803" y="237.628" style="fill:#EBEBEB;" width="4.793" height="29.454"/>
				<rect x="346.596" y="237.628" style="fill:#FAFAFA;" width="2.397" height="29.454"/>
			</g>
			<g>
				
					<rect x="395.286" y="279.906" transform="matrix(-1 -1.224647e-16 1.224647e-16 -1 794.1664 589.9813)" style="fill:#E6E6E6;" width="3.595" height="30.169"/>
				
					<rect x="398.881" y="279.906" transform="matrix(-1 -1.224647e-16 1.224647e-16 -1 801.3563 589.9813)" style="fill:#E0E0E0;" width="3.595" height="30.169"/>
				
					<rect x="388.096" y="279.906" transform="matrix(-1 -1.224647e-16 1.224647e-16 -1 783.3815 587.8611)" style="fill:#E6E6E6;" width="7.19" height="28.049"/>
				
					<rect x="379.855" y="279.906" transform="matrix(-1 -1.224647e-16 1.224647e-16 -1 764.3554 589.9813)" style="fill:#F0F0F0;" width="4.646" height="30.169"/>
				
					<rect x="384.501" y="279.906" transform="matrix(-1 -1.224647e-16 1.224647e-16 -1 772.5964 589.9813)" style="fill:#EBEBEB;" width="3.595" height="30.169"/>
				
					<rect x="352.588" y="279.906" transform="matrix(-1 -1.224647e-16 1.224647e-16 -1 709.8216 589.9813)" style="fill:#E6E6E6;" width="4.646" height="30.169"/>
				
					<rect x="357.234" y="279.906" transform="matrix(-1 -1.224647e-16 1.224647e-16 -1 718.0627 589.9813)" style="fill:#EBEBEB;" width="3.595" height="30.169"/>
				
					<rect x="368.019" y="279.906" transform="matrix(-1 -1.224647e-16 1.224647e-16 -1 740.6834 589.9813)" style="fill:#E6E6E6;" width="4.646" height="30.169"/>
				
					<rect x="372.665" y="279.906" transform="matrix(-1 -1.224647e-16 1.224647e-16 -1 748.9245 589.9813)" style="fill:#E0E0E0;" width="3.595" height="30.169"/>
				
					<rect x="345.398" y="279.906" transform="matrix(-1 -1.224647e-16 1.224647e-16 -1 697.9855 589.2667)" style="fill:#EBEBEB;" width="7.19" height="29.454"/>
				
					<rect x="341.803" y="279.906" transform="matrix(-1 -1.224647e-16 1.224647e-16 -1 687.2006 589.2667)" style="fill:#E0E0E0;" width="3.595" height="29.454"/>
				
					<rect x="363.225" y="279.906" transform="matrix(-1 -1.224647e-16 1.224647e-16 -1 731.2439 589.2667)" style="fill:#E0E0E0;" width="4.793" height="29.454"/>
				
					<rect x="360.829" y="279.906" transform="matrix(-1 -1.224647e-16 1.224647e-16 -1 724.054 589.2667)" style="fill:#F0F0F0;" width="2.397" height="29.454"/>
				
					<rect x="372.665" y="279.906" transform="matrix(-1 -1.224647e-16 1.224647e-16 -1 752.5194 587.8611)" style="fill:#F5F5F5;" width="7.19" height="28.049"/>
				
					<rect x="413.26" y="279.906" transform="matrix(-1 -1.224647e-16 1.224647e-16 -1 831.1673 589.9813)" style="fill:#EBEBEB;" width="4.646" height="30.169"/>
				
					<rect x="417.907" y="279.906" transform="matrix(-1 -1.224647e-16 1.224647e-16 -1 839.4084 589.9813)" style="fill:#E6E6E6;" width="3.595" height="30.169"/>
				
					<rect x="406.071" y="279.906" transform="matrix(-1 -1.224647e-16 1.224647e-16 -1 819.3311 589.2667)" style="fill:#E0E0E0;" width="7.19" height="29.454"/>
				
					<rect x="402.476" y="279.906" transform="matrix(-1 -1.224647e-16 1.224647e-16 -1 808.5462 589.2667)" style="fill:#EBEBEB;" width="3.595" height="29.454"/>
				
					<rect x="423.898" y="279.906" transform="matrix(-1 -1.224647e-16 1.224647e-16 -1 852.5895 589.2667)" style="fill:#EBEBEB;" width="4.793" height="29.454"/>
				
					<rect x="421.501" y="279.906" transform="matrix(-1 -1.224647e-16 1.224647e-16 -1 845.3995 589.2667)" style="fill:#FAFAFA;" width="2.397" height="29.454"/>
			</g>
			<g>
				<rect x="371.614" y="322.899" style="fill:#E6E6E6;" width="3.595" height="30.169"/>
				<rect x="368.019" y="322.899" style="fill:#E0E0E0;" width="3.595" height="30.169"/>
				<rect x="375.208" y="322.899" style="fill:#E6E6E6;" width="7.19" height="28.049"/>
				<rect x="385.993" y="322.899" style="fill:#F0F0F0;" width="4.646" height="30.169"/>
				<rect x="382.398" y="322.899" style="fill:#EBEBEB;" width="3.595" height="30.169"/>
				<rect x="413.26" y="322.899" style="fill:#E6E6E6;" width="4.646" height="30.169"/>
				<rect x="409.665" y="322.899" style="fill:#EBEBEB;" width="3.595" height="30.169"/>
				<rect x="397.829" y="322.899" style="fill:#E6E6E6;" width="4.646" height="30.169"/>
				<rect x="394.235" y="322.899" style="fill:#E0E0E0;" width="3.595" height="30.169"/>
				<rect x="417.906" y="322.899" style="fill:#EBEBEB;" width="7.19" height="29.454"/>
				<rect x="425.096" y="322.899" style="fill:#E0E0E0;" width="3.595" height="29.454"/>
				<rect x="402.476" y="322.899" style="fill:#E0E0E0;" width="4.793" height="29.454"/>
				<rect x="407.269" y="322.899" style="fill:#F0F0F0;" width="2.397" height="29.454"/>
				<rect x="390.64" y="322.899" style="fill:#F5F5F5;" width="7.19" height="28.049"/>
				<rect x="352.587" y="322.899" style="fill:#EBEBEB;" width="4.646" height="30.169"/>
				<rect x="348.993" y="322.899" style="fill:#E6E6E6;" width="3.595" height="30.169"/>
				<rect x="357.234" y="322.899" style="fill:#E0E0E0;" width="7.19" height="29.454"/>
				<rect x="364.424" y="322.899" style="fill:#EBEBEB;" width="3.595" height="29.454"/>
				<rect x="341.803" y="322.899" style="fill:#EBEBEB;" width="4.793" height="29.454"/>
				<rect x="346.596" y="322.899" style="fill:#FAFAFA;" width="2.397" height="29.454"/>
			</g>
		</g>
		<g>
			<rect x="365.659" y="100.598" style="fill:#E6E6E6;" width="63.13" height="20.897"/>
		</g>
		<g>
			<rect x="365.721" y="55.203" style="fill:#E6E6E6;" width="1" height="45.396"/>
		</g>
		<g>
			<rect x="427.692" y="55.203" style="fill:#E6E6E6;" width="1" height="45.396"/>
		</g>
	</g>
	<g>
		<g>
			<rect x="230.639" y="129.347" style="fill:#E0E0E0;" width="96.846" height="244.001"/>
			<path style="fill:#E6E6E6;" d="M327.486,127.206v248.281h17.843V127.206H327.486z"/>
			<path style="fill:#E6E6E6;" d="M213.652,127.206v248.281h17.843V127.206H213.652z"/>
			<path style="fill:#F5F5F5;" d="M210.622,127.206v248.281h119.004V127.206H210.622z M325.345,131.487v44.519H214.903v-44.519
				H325.345z M214.903,273.607v-44.519h110.443v44.519H214.903z M325.345,277.887v44.52H214.903v-44.52H325.345z M214.903,224.807
				v-44.52h110.443v44.52H214.903z M214.903,371.207v-44.52h110.443v44.52H214.903z"/>
			<g>
				
					<rect x="286.762" y="141.871" transform="matrix(-1 -1.224647e-16 1.224647e-16 -1 577.6402 318.2868)" style="fill:#E6E6E6;" width="4.116" height="34.544"/>
				
					<rect x="290.878" y="141.871" transform="matrix(-1 -1.224647e-16 1.224647e-16 -1 585.8729 318.2868)" style="fill:#E0E0E0;" width="4.116" height="34.544"/>
				
					<rect x="278.529" y="144.299" transform="matrix(-1 -1.224647e-16 1.224647e-16 -1 565.2911 320.7145)" style="fill:#E6E6E6;" width="8.233" height="32.117"/>
				
					<rect x="269.093" y="141.871" transform="matrix(-1 -1.224647e-16 1.224647e-16 -1 543.5055 318.2868)" style="fill:#F0F0F0;" width="5.32" height="34.544"/>
				
					<rect x="274.413" y="141.871" transform="matrix(-1 -1.224647e-16 1.224647e-16 -1 552.9418 318.2868)" style="fill:#EBEBEB;" width="4.116" height="34.544"/>
				
					<rect x="237.871" y="141.871" transform="matrix(-1 -1.224647e-16 1.224647e-16 -1 481.0625 318.2868)" style="fill:#E6E6E6;" width="5.32" height="34.544"/>
				
					<rect x="243.191" y="141.871" transform="matrix(-1 -1.224647e-16 1.224647e-16 -1 490.4988 318.2868)" style="fill:#EBEBEB;" width="4.116" height="34.544"/>
				
					<rect x="255.54" y="141.871" transform="matrix(-1 -1.224647e-16 1.224647e-16 -1 516.4003 318.2868)" style="fill:#E6E6E6;" width="5.32" height="34.544"/>
				
					<rect x="260.86" y="141.871" transform="matrix(-1 -1.224647e-16 1.224647e-16 -1 525.8366 318.2868)" style="fill:#E0E0E0;" width="4.116" height="34.544"/>
				
					<rect x="229.639" y="142.69" transform="matrix(-1 -1.224647e-16 1.224647e-16 -1 467.5097 319.1051)" style="fill:#EBEBEB;" width="8.233" height="33.726"/>
				
					<rect x="225.522" y="142.69" transform="matrix(-1 -1.224647e-16 1.224647e-16 -1 455.1606 319.1051)" style="fill:#E0E0E0;" width="4.116" height="33.726"/>
				
					<rect x="250.052" y="142.69" transform="matrix(-1 -1.224647e-16 1.224647e-16 -1 505.5917 319.1051)" style="fill:#E0E0E0;" width="5.489" height="33.726"/>
				
					<rect x="247.307" y="142.69" transform="matrix(-1 -1.224647e-16 1.224647e-16 -1 497.359 319.1051)" style="fill:#F0F0F0;" width="2.744" height="33.726"/>
				
					<rect x="260.86" y="144.299" transform="matrix(-1 -1.224647e-16 1.224647e-16 -1 529.9528 320.7145)" style="fill:#F5F5F5;" width="8.233" height="32.117"/>
				
					<rect x="307.344" y="141.871" transform="matrix(-1 -1.224647e-16 1.224647e-16 -1 620.0074 318.2868)" style="fill:#EBEBEB;" width="5.32" height="34.544"/>
				
					<rect x="312.664" y="141.871" transform="matrix(-1 -1.224647e-16 1.224647e-16 -1 629.4437 318.2868)" style="fill:#E6E6E6;" width="4.116" height="34.544"/>
				
					<rect x="299.111" y="142.69" transform="matrix(-1 -1.224647e-16 1.224647e-16 -1 606.4547 319.1051)" style="fill:#E0E0E0;" width="8.233" height="33.726"/>
				
					<rect x="294.995" y="142.69" transform="matrix(-1 -1.224647e-16 1.224647e-16 -1 594.1056 319.1051)" style="fill:#EBEBEB;" width="4.116" height="33.726"/>
				
					<rect x="319.524" y="142.69" transform="matrix(-1 -1.224647e-16 1.224647e-16 -1 644.5365 319.1051)" style="fill:#EBEBEB;" width="5.489" height="33.726"/>
				
					<rect x="316.78" y="142.69" transform="matrix(-1 -1.224647e-16 1.224647e-16 -1 636.3038 319.1051)" style="fill:#FAFAFA;" width="2.744" height="33.726"/>
			</g>
			<g>
				<rect x="259.656" y="190.243" style="fill:#E6E6E6;" width="4.116" height="34.544"/>
				<rect x="255.54" y="190.243" style="fill:#E0E0E0;" width="4.116" height="34.544"/>
				<rect x="263.773" y="192.671" style="fill:#E6E6E6;" width="8.233" height="32.117"/>
				<rect x="276.122" y="190.243" style="fill:#F0F0F0;" width="5.32" height="34.544"/>
				<rect x="272.006" y="190.243" style="fill:#EBEBEB;" width="4.116" height="34.544"/>
				<rect x="307.343" y="190.243" style="fill:#E6E6E6;" width="5.32" height="34.544"/>
				<rect x="303.227" y="190.243" style="fill:#EBEBEB;" width="4.116" height="34.544"/>
				<rect x="289.674" y="190.243" style="fill:#E6E6E6;" width="5.32" height="34.544"/>
				<rect x="285.558" y="190.243" style="fill:#E0E0E0;" width="4.116" height="34.544"/>
				<rect x="312.664" y="191.062" style="fill:#EBEBEB;" width="8.233" height="33.726"/>
				<rect x="320.896" y="191.062" style="fill:#E0E0E0;" width="4.116" height="33.726"/>
				<rect x="294.995" y="191.062" style="fill:#E0E0E0;" width="5.488" height="33.726"/>
				<rect x="300.483" y="191.062" style="fill:#F0F0F0;" width="2.744" height="33.726"/>
				<rect x="281.442" y="192.671" style="fill:#F5F5F5;" width="8.233" height="32.117"/>
				<rect x="237.871" y="190.243" style="fill:#EBEBEB;" width="5.32" height="34.544"/>
				<rect x="233.755" y="190.243" style="fill:#E6E6E6;" width="4.116" height="34.544"/>
				<rect x="243.191" y="191.062" style="fill:#E0E0E0;" width="8.233" height="33.726"/>
				<rect x="251.424" y="191.062" style="fill:#EBEBEB;" width="4.116" height="33.726"/>
				<rect x="225.522" y="191.062" style="fill:#EBEBEB;" width="5.489" height="33.726"/>
				<rect x="231.011" y="191.062" style="fill:#FAFAFA;" width="2.744" height="33.726"/>
			</g>
			<g>
				<rect x="259.656" y="239.472" style="fill:#E6E6E6;" width="4.116" height="34.544"/>
				<rect x="255.54" y="239.472" style="fill:#E0E0E0;" width="4.116" height="34.544"/>
				<rect x="263.773" y="241.899" style="fill:#E6E6E6;" width="8.233" height="32.117"/>
				<rect x="276.122" y="239.472" style="fill:#F0F0F0;" width="5.32" height="34.544"/>
				<rect x="272.006" y="239.472" style="fill:#EBEBEB;" width="4.116" height="34.544"/>
				<rect x="307.343" y="239.472" style="fill:#E6E6E6;" width="5.32" height="34.544"/>
				<rect x="303.227" y="239.472" style="fill:#EBEBEB;" width="4.116" height="34.544"/>
				<rect x="289.674" y="239.472" style="fill:#E6E6E6;" width="5.32" height="34.544"/>
				<rect x="285.558" y="239.472" style="fill:#E0E0E0;" width="4.116" height="34.544"/>
				<rect x="312.664" y="240.29" style="fill:#EBEBEB;" width="8.233" height="33.726"/>
				<rect x="320.896" y="240.29" style="fill:#E0E0E0;" width="4.116" height="33.726"/>
				<rect x="294.995" y="240.29" style="fill:#E0E0E0;" width="5.488" height="33.726"/>
				<rect x="300.483" y="240.29" style="fill:#F0F0F0;" width="2.744" height="33.726"/>
				<rect x="281.442" y="241.899" style="fill:#F5F5F5;" width="8.233" height="32.117"/>
				<rect x="237.871" y="239.472" style="fill:#EBEBEB;" width="5.32" height="34.544"/>
				<rect x="233.755" y="239.472" style="fill:#E6E6E6;" width="4.116" height="34.544"/>
				<rect x="243.191" y="240.29" style="fill:#E0E0E0;" width="8.233" height="33.726"/>
				<rect x="251.424" y="240.29" style="fill:#EBEBEB;" width="4.116" height="33.726"/>
				<rect x="225.522" y="240.29" style="fill:#EBEBEB;" width="5.489" height="33.726"/>
				<rect x="231.011" y="240.29" style="fill:#FAFAFA;" width="2.744" height="33.726"/>
			</g>
			<g>
				
					<rect x="286.762" y="288.7" transform="matrix(-1 -1.224647e-16 1.224647e-16 -1 577.6402 611.944)" style="fill:#E6E6E6;" width="4.116" height="34.544"/>
				
					<rect x="290.878" y="288.7" transform="matrix(-1 -1.224647e-16 1.224647e-16 -1 585.8729 611.944)" style="fill:#E0E0E0;" width="4.116" height="34.544"/>
				
					<rect x="278.529" y="288.7" transform="matrix(-1 -1.224647e-16 1.224647e-16 -1 565.2911 609.5163)" style="fill:#E6E6E6;" width="8.233" height="32.117"/>
				
					<rect x="269.093" y="288.7" transform="matrix(-1 -1.224647e-16 1.224647e-16 -1 543.5055 611.944)" style="fill:#F0F0F0;" width="5.32" height="34.544"/>
				
					<rect x="274.413" y="288.7" transform="matrix(-1 -1.224647e-16 1.224647e-16 -1 552.9418 611.944)" style="fill:#EBEBEB;" width="4.116" height="34.544"/>
				
					<rect x="237.871" y="288.7" transform="matrix(-1 -1.224647e-16 1.224647e-16 -1 481.0625 611.944)" style="fill:#E6E6E6;" width="5.32" height="34.544"/>
				
					<rect x="243.191" y="288.7" transform="matrix(-1 -1.224647e-16 1.224647e-16 -1 490.4988 611.944)" style="fill:#EBEBEB;" width="4.116" height="34.544"/>
				
					<rect x="255.54" y="288.7" transform="matrix(-1 -1.224647e-16 1.224647e-16 -1 516.4003 611.944)" style="fill:#E6E6E6;" width="5.32" height="34.544"/>
				
					<rect x="260.86" y="288.7" transform="matrix(-1 -1.224647e-16 1.224647e-16 -1 525.8366 611.944)" style="fill:#E0E0E0;" width="4.116" height="34.544"/>
				
					<rect x="229.639" y="288.7" transform="matrix(-1 -1.224647e-16 1.224647e-16 -1 467.5097 611.1257)" style="fill:#EBEBEB;" width="8.233" height="33.726"/>
				
					<rect x="225.522" y="288.7" transform="matrix(-1 -1.224647e-16 1.224647e-16 -1 455.1606 611.1257)" style="fill:#E0E0E0;" width="4.116" height="33.726"/>
				
					<rect x="250.052" y="288.7" transform="matrix(-1 -1.224647e-16 1.224647e-16 -1 505.5917 611.1257)" style="fill:#E0E0E0;" width="5.489" height="33.726"/>
				
					<rect x="247.307" y="288.7" transform="matrix(-1 -1.224647e-16 1.224647e-16 -1 497.359 611.1257)" style="fill:#F0F0F0;" width="2.744" height="33.726"/>
				
					<rect x="260.86" y="288.7" transform="matrix(-1 -1.224647e-16 1.224647e-16 -1 529.9528 609.5163)" style="fill:#F5F5F5;" width="8.233" height="32.117"/>
				
					<rect x="307.344" y="288.7" transform="matrix(-1 -1.224647e-16 1.224647e-16 -1 620.0074 611.944)" style="fill:#EBEBEB;" width="5.32" height="34.544"/>
				
					<rect x="312.664" y="288.7" transform="matrix(-1 -1.224647e-16 1.224647e-16 -1 629.4437 611.944)" style="fill:#E6E6E6;" width="4.116" height="34.544"/>
				
					<rect x="299.111" y="288.7" transform="matrix(-1 -1.224647e-16 1.224647e-16 -1 606.4547 611.1257)" style="fill:#E0E0E0;" width="8.233" height="33.726"/>
				
					<rect x="294.995" y="288.7" transform="matrix(-1 -1.224647e-16 1.224647e-16 -1 594.1056 611.1257)" style="fill:#EBEBEB;" width="4.116" height="33.726"/>
				
					<rect x="319.524" y="288.7" transform="matrix(-1 -1.224647e-16 1.224647e-16 -1 644.5365 611.1257)" style="fill:#EBEBEB;" width="5.489" height="33.726"/>
				
					<rect x="316.78" y="288.7" transform="matrix(-1 -1.224647e-16 1.224647e-16 -1 636.3038 611.1257)" style="fill:#FAFAFA;" width="2.744" height="33.726"/>
			</g>
			<g>
				<rect x="259.656" y="337.928" style="fill:#E6E6E6;" width="4.116" height="34.544"/>
				<rect x="255.54" y="337.928" style="fill:#E0E0E0;" width="4.116" height="34.544"/>
				<rect x="263.773" y="337.928" style="fill:#E6E6E6;" width="8.233" height="32.117"/>
				<rect x="276.122" y="337.928" style="fill:#F0F0F0;" width="5.32" height="34.544"/>
				<rect x="272.006" y="337.928" style="fill:#EBEBEB;" width="4.116" height="34.544"/>
				<rect x="307.343" y="337.928" style="fill:#E6E6E6;" width="5.32" height="34.544"/>
				<rect x="303.227" y="337.928" style="fill:#EBEBEB;" width="4.116" height="34.544"/>
				<rect x="289.674" y="337.928" style="fill:#E6E6E6;" width="5.32" height="34.544"/>
				<rect x="285.558" y="337.928" style="fill:#E0E0E0;" width="4.116" height="34.544"/>
				<rect x="312.664" y="337.928" style="fill:#EBEBEB;" width="8.233" height="33.726"/>
				<rect x="320.896" y="337.928" style="fill:#E0E0E0;" width="4.116" height="33.726"/>
				<rect x="294.995" y="337.928" style="fill:#E0E0E0;" width="5.488" height="33.726"/>
				<rect x="300.483" y="337.928" style="fill:#F0F0F0;" width="2.744" height="33.726"/>
				<rect x="281.442" y="337.928" style="fill:#F5F5F5;" width="8.233" height="32.117"/>
				<rect x="237.871" y="337.928" style="fill:#EBEBEB;" width="5.32" height="34.544"/>
				<rect x="233.755" y="337.928" style="fill:#E6E6E6;" width="4.116" height="34.544"/>
				<rect x="243.191" y="337.928" style="fill:#E0E0E0;" width="8.233" height="33.726"/>
				<rect x="251.424" y="337.928" style="fill:#EBEBEB;" width="4.116" height="33.726"/>
				<rect x="225.522" y="337.928" style="fill:#EBEBEB;" width="5.489" height="33.726"/>
				<rect x="231.011" y="337.928" style="fill:#FAFAFA;" width="2.744" height="33.726"/>
			</g>
		</g>
		<g>
			<rect x="237.787" y="83.386" style="fill:#E6E6E6;" width="72.285" height="23.927"/>
		</g>
		<g>
			<rect x="237.931" y="55.203" style="fill:#E6E6E6;" width="1" height="28.184"/>
		</g>
		<g>
			<rect x="308.961" y="54.953" style="fill:#E6E6E6;" width="1" height="28.434"/>
		</g>
	</g>
</g>
<g id="Background_Simple" style="display:none;">
	<g style="display:inline;">
		<path style="fill:#407BFF;" d="M434.049,135.93c31.25,61.913,23.44,120.839-33.699,155.071
			c-39.063,23.402-82.486-13.748-107.48-2.391c-30.544,13.879-11.164,73.39-52.83,98.769
			C193.109,415.962,126.757,401.705,87.695,362C44.017,317.602,50.26,242.297,75.976,216.353
			c24.668-24.886,95.67-11.423,126.455-28.158c29.089-15.813,27.19-64.544,75.367-103.896
			C309.66,58.273,392.355,53.325,434.049,135.93z"/>
		<path style="opacity:0.9;fill:#FFFFFF;" d="M434.049,135.93c31.25,61.913,23.44,120.839-33.699,155.071
			c-39.063,23.402-82.486-13.748-107.48-2.391c-30.544,13.879-11.164,73.39-52.83,98.769
			C193.109,415.962,126.757,401.705,87.695,362C44.017,317.602,50.26,242.297,75.976,216.353
			c24.668-24.886,95.67-11.423,126.455-28.158c29.089-15.813,27.19-64.544,75.367-103.896
			C309.66,58.273,392.355,53.325,434.049,135.93z"/>
	</g>
</g>
<g id="Shadow">
	<ellipse id="_x3C_Path_x3E__1_" style="fill:#F5F5F5;" cx="245.178" cy="412.391" rx="193.889" ry="11.323"/>
</g>
<g id="Character_2">
	<g>
		<g>
			<path style="fill:#263238;" d="M415.535,340.743h5.61l9.63,65.397c0.247,1.676-1.052,2.338-2.746,2.338l0,0
				c-1.377,0-2.545-0.167-2.746-1.529L415.535,340.743z"/>
			<path style="opacity:0.2;fill:#FFFFFF;" d="M415.535,340.743h5.61l9.63,65.397c0.247,1.676-1.052,2.338-2.746,2.338l0,0
				c-1.377,0-2.545-0.167-2.746-1.529L415.535,340.743z"/>
			<path style="fill:#263238;" d="M397.763,340.743h5.61l4.828,65.574c0.119,1.621-1.164,2.161-2.79,2.161l0,0
				c-1.465,0-2.682-0.289-2.79-1.75L397.763,340.743z"/>
			<path style="opacity:0.2;fill:#FFFFFF;" d="M397.763,340.743h5.61l4.828,65.574c0.119,1.621-1.164,2.161-2.79,2.161l0,0
				c-1.465,0-2.682-0.289-2.79-1.75L397.763,340.743z"/>
			<path style="fill:#263238;" d="M384.46,340.743h-5.61l-4.828,65.574c-0.12,1.621,1.164,2.161,2.79,2.161l0,0
				c1.465,0,2.682-0.289,2.79-1.75L384.46,340.743z"/>
			<path style="opacity:0.2;fill:#FFFFFF;" d="M384.46,340.743h-5.61l-4.828,65.574c-0.12,1.621,1.164,2.161,2.79,2.161l0,0
				c1.465,0,2.682-0.289,2.79-1.75L384.46,340.743z"/>
			<path style="fill:#263238;" d="M366.688,340.743h-5.61l-9.63,65.397c-0.247,1.676,1.052,2.338,2.746,2.338l0,0
				c1.376,0,2.545-0.167,2.745-1.529L366.688,340.743z"/>
			<path style="opacity:0.2;fill:#FFFFFF;" d="M366.688,340.743h-5.61l-9.63,65.397c-0.247,1.676,1.052,2.338,2.746,2.338l0,0
				c1.376,0,2.545-0.167,2.745-1.529L366.688,340.743z"/>
			<path style="fill:#263238;" d="M406.137,265.274l-23.381,71.313h51.144l8.836-75.139h-31.318
				C409.015,261.449,406.885,262.992,406.137,265.274z"/>
			<path style="opacity:0.2;fill:#FFFFFF;" d="M406.137,265.274l-23.381,71.313h51.144l8.836-75.139h-31.318
				C409.015,261.449,406.885,262.992,406.137,265.274z"/>
			<g>
				<path style="fill:#263238;" d="M398.134,330.875h-50.651c-2.339,0-4.235,1.896-4.235,4.236v2.954
					c0,2.339,1.896,4.235,4.235,4.235h50.651V330.875z"/>
				<path style="opacity:0.1;fill:#FFFFFF;" d="M398.134,330.875h-50.651c-2.339,0-4.235,1.896-4.235,4.236v2.954
					c0,2.339,1.896,4.235,4.235,4.235h50.651V330.875z"/>
			</g>
			<g>
				<path style="fill:#263238;" d="M438.468,265.622l-6.597,57.287c-0.523,4.539-4.366,7.965-8.935,7.965h-35.293
					c-2.339,0-4.236,1.896-4.236,4.236v2.954c0,2.339,1.896,4.235,4.236,4.235h42.736c4.625,0,8.496-3.507,8.951-8.109l7.193-72.742
					h-3.373C440.755,261.449,438.742,263.244,438.468,265.622z"/>
				<path style="opacity:0.3;fill:#FFFFFF;" d="M438.468,265.622l-6.597,57.287c-0.523,4.539-4.366,7.965-8.935,7.965h-35.293
					c-2.339,0-4.236,1.896-4.236,4.236v2.954c0,2.339,1.896,4.235,4.236,4.235h42.736c4.625,0,8.496-3.507,8.951-8.109l7.193-72.742
					h-3.373C440.755,261.449,438.742,263.244,438.468,265.622z"/>
			</g>
		</g>
		<g>
			<g>
				<g>
					<polygon style="fill:#FF8B7B;" points="356.271,386.125 356.987,399.516 349.502,400.091 347.627,387.378 					"/>
					<g>
						<path style="fill:#407BFF;" d="M346.264,400.836c-0.971,0.062-1.985-0.053-2.333-0.45c-0.182-0.233-0.197-0.556-0.037-0.805
							c0.117-0.223,0.316-0.391,0.555-0.47c1.281-0.441,4.103,0.943,4.227,1.004c0.07,0.035,0.111,0.109,0.102,0.187
							c-0.01,0.077-0.065,0.14-0.14,0.161C347.859,400.657,347.065,400.782,346.264,400.836z M344.927,399.396
							c-0.12,0.005-0.238,0.029-0.351,0.068c-0.153,0.036-0.28,0.14-0.347,0.282c-0.123,0.239-0.067,0.347-0.011,0.407
							c0.394,0.485,2.364,0.373,3.806,0.102C347.055,399.775,346.004,399.484,344.927,399.396z"/>
						<path style="fill:#407BFF;" d="M348.609,400.463c-0.025,0.009-0.053,0.008-0.078-0.002c-0.959-0.355-2.943-1.929-2.832-2.818
							c0.006-0.213,0.148-0.481,0.655-0.564c0.369-0.063,0.748,0.028,1.049,0.251c1.046,0.755,1.387,2.847,1.404,2.944
							c0.009,0.066-0.018,0.133-0.072,0.173C348.697,400.468,348.652,400.474,348.609,400.463z M346.5,397.422l-0.107-0.003
							c-0.331,0.049-0.344,0.184-0.355,0.233c-0.014,0.533,1.299,1.779,2.303,2.29c-0.148-0.879-0.563-1.692-1.188-2.328
							C346.967,397.473,346.734,397.405,346.5,397.422L346.5,397.422z"/>
						<path style="fill:#263238;" d="M349.366,399.321l8.522-0.538c0.321-0.02,0.614,0.185,0.704,0.493l1.979,6.836
							c0.18,0.605-0.165,1.241-0.77,1.421c-0.078,0.023-0.158,0.038-0.238,0.044c-3.075,0.141-5.818,0.145-9.642,0.392
							c-4.513,0.287-3.334,0.754-8.635,1.165c-3.194,0.244-4.009-3.353-2.665-3.617c6.155-1.173,6.681-3.087,8.934-5.459
							C348.048,399.598,348.693,399.336,349.366,399.321z"/>
					</g>
					<polygon style="opacity:0.2;fill:#263238;" points="347.628,387.378 348.563,393.719 356.646,393.132 356.271,386.126 
						356.271,386.125 					"/>
				</g>
				<g>
					<path style="fill:#407BFF;" d="M387.506,302.565c0,0-42.26,6.158-47.93,20.016c-5.669,13.858,6.614,65.649,6.614,65.649
						l11.562-0.945c0,0-0.088-31.854-2.428-55.571l32.182-1.575l29.547-30.094L387.506,302.565z"/>
					<path style="opacity:0.5;" d="M387.506,302.565c0,0-42.26,6.158-47.93,20.016c-5.669,13.858,6.614,65.649,6.614,65.649
						l11.562-0.945c0,0-0.088-31.854-2.428-55.571l32.182-1.575l29.547-30.094L387.506,302.565z"/>
				</g>
				<polygon style="fill:#407BFF;" points="345.404,387.562 358.481,386.125 358.481,389.718 346.122,390.795 				"/>
			</g>
			<g>
				<g>
					<polygon style="fill:#FF8B7B;" points="384.993,387.628 385.709,401.018 378.224,401.594 376.349,388.881 					"/>
					<g>
						<path style="fill:#407BFF;" d="M374.985,402.339c-0.971,0.061-1.985-0.053-2.333-0.45c-0.182-0.233-0.197-0.556-0.037-0.805
							c0.117-0.223,0.316-0.391,0.555-0.47c1.281-0.441,4.103,0.943,4.227,1.004c0.07,0.035,0.111,0.109,0.102,0.187
							c-0.01,0.077-0.065,0.14-0.14,0.161C376.581,402.16,375.786,402.285,374.985,402.339z M373.648,400.899
							c-0.12,0.005-0.238,0.029-0.351,0.068c-0.153,0.036-0.28,0.14-0.347,0.281c-0.123,0.239-0.067,0.347-0.011,0.407
							c0.394,0.485,2.364,0.373,3.806,0.102C375.776,401.277,374.725,400.987,373.648,400.899z"/>
						<path style="fill:#407BFF;" d="M377.331,401.966c-0.025,0.009-0.053,0.008-0.078-0.002c-0.959-0.355-2.943-1.929-2.832-2.818
							c0.006-0.213,0.149-0.481,0.655-0.564c0.369-0.063,0.748,0.028,1.049,0.251c1.046,0.754,1.387,2.847,1.404,2.944
							c0.009,0.066-0.019,0.132-0.072,0.172C377.418,401.971,377.373,401.977,377.331,401.966z M375.222,398.925l-0.107-0.003
							c-0.331,0.049-0.344,0.185-0.355,0.233c-0.014,0.533,1.299,1.779,2.303,2.29c-0.148-0.879-0.563-1.692-1.188-2.328
							C375.688,398.976,375.456,398.908,375.222,398.925L375.222,398.925z"/>
						<path style="fill:#263238;" d="M378.088,400.823l8.522-0.538c0.321-0.021,0.614,0.185,0.704,0.493l1.979,6.836
							c0.18,0.605-0.165,1.241-0.77,1.421c-0.078,0.023-0.158,0.038-0.238,0.044c-3.075,0.141-5.818,0.145-9.642,0.392
							c-4.513,0.287-3.334,0.754-8.635,1.165c-3.194,0.244-4.009-3.353-2.665-3.617c6.155-1.173,6.681-3.087,8.934-5.459
							C376.769,401.101,377.414,400.838,378.088,400.823z"/>
					</g>
					<polygon style="opacity:0.2;fill:#263238;" points="385.391,395.065 384.993,387.629 384.993,387.628 376.349,388.881 
						377.341,395.607 					"/>
				</g>
				<g>
					<path style="fill:#407BFF;" d="M428.076,301.935c0,0,8.818,28.66-8.818,29.29c-17.637,0.63-40.943,0-40.943,0
						s8.217,22.6,8.246,58.895l-11.081,0.945c0,0-18.632-61.387-14.172-69.603c5.984-11.023,47.557-19.527,47.557-19.527H428.076z"
						/>
					<path style="opacity:0.4;" d="M428.076,301.935c0,0,8.818,28.66-8.818,29.29c-17.637,0.63-40.943,0-40.943,0
						s8.217,22.6,8.246,58.895l-11.081,0.945c0,0-18.632-61.387-14.172-69.603c5.984-11.023,47.557-19.527,47.557-19.527H428.076z"
						/>
				</g>
				<polygon style="fill:#407BFF;" points="374.189,389.571 375.079,393.107 387.454,392.07 387.454,388.661 				"/>
			</g>
			<g>
				<g>
					<path style="fill:#407BFF;" d="M400.35,233.41c0,0-10.781-2.355-15.747,14.015c-2.955,9.741-2.464,23.082-2.464,23.082
						l-17.832,0.353l-2.205,7.244c0,0,23.001,0.311,28.985-0.476C397.071,276.84,400.35,233.41,400.35,233.41z"/>
				</g>
				<g>
					<path style="fill:#407BFF;" d="M388.393,302.286c0,0-5.669-71.214,11.653-71.214c17.322,0,18.897,0,24.881,0
						s9.448,8.189,8.189,22.991s-2.52,51.336-2.52,51.336L388.393,302.286z"/>
					<path style="opacity:0.2;fill:#FFFFFF;" d="M388.393,302.286c0,0-5.669-71.214,11.653-71.214c17.322,0,18.897,0,24.881,0
						s9.448,8.189,8.189,22.991s-2.52,51.336-2.52,51.336L388.393,302.286z"/>
				</g>
				<path style="fill:#CE7A63;" d="M361.277,269.302l2.042,0.259c0.885,0.112,1.67,0.624,2.129,1.389l2.817,4.694
					c0.453,0.755,0.586,1.66,0.368,2.514l-0.451,1.77c-0.499,1.956-2.62,3.011-4.481,2.228l-3.289-1.385
					c-1.209-0.509-2.158-1.49-2.626-2.715l-0.814-2.127c-0.284-0.744-0.299-1.564-0.042-2.318l0.692-2.029
					C358.144,270.052,359.672,269.098,361.277,269.302z"/>
				<g>
					<g>
						<polygon style="fill:#407BFF;" points="362.741,270.559 368.882,284.732 378.331,288.353 390.928,282.055 390.86,267.726 
							384.372,266.78 379,269.409 376.092,272.212 372.268,267.37 367.308,266.78 364.119,268.197 						"/>
						<polygon style="opacity:0.1;" points="362.741,270.559 368.882,284.732 378.331,288.353 390.928,282.055 390.86,267.726 
							384.372,266.78 379,269.409 376.092,272.212 372.268,267.37 367.308,266.78 364.119,268.197 						"/>
					</g>
					<polygon style="opacity:0.2;" points="380.074,287.482 378.113,270.264 376.092,272.212 373.452,268.869 376.643,287.706 
						378.331,288.353 					"/>
					<g>
						<path style="fill:#407BFF;" d="M362.268,268.197c0,0,8.661-8.818,14.015,2.362c0,0,8.997-10.547,14.577-2.833l-0.719,2.833
							c0,0-2.903-6.968-14.049,3.366c0,0-5.635-10.925-13.351-3.366L362.268,268.197z"/>
						<path style="opacity:0.8;fill:#FFFFFF;" d="M362.268,268.197c0,0,8.661-8.818,14.015,2.362c0,0,8.997-10.547,14.577-2.833
							l-0.719,2.833c0,0-2.903-6.968-14.049,3.366c0,0-5.635-10.925-13.351-3.366L362.268,268.197z"/>
					</g>
				</g>
				<path style="fill:#CE7A63;" d="M407.172,271.813h-9.511l-2.496-2.322c-1.063-0.988-2.537-1.402-3.959-1.111l-1.152,0.236
					c-0.779,0.16-1.586,0.11-2.339-0.145l0,0c-1.82-0.615-3.83-0.003-4.999,1.522l-0.178,0.232
					c-1.162,1.516-1.237,3.601-0.187,5.197l2.397,3.643c1.051,1.597,2.997,2.353,4.85,1.884l6.707-1.697l11.456,1.535
					L407.172,271.813z"/>
				<g>
					<path style="fill:#407BFF;" d="M423.352,248.394c-0.739-4.472-3.779-17.322,4.409-17.322s9.527,12.598,10,20.393
						c0.472,7.795,1.915,31.612-3.53,31.632c-5.446,0.02-28.83-1.87-28.83-1.87l0.236-10.393l20.55-1.653
						C426.186,269.18,424.288,254.064,423.352,248.394z"/>
					<path style="opacity:0.3;fill:#FFFFFF;" d="M423.352,248.394c-0.739-4.472-3.779-17.322,4.409-17.322s9.527,12.598,10,20.393
						c0.472,7.795,1.915,31.612-3.53,31.632c-5.446,0.02-28.83-1.87-28.83-1.87l0.236-10.393l20.55-1.653
						C426.186,269.18,424.288,254.064,423.352,248.394z"/>
				</g>
				<g>
					<path style="fill:#CE7A63;" d="M401.61,231.452l0.147,0.64l5.207,3.303l10.096-3.812l0.126-0.096
						c-3.896-3.942-2.436-11.169-1.138-17.001l-4.848,4.023l-6.608,5.522c0.204,0.885,0.352,1.782,0.443,2.685
						C405.345,229.572,404.565,230.547,401.61,231.452z"/>
					<path style="fill:#263238;" d="M395.612,202.847c0,0-5.628,3.786-4.24,6.089c2.249,3.731,5.431-2.536,5.431-2.536
						L395.612,202.847z"/>
					<path style="opacity:0.2;enable-background:new    ;" d="M413.573,223.826c0.175-1.158,0.208-2.333,0.1-3.499l-8.805,5.126
						c0.067,0.419,0.125,0.84,0.168,1.263c0.121,1.118,0.076,1.947-0.201,2.598C408.074,228.986,412.612,227.04,413.573,223.826z"/>
					<path style="fill:#CE7A63;" d="M415.555,205.543c1.006,7.936,2.012,12.512-1.207,17.38c-4.767,7.312-15.016,5.783-18.325-1.639
						c-3.017-6.668-4.083-18.526,2.927-23.274c4.761-3.369,11.352-2.242,14.721,2.519
						C414.72,202.01,415.369,203.737,415.555,205.543z"/>
					<path style="fill:#263238;" d="M404.09,212.392c0.121,0.644-0.121,1.227-0.533,1.317c-0.413,0.091-0.845-0.352-1.006-1.006
						c-0.161-0.654,0.121-1.227,0.533-1.318C403.496,211.296,403.969,211.758,404.09,212.392z"/>
					<path style="fill:#263238;" d="M396.647,213.81c0.121,0.634-0.121,1.227-0.533,1.308c-0.412,0.08-0.845-0.352-1.006-1.006
						c-0.161-0.654,0.121-1.227,0.533-1.318C396.053,212.704,396.526,213.167,396.647,213.81z"/>
					<path style="fill:#BA4D3C;" d="M399.564,211.708c-0.35,1.81-0.903,3.575-1.649,5.26c0.883,0.396,1.893,0.396,2.776,0
						L399.564,211.708z"/>
					<path style="fill:#263238;" d="M405.744,207.704c0.061-0.005,0.12-0.026,0.171-0.06c0.168-0.118,0.209-0.35,0.091-0.518
						c-0.004-0.005-0.007-0.01-0.011-0.015c-0.686-0.989-1.814-1.579-3.017-1.579c-0.205,0.015-0.359,0.194-0.343,0.399
						c0,0.004,0.001,0.009,0.001,0.013c0.016,0.207,0.195,0.364,0.402,0.352c0.958-0.005,1.855,0.466,2.394,1.257
						C405.502,207.655,405.62,207.712,405.744,207.704z"/>
					<path style="fill:#263238;" d="M393.179,209.344c0.125-0.013,0.236-0.084,0.302-0.191c0.462-0.867,1.303-1.466,2.273-1.619
						c0.211-0.016,0.368-0.2,0.352-0.41c0-0.001,0-0.001,0-0.002c-0.021-0.205-0.197-0.358-0.402-0.352l0,0
						c-1.224,0.167-2.293,0.917-2.866,2.012c-0.108,0.181-0.049,0.414,0.131,0.523C393.034,209.334,393.107,209.348,393.179,209.344
						z"/>
					<path style="fill:#263238;" d="M405.294,218.759c0.301-0.299,0.575-0.625,0.818-0.974c0.071-0.099,0.048-0.237-0.051-0.309
						c-0.002-0.001-0.004-0.003-0.006-0.004c-0.098-0.069-0.235-0.047-0.306,0.05c-1.065,1.583-2.816,2.57-4.722,2.66
						c-0.124-0.006-0.229,0.09-0.235,0.213c-0.006,0.124,0.09,0.229,0.213,0.235C402.624,220.585,404.161,219.914,405.294,218.759z"
						/>
					<path style="fill:#263238;" d="M412.328,193.967c0,0,1.627-9.005-2.188-8.633C406.325,185.707,412.328,193.967,412.328,193.967
						z"/>
					<g>
						<path style="fill:#263238;" d="M407.216,208.816c-0.691-0.842-1.726-1.392-2.898-1.392c-1.936,0-3.516,1.475-3.721,3.357
							l-2.051,0.5c-0.538-1.421-1.902-2.439-3.509-2.439c-2.074,0-3.762,1.688-3.762,3.762c0,2.074,1.688,3.762,3.762,3.762
							c2.074,0,3.762-1.688,3.762-3.762c0-0.117-0.024-0.227-0.035-0.341l1.854-0.452c0.3,1.776,1.839,3.137,3.699,3.137
							c2.074,0,3.762-1.688,3.762-3.762c0-0.535-0.116-1.042-0.318-1.504c3.789-1.478,9.151-3.132,10.167-2.488l0.537-0.851
							C416.693,205.224,409.4,207.956,407.216,208.816z M395.037,215.361c-1.52,0-2.757-1.237-2.757-2.756
							c0-1.52,1.237-2.757,2.757-2.757c1.52,0,2.757,1.237,2.757,2.757C397.794,214.124,396.557,215.361,395.037,215.361z
							 M404.318,213.942c-1.52,0-2.757-1.237-2.757-2.757c0-1.52,1.237-2.756,2.757-2.756s2.757,1.237,2.757,2.756
							C407.075,212.706,405.838,213.942,404.318,213.942z"/>
						<path style="opacity:0.2;fill:#FFFFFF;" d="M407.216,208.816c-0.691-0.842-1.726-1.392-2.898-1.392
							c-1.936,0-3.516,1.475-3.721,3.357l-2.051,0.5c-0.538-1.421-1.902-2.439-3.509-2.439c-2.074,0-3.762,1.688-3.762,3.762
							c0,2.074,1.688,3.762,3.762,3.762c2.074,0,3.762-1.688,3.762-3.762c0-0.117-0.024-0.227-0.035-0.341l1.854-0.452
							c0.3,1.776,1.839,3.137,3.699,3.137c2.074,0,3.762-1.688,3.762-3.762c0-0.535-0.116-1.042-0.318-1.504
							c3.789-1.478,9.151-3.132,10.167-2.488l0.537-0.851C416.693,205.224,409.4,207.956,407.216,208.816z M395.037,215.361
							c-1.52,0-2.757-1.237-2.757-2.756c0-1.52,1.237-2.757,2.757-2.757c1.52,0,2.757,1.237,2.757,2.757
							C397.794,214.124,396.557,215.361,395.037,215.361z M404.318,213.942c-1.52,0-2.757-1.237-2.757-2.757
							c0-1.52,1.237-2.756,2.757-2.756s2.757,1.237,2.757,2.756C407.075,212.706,405.838,213.942,404.318,213.942z"/>
					</g>
					<path style="fill:#263238;" d="M405.115,199.416c0,0-12.564,8.884-15.246,5.197c-2.682-3.688,2.914-4.023,2.914-4.023
						s-4.758-3.353-2.244-6.035c2.514-2.682,5.568,0,5.568,0s11.542-10.058,15.475-2.514c0,0,8.746-1.741,9.357,5.332
						c0.611,7.073,0,8.16,0,8.16s4.634,0.572,3.964,2.173c-0.671,1.601-3.964,0.352-3.964,0.352s5.473,4.145,2.958,4.708
						c-2.514,0.564-8.911-0.788-10.49-6.147c-1.579-5.359,0.264-6.09,0.264-6.09S398.648,206.792,405.115,199.416z"/>
					<path style="fill:#CE7A63;" d="M419.931,212.221c-0.436,1.928-1.532,3.642-3.098,4.848c-2.012,1.478-3.53-0.312-3.42-2.836
						c0.101-2.273,1.267-5.783,3.49-6.246C419.126,207.524,420.474,209.797,419.931,212.221z"/>
				</g>
				<path style="fill:#407BFF;" d="M402.702,231.072c0,0-0.948,2.601,4.354,2.68c5.301,0.079,10.21-3.149,10.21-3.149
					s2.133-0.714,2.785,0.47c0,0-5.463,5.278-12.995,5.121c-7.533-0.158-6.366-5.218-6.366-5.218S402.062,230.602,402.702,231.072z"
					/>
			</g>
		</g>
	</g>
</g>
<g id="Bookshelf">
	<g>
		<g>
			<g>
				<rect x="107.591" y="103.814" style="fill:#407BFF;" width="122.028" height="307.446"/>
				<rect x="107.591" y="103.814" style="opacity:0.2;fill:#FFFFFF;" width="122.028" height="307.446"/>
			</g>
			<g>
				<path style="fill:#407BFF;" d="M229.62,101.117v312.839h22.483V101.117H229.62z"/>
				<path style="opacity:0.3;fill:#FFFFFF;" d="M229.62,101.117v312.839h22.483V101.117H229.62z"/>
			</g>
			<g>
				<path style="fill:#407BFF;" d="M86.187,101.117v312.839h22.483V101.117H86.187z"/>
				<path style="opacity:0.4;fill:#FFFFFF;" d="M86.187,101.117v312.839h22.483V101.117H86.187z"/>
			</g>
			<g>
				<path style="fill:#407BFF;" d="M82.369,101.117v312.839h149.947V101.117H82.369z M226.923,106.511v56.095H87.763v-56.095
					H226.923z M87.763,285.584v-56.095h139.16v56.095H87.763z M226.923,290.978v56.095H87.763v-56.095H226.923z M87.763,224.095V168
					h139.16v56.095H87.763z M87.763,408.563v-56.095h139.16v56.095H87.763z"/>
				<path style="opacity:0.6;fill:#FFFFFF;" d="M82.369,101.117v312.839h149.947V101.117H82.369z M226.923,106.511v56.095H87.763
					v-56.095H226.923z M87.763,285.584v-56.095h139.16v56.095H87.763z M226.923,290.978v56.095H87.763v-56.095H226.923z
					 M87.763,224.095V168h139.16v56.095H87.763z M87.763,408.563v-56.095h139.16v56.095H87.763z"/>
			</g>
		</g>
		<g>
			<g>
				<g>
					
						<rect x="175.807" y="119.08" transform="matrix(-1 -1.224647e-16 1.224647e-16 -1 356.7997 281.6859)" style="fill:#407BFF;" width="5.187" height="43.526"/>
					
						<rect x="175.807" y="119.08" transform="matrix(-1 -1.224647e-16 1.224647e-16 -1 356.7997 281.6859)" style="opacity:0.1;fill:#FFFFFF;" width="5.187" height="43.526"/>
					
						<rect x="180.993" y="119.08" transform="matrix(-1 -1.224647e-16 1.224647e-16 -1 367.1731 281.6859)" style="fill:#407BFF;" width="5.187" height="43.526"/>
					
						<rect x="180.993" y="119.08" transform="matrix(-1 -1.224647e-16 1.224647e-16 -1 367.1731 281.6859)" style="opacity:0.4;fill:#FFFFFF;" width="5.187" height="43.526"/>
				</g>
				<g>
					
						<rect x="165.433" y="122.139" transform="matrix(-1 -1.224647e-16 1.224647e-16 -1 341.2395 284.7448)" style="fill:#407BFF;" width="10.373" height="40.467"/>
					
						<rect x="165.433" y="122.139" transform="matrix(-1 -1.224647e-16 1.224647e-16 -1 341.2395 284.7448)" style="opacity:0.6;fill:#FFFFFF;" width="10.373" height="40.467"/>
				</g>
				<g>
					
						<rect x="153.543" y="119.08" transform="matrix(-1 -1.224647e-16 1.224647e-16 -1 313.7894 281.6859)" style="fill:#407BFF;" width="6.703" height="43.526"/>
					<g>
						
							<rect x="160.246" y="119.08" transform="matrix(-1 -1.224647e-16 1.224647e-16 -1 325.6793 281.6859)" style="fill:#407BFF;" width="5.187" height="43.526"/>
						
							<rect x="160.246" y="119.08" transform="matrix(-1 -1.224647e-16 1.224647e-16 -1 325.6793 281.6859)" style="opacity:0.7;fill:#FFFFFF;" width="5.187" height="43.526"/>
					</g>
				</g>
				<g>
					
						<rect x="114.203" y="119.08" transform="matrix(-1 -1.224647e-16 1.224647e-16 -1 235.11 281.6859)" style="fill:#407BFF;" width="6.704" height="43.526"/>
					
						<rect x="114.203" y="119.08" transform="matrix(-1 -1.224647e-16 1.224647e-16 -1 235.11 281.6859)" style="opacity:0.7;fill:#FFFFFF;" width="6.704" height="43.526"/>
					
						<rect x="120.907" y="119.08" transform="matrix(-1 -1.224647e-16 1.224647e-16 -1 247 281.6859)" style="fill:#407BFF;" width="5.186" height="43.526"/>
					
						<rect x="120.907" y="119.08" transform="matrix(-1 -1.224647e-16 1.224647e-16 -1 247 281.6859)" style="opacity:0.6;fill:#FFFFFF;" width="5.186" height="43.526"/>
				</g>
				<g>
					<g>
						
							<rect x="136.466" y="119.08" transform="matrix(-1 -1.224647e-16 1.224647e-16 -1 279.6363 281.6859)" style="fill:#407BFF;" width="6.703" height="43.526"/>
						
							<rect x="136.466" y="119.08" transform="matrix(-1 -1.224647e-16 1.224647e-16 -1 279.6363 281.6859)" style="opacity:0.6;fill:#FFFFFF;" width="6.703" height="43.526"/>
					</g>
					<g>
						
							<rect x="143.17" y="119.08" transform="matrix(-1 -1.224647e-16 1.224647e-16 -1 291.5264 281.6859)" style="fill:#407BFF;" width="5.187" height="43.526"/>
						
							<rect x="143.17" y="119.08" transform="matrix(-1 -1.224647e-16 1.224647e-16 -1 291.5264 281.6859)" style="opacity:0.1;" width="5.187" height="43.526"/>
					</g>
				</g>
				<g>
					
						<rect x="103.83" y="120.111" transform="matrix(-1 -1.224647e-16 1.224647e-16 -1 218.0331 282.7169)" style="fill:#407BFF;" width="10.373" height="42.495"/>
					
						<rect x="103.83" y="120.111" transform="matrix(-1 -1.224647e-16 1.224647e-16 -1 218.0331 282.7169)" style="opacity:0.1;fill:#FFFFFF;" width="10.373" height="42.495"/>
					
						<rect x="98.643" y="120.111" transform="matrix(-1 -1.224647e-16 1.224647e-16 -1 202.4732 282.7169)" style="fill:#407BFF;" width="5.187" height="42.495"/>
					
						<rect x="98.643" y="120.111" transform="matrix(-1 -1.224647e-16 1.224647e-16 -1 202.4732 282.7169)" style="opacity:0.6;fill:#FFFFFF;" width="5.187" height="42.495"/>
				</g>
				<g>
					<g>
						
							<rect x="129.551" y="120.111" transform="matrix(-1 -1.224647e-16 1.224647e-16 -1 266.0173 282.7169)" style="fill:#407BFF;" width="6.916" height="42.495"/>
						
							<rect x="129.551" y="120.111" transform="matrix(-1 -1.224647e-16 1.224647e-16 -1 266.0173 282.7169)" style="opacity:0.1;fill:#FFFFFF;" width="6.916" height="42.495"/>
					</g>
					<g>
						
							<rect x="126.093" y="120.111" transform="matrix(-1 -1.224647e-16 1.224647e-16 -1 255.644 282.7169)" style="fill:#407BFF;" width="3.458" height="42.495"/>
						
							<rect x="126.093" y="120.111" transform="matrix(-1 -1.224647e-16 1.224647e-16 -1 255.644 282.7169)" style="opacity:0.3;fill:#FFFFFF;" width="3.458" height="42.495"/>
					</g>
				</g>
				<g>
					
						<rect x="143.17" y="122.139" transform="matrix(-1 -1.224647e-16 1.224647e-16 -1 296.7128 284.7448)" style="fill:#407BFF;" width="10.373" height="40.467"/>
					
						<rect x="143.17" y="122.139" transform="matrix(-1 -1.224647e-16 1.224647e-16 -1 296.7128 284.7448)" style="opacity:0.1;fill:#FFFFFF;" width="10.373" height="40.467"/>
				</g>
			</g>
			<g>
				
					<rect x="201.74" y="119.08" transform="matrix(-1 -1.224647e-16 1.224647e-16 -1 410.1833 281.6859)" style="fill:#407BFF;" width="6.703" height="43.526"/>
				
					<rect x="201.74" y="119.08" transform="matrix(-1 -1.224647e-16 1.224647e-16 -1 410.1833 281.6859)" style="opacity:0.3;fill:#FFFFFF;" width="6.703" height="43.526"/>
				
					<rect x="208.443" y="119.08" transform="matrix(-1 -1.224647e-16 1.224647e-16 -1 422.0731 281.6859)" style="fill:#407BFF;" width="5.187" height="43.526"/>
				
					<rect x="208.443" y="119.08" transform="matrix(-1 -1.224647e-16 1.224647e-16 -1 422.0731 281.6859)" style="opacity:0.2;fill:#FFFFFF;" width="5.187" height="43.526"/>
			</g>
			<g>
				
					<rect x="191.367" y="120.111" transform="matrix(-1 -1.224647e-16 1.224647e-16 -1 393.1066 282.7169)" style="fill:#407BFF;" width="10.373" height="42.495"/>
				
					<rect x="191.367" y="120.111" transform="matrix(-1 -1.224647e-16 1.224647e-16 -1 393.1066 282.7169)" style="opacity:0.1;fill:#FFFFFF;" width="10.373" height="42.495"/>
				
					<rect x="186.18" y="120.111" transform="matrix(-1 -1.224647e-16 1.224647e-16 -1 377.5464 282.7169)" style="fill:#407BFF;" width="5.187" height="42.495"/>
				
					<rect x="186.18" y="120.111" transform="matrix(-1 -1.224647e-16 1.224647e-16 -1 377.5464 282.7169)" style="opacity:0.6;fill:#FFFFFF;" width="5.187" height="42.495"/>
			</g>
			<g>
				<g>
					
						<rect x="217.087" y="120.111" transform="matrix(-1 -1.224647e-16 1.224647e-16 -1 441.0904 282.7169)" style="fill:#407BFF;" width="6.916" height="42.495"/>
					
						<rect x="217.087" y="120.111" transform="matrix(-1 -1.224647e-16 1.224647e-16 -1 441.0904 282.7169)" style="opacity:0.1;fill:#FFFFFF;" width="6.916" height="42.495"/>
				</g>
				<g>
					
						<rect x="213.63" y="120.111" transform="matrix(-1 -1.224647e-16 1.224647e-16 -1 430.717 282.7169)" style="fill:#407BFF;" width="3.458" height="42.495"/>
					
						<rect x="213.63" y="120.111" transform="matrix(-1 -1.224647e-16 1.224647e-16 -1 430.717 282.7169)" style="opacity:0.6;fill:#FFFFFF;" width="3.458" height="42.495"/>
				</g>
			</g>
		</g>
		<g>
			<g>
				<g>
					<rect x="143.557" y="180.714" style="fill:#407BFF;" width="5.064" height="43.397"/>
					<rect x="143.557" y="180.714" style="opacity:0.1;fill:#FFFFFF;" width="5.064" height="43.397"/>
					<rect x="138.493" y="180.714" style="fill:#407BFF;" width="5.064" height="43.397"/>
					<rect x="138.493" y="180.714" style="opacity:0.4;fill:#FFFFFF;" width="5.064" height="43.397"/>
				</g>
				<g>
					<rect x="148.621" y="183.763" style="fill:#407BFF;" width="10.128" height="40.348"/>
					<rect x="148.621" y="183.763" style="opacity:0.6;fill:#FFFFFF;" width="10.128" height="40.348"/>
				</g>
				<g>
					<rect x="163.813" y="180.714" style="fill:#407BFF;" width="6.544" height="43.397"/>
					<g>
						<rect x="158.749" y="180.714" style="fill:#407BFF;" width="5.064" height="43.397"/>
						<rect x="158.749" y="180.714" style="opacity:0.1;" width="5.064" height="43.397"/>
					</g>
				</g>
				<g>
					<rect x="202.22" y="180.714" style="fill:#407BFF;" width="6.545" height="43.397"/>
					<rect x="202.22" y="180.714" style="opacity:0.1;" width="6.545" height="43.397"/>
					<rect x="197.157" y="180.714" style="fill:#407BFF;" width="5.064" height="43.397"/>
					<rect x="197.157" y="180.714" style="opacity:0.6;fill:#FFFFFF;" width="5.064" height="43.397"/>
				</g>
				<g>
					<g>
						<rect x="180.484" y="180.714" style="fill:#407BFF;" width="6.545" height="43.397"/>
						<rect x="180.484" y="180.714" style="opacity:0.6;fill:#FFFFFF;" width="6.545" height="43.397"/>
					</g>
					<g>
						<rect x="175.421" y="180.714" style="fill:#407BFF;" width="5.064" height="43.397"/>
						<rect x="175.421" y="180.714" style="opacity:0.1;" width="5.064" height="43.397"/>
					</g>
				</g>
				<g>
					<rect x="208.765" y="181.742" style="fill:#407BFF;" width="10.128" height="42.369"/>
					<rect x="208.765" y="181.742" style="opacity:0.1;fill:#FFFFFF;" width="10.128" height="42.369"/>
					<rect x="218.893" y="181.742" style="fill:#407BFF;" width="5.064" height="42.369"/>
					<rect x="218.893" y="181.742" style="opacity:0.6;fill:#FFFFFF;" width="5.064" height="42.369"/>
				</g>
				<g>
					<g>
						<rect x="187.029" y="181.742" style="fill:#407BFF;" width="6.752" height="42.369"/>
						<rect x="187.029" y="181.742" style="opacity:0.1;fill:#FFFFFF;" width="6.752" height="42.369"/>
					</g>
					<g>
						<rect x="193.781" y="181.742" style="fill:#407BFF;" width="3.376" height="42.369"/>
						<rect x="193.781" y="181.742" style="opacity:0.3;fill:#FFFFFF;" width="3.376" height="42.369"/>
					</g>
				</g>
				<g>
					<rect x="170.357" y="183.763" style="fill:#407BFF;" width="10.128" height="40.348"/>
					<rect x="170.357" y="183.763" style="opacity:0.1;fill:#FFFFFF;" width="10.128" height="40.348"/>
				</g>
			</g>
			<g>
				<rect x="116.757" y="180.714" style="fill:#407BFF;" width="6.545" height="43.397"/>
				<rect x="116.757" y="180.714" style="opacity:0.1;fill:#FFFFFF;" width="6.545" height="43.397"/>
				<rect x="111.693" y="180.714" style="fill:#407BFF;" width="5.064" height="43.397"/>
				<rect x="111.693" y="180.714" style="opacity:0.2;fill:#FFFFFF;" width="5.064" height="43.397"/>
			</g>
			<g>
				<rect x="123.302" y="181.742" style="fill:#407BFF;" width="10.128" height="42.369"/>
				<rect x="123.302" y="181.742" style="opacity:0.1;fill:#FFFFFF;" width="10.128" height="42.369"/>
				<rect x="133.43" y="181.742" style="fill:#407BFF;" width="5.064" height="42.369"/>
				<rect x="133.43" y="181.742" style="opacity:0.6;fill:#FFFFFF;" width="5.064" height="42.369"/>
			</g>
			<g>
				<g>
					<rect x="101.566" y="181.742" style="fill:#407BFF;" width="6.752" height="42.369"/>
					<rect x="101.566" y="181.742" style="opacity:0.1;fill:#FFFFFF;" width="6.752" height="42.369"/>
				</g>
				<g>
					<rect x="108.318" y="181.742" style="fill:#407BFF;" width="3.376" height="42.369"/>
					<rect x="108.318" y="181.742" style="opacity:0.6;fill:#FFFFFF;" width="3.376" height="42.369"/>
				</g>
			</g>
		</g>
		<g>
			<g>
				<g>
					
						<rect x="176.868" y="304.103" transform="matrix(-1 -1.224647e-16 1.224647e-16 -1 358.7996 651.1816)" style="fill:#407BFF;" width="5.064" height="42.975"/>
					
						<rect x="176.868" y="304.103" transform="matrix(-1 -1.224647e-16 1.224647e-16 -1 358.7996 651.1816)" style="opacity:0.1;fill:#FFFFFF;" width="5.064" height="42.975"/>
					
						<rect x="181.932" y="304.103" transform="matrix(-1 -1.224647e-16 1.224647e-16 -1 368.9272 651.1816)" style="fill:#407BFF;" width="5.064" height="42.975"/>
					
						<rect x="181.932" y="304.103" transform="matrix(-1 -1.224647e-16 1.224647e-16 -1 368.9272 651.1816)" style="opacity:0.4;fill:#FFFFFF;" width="5.064" height="42.975"/>
				</g>
				<g>
					
						<rect x="166.74" y="307.124" transform="matrix(-1 -1.224647e-16 1.224647e-16 -1 343.6082 654.2016)" style="fill:#407BFF;" width="10.128" height="39.955"/>
					
						<rect x="166.74" y="307.124" transform="matrix(-1 -1.224647e-16 1.224647e-16 -1 343.6082 654.2016)" style="opacity:0.6;fill:#FFFFFF;" width="10.128" height="39.955"/>
				</g>
				<g>
					
						<rect x="155.132" y="304.103" transform="matrix(-1 -1.224647e-16 1.224647e-16 -1 316.8081 651.1816)" style="fill:#407BFF;" width="6.544" height="42.975"/>
					<g>
						
							<rect x="161.676" y="304.103" transform="matrix(-1 -1.224647e-16 1.224647e-16 -1 328.4165 651.1816)" style="fill:#407BFF;" width="5.064" height="42.975"/>
						
							<rect x="161.676" y="304.103" transform="matrix(-1 -1.224647e-16 1.224647e-16 -1 328.4165 651.1816)" style="opacity:0.6;fill:#FFFFFF;" width="5.064" height="42.975"/>
					</g>
				</g>
				<g>
					
						<rect x="116.724" y="304.103" transform="matrix(-1 -1.224647e-16 1.224647e-16 -1 239.9925 651.1816)" style="fill:#407BFF;" width="6.545" height="42.975"/>
					
						<rect x="116.724" y="304.103" transform="matrix(-1 -1.224647e-16 1.224647e-16 -1 239.9925 651.1816)" style="opacity:0.3;fill:#FFFFFF;" width="6.545" height="42.975"/>
					
						<rect x="123.269" y="304.103" transform="matrix(-1 -1.224647e-16 1.224647e-16 -1 251.6008 651.1816)" style="fill:#407BFF;" width="5.064" height="42.975"/>
					
						<rect x="123.269" y="304.103" transform="matrix(-1 -1.224647e-16 1.224647e-16 -1 251.6008 651.1816)" style="opacity:0.6;fill:#FFFFFF;" width="5.064" height="42.975"/>
				</g>
				<g>
					<g>
						
							<rect x="138.46" y="304.103" transform="matrix(-1 -1.224647e-16 1.224647e-16 -1 283.4641 651.1816)" style="fill:#407BFF;" width="6.545" height="42.975"/>
						
							<rect x="138.46" y="304.103" transform="matrix(-1 -1.224647e-16 1.224647e-16 -1 283.4641 651.1816)" style="opacity:0.6;fill:#FFFFFF;" width="6.545" height="42.975"/>
					</g>
					<g>
						
							<rect x="145.004" y="304.103" transform="matrix(-1 -1.224647e-16 1.224647e-16 -1 295.0725 651.1816)" style="fill:#407BFF;" width="5.064" height="42.975"/>
						
							<rect x="145.004" y="304.103" transform="matrix(-1 -1.224647e-16 1.224647e-16 -1 295.0725 651.1816)" style="opacity:0.1;" width="5.064" height="42.975"/>
					</g>
				</g>
				<g>
					
						<rect x="106.596" y="305.121" transform="matrix(-1 -1.224647e-16 1.224647e-16 -1 223.3202 652.1995)" style="fill:#407BFF;" width="10.128" height="41.957"/>
					
						<rect x="106.596" y="305.121" transform="matrix(-1 -1.224647e-16 1.224647e-16 -1 223.3202 652.1995)" style="opacity:0.1;fill:#FFFFFF;" width="10.128" height="41.957"/>
					
						<rect x="101.533" y="305.121" transform="matrix(-1 -1.224647e-16 1.224647e-16 -1 208.1288 652.1995)" style="fill:#407BFF;" width="5.064" height="41.957"/>
					
						<rect x="101.533" y="305.121" transform="matrix(-1 -1.224647e-16 1.224647e-16 -1 208.1288 652.1995)" style="opacity:0.6;fill:#FFFFFF;" width="5.064" height="41.957"/>
				</g>
				<g>
					<g>
						
							<rect x="131.708" y="305.121" transform="matrix(-1 -1.224647e-16 1.224647e-16 -1 270.1676 652.1995)" style="fill:#407BFF;" width="6.752" height="41.957"/>
						
							<rect x="131.708" y="305.121" transform="matrix(-1 -1.224647e-16 1.224647e-16 -1 270.1676 652.1995)" style="opacity:0.1;fill:#FFFFFF;" width="6.752" height="41.957"/>
					</g>
					<g>
						
							<rect x="128.332" y="305.121" transform="matrix(-1 -1.224647e-16 1.224647e-16 -1 260.04 652.1995)" style="fill:#407BFF;" width="3.376" height="41.957"/>
						
							<rect x="128.332" y="305.121" transform="matrix(-1 -1.224647e-16 1.224647e-16 -1 260.04 652.1995)" style="opacity:0.3;fill:#FFFFFF;" width="3.376" height="41.957"/>
					</g>
				</g>
				<g>
					
						<rect x="145.004" y="307.124" transform="matrix(-1 -1.224647e-16 1.224647e-16 -1 300.136 654.2016)" style="fill:#407BFF;" width="10.128" height="39.955"/>
					
						<rect x="145.004" y="307.124" transform="matrix(-1 -1.224647e-16 1.224647e-16 -1 300.136 654.2016)" style="opacity:0.1;fill:#FFFFFF;" width="10.128" height="39.955"/>
				</g>
			</g>
			<g>
				
					<rect x="202.187" y="304.103" transform="matrix(-1 -1.224647e-16 1.224647e-16 -1 410.9186 651.1816)" style="fill:#407BFF;" width="6.545" height="42.975"/>
				
					<rect x="202.187" y="304.103" transform="matrix(-1 -1.224647e-16 1.224647e-16 -1 410.9186 651.1816)" style="opacity:0.1;" width="6.545" height="42.975"/>
				
					<rect x="208.732" y="304.103" transform="matrix(-1 -1.224647e-16 1.224647e-16 -1 422.5268 651.1816)" style="fill:#407BFF;" width="5.064" height="42.975"/>
				
					<rect x="208.732" y="304.103" transform="matrix(-1 -1.224647e-16 1.224647e-16 -1 422.5268 651.1816)" style="opacity:0.2;fill:#FFFFFF;" width="5.064" height="42.975"/>
			</g>
			<g>
				
					<rect x="192.059" y="305.121" transform="matrix(-1 -1.224647e-16 1.224647e-16 -1 394.2463 652.1995)" style="fill:#407BFF;" width="10.128" height="41.957"/>
				
					<rect x="192.059" y="305.121" transform="matrix(-1 -1.224647e-16 1.224647e-16 -1 394.2463 652.1995)" style="opacity:0.1;fill:#FFFFFF;" width="10.128" height="41.957"/>
				
					<rect x="186.995" y="305.121" transform="matrix(-1 -1.224647e-16 1.224647e-16 -1 379.0548 652.1995)" style="fill:#407BFF;" width="5.064" height="41.957"/>
				
					<rect x="186.995" y="305.121" transform="matrix(-1 -1.224647e-16 1.224647e-16 -1 379.0548 652.1995)" style="opacity:0.6;fill:#FFFFFF;" width="5.064" height="41.957"/>
			</g>
			<g>
				<g>
					
						<rect x="217.171" y="305.121" transform="matrix(-1 -1.224647e-16 1.224647e-16 -1 441.0936 652.1995)" style="fill:#407BFF;" width="6.752" height="41.957"/>
					
						<rect x="217.171" y="305.121" transform="matrix(-1 -1.224647e-16 1.224647e-16 -1 441.0936 652.1995)" style="opacity:0.1;fill:#FFFFFF;" width="6.752" height="41.957"/>
				</g>
				<g>
					
						<rect x="213.795" y="305.121" transform="matrix(-1 -1.224647e-16 1.224647e-16 -1 430.966 652.1995)" style="fill:#407BFF;" width="3.376" height="41.957"/>
					
						<rect x="213.795" y="305.121" transform="matrix(-1 -1.224647e-16 1.224647e-16 -1 430.966 652.1995)" style="opacity:0.6;fill:#FFFFFF;" width="3.376" height="41.957"/>
				</g>
			</g>
		</g>
		<g>
			<g>
				<g>
					
						<rect x="176.902" y="366.147" transform="matrix(-1 -1.224647e-16 1.224647e-16 -1 358.867 774.7304)" style="fill:#407BFF;" width="5.064" height="42.435"/>
					
						<rect x="176.902" y="366.147" transform="matrix(-1 -1.224647e-16 1.224647e-16 -1 358.867 774.7304)" style="opacity:0.1;fill:#FFFFFF;" width="5.064" height="42.435"/>
					
						<rect x="181.965" y="366.147" transform="matrix(-1 -1.224647e-16 1.224647e-16 -1 368.9947 774.7304)" style="fill:#407BFF;" width="5.064" height="42.435"/>
					
						<rect x="181.965" y="366.147" transform="matrix(-1 -1.224647e-16 1.224647e-16 -1 368.9947 774.7304)" style="opacity:0.4;fill:#FFFFFF;" width="5.064" height="42.435"/>
				</g>
				<g>
					
						<rect x="166.774" y="369.129" transform="matrix(-1 -1.224647e-16 1.224647e-16 -1 343.6755 777.7124)" style="fill:#407BFF;" width="10.128" height="39.453"/>
					
						<rect x="166.774" y="369.129" transform="matrix(-1 -1.224647e-16 1.224647e-16 -1 343.6755 777.7124)" style="opacity:0.6;fill:#FFFFFF;" width="10.128" height="39.453"/>
				</g>
				<g>
					
						<rect x="155.165" y="366.147" transform="matrix(-1 -1.224647e-16 1.224647e-16 -1 316.8756 774.7304)" style="fill:#407BFF;" width="6.545" height="42.435"/>
					<g>
						
							<rect x="161.71" y="366.147" transform="matrix(-1 -1.224647e-16 1.224647e-16 -1 328.484 774.7304)" style="fill:#407BFF;" width="5.064" height="42.435"/>
						
							<rect x="161.71" y="366.147" transform="matrix(-1 -1.224647e-16 1.224647e-16 -1 328.484 774.7304)" style="opacity:0.1;" width="5.064" height="42.435"/>
					</g>
				</g>
				<g>
					
						<rect x="116.758" y="366.147" transform="matrix(-1 -1.224647e-16 1.224647e-16 -1 240.06 774.7304)" style="fill:#407BFF;" width="6.545" height="42.435"/>
					
						<rect x="116.758" y="366.147" transform="matrix(-1 -1.224647e-16 1.224647e-16 -1 240.06 774.7304)" style="opacity:0.4;fill:#FFFFFF;" width="6.545" height="42.435"/>
					
						<rect x="123.302" y="366.147" transform="matrix(-1 -1.224647e-16 1.224647e-16 -1 251.6682 774.7304)" style="fill:#407BFF;" width="5.064" height="42.435"/>
					
						<rect x="123.302" y="366.147" transform="matrix(-1 -1.224647e-16 1.224647e-16 -1 251.6682 774.7304)" style="opacity:0.6;fill:#FFFFFF;" width="5.064" height="42.435"/>
				</g>
				<g>
					<g>
						
							<rect x="138.493" y="366.147" transform="matrix(-1 -1.224647e-16 1.224647e-16 -1 283.5315 774.7304)" style="fill:#407BFF;" width="6.545" height="42.435"/>
						
							<rect x="138.493" y="366.147" transform="matrix(-1 -1.224647e-16 1.224647e-16 -1 283.5315 774.7304)" style="opacity:0.6;fill:#FFFFFF;" width="6.545" height="42.435"/>
					</g>
					<g>
						
							<rect x="145.038" y="366.147" transform="matrix(-1 -1.224647e-16 1.224647e-16 -1 295.1398 774.7304)" style="fill:#407BFF;" width="5.064" height="42.435"/>
						
							<rect x="145.038" y="366.147" transform="matrix(-1 -1.224647e-16 1.224647e-16 -1 295.1398 774.7304)" style="opacity:0.1;" width="5.064" height="42.435"/>
					</g>
				</g>
				<g>
					
						<rect x="106.63" y="367.153" transform="matrix(-1 -1.224647e-16 1.224647e-16 -1 223.3877 775.7355)" style="fill:#407BFF;" width="10.128" height="41.43"/>
					
						<rect x="106.63" y="367.153" transform="matrix(-1 -1.224647e-16 1.224647e-16 -1 223.3877 775.7355)" style="opacity:0.1;fill:#FFFFFF;" width="10.128" height="41.43"/>
					
						<rect x="101.566" y="367.153" transform="matrix(-1 -1.224647e-16 1.224647e-16 -1 208.1961 775.7355)" style="fill:#407BFF;" width="5.064" height="41.43"/>
					
						<rect x="101.566" y="367.153" transform="matrix(-1 -1.224647e-16 1.224647e-16 -1 208.1961 775.7355)" style="opacity:0.6;fill:#FFFFFF;" width="5.064" height="41.43"/>
				</g>
				<g>
					<g>
						
							<rect x="131.742" y="367.153" transform="matrix(-1 -1.224647e-16 1.224647e-16 -1 270.2351 775.7355)" style="fill:#407BFF;" width="6.752" height="41.43"/>
						
							<rect x="131.742" y="367.153" transform="matrix(-1 -1.224647e-16 1.224647e-16 -1 270.2351 775.7355)" style="opacity:0.1;fill:#FFFFFF;" width="6.752" height="41.43"/>
					</g>
					<g>
						
							<rect x="128.366" y="367.153" transform="matrix(-1 -1.224647e-16 1.224647e-16 -1 260.1075 775.7355)" style="fill:#407BFF;" width="3.376" height="41.43"/>
						
							<rect x="128.366" y="367.153" transform="matrix(-1 -1.224647e-16 1.224647e-16 -1 260.1075 775.7355)" style="opacity:0.3;fill:#FFFFFF;" width="3.376" height="41.43"/>
					</g>
				</g>
				<g>
					
						<rect x="145.038" y="369.129" transform="matrix(-1 -1.224647e-16 1.224647e-16 -1 300.2033 777.7124)" style="fill:#407BFF;" width="10.128" height="39.453"/>
					
						<rect x="145.038" y="369.129" transform="matrix(-1 -1.224647e-16 1.224647e-16 -1 300.2033 777.7124)" style="opacity:0.1;fill:#FFFFFF;" width="10.128" height="39.453"/>
				</g>
			</g>
			<g>
				
					<rect x="202.221" y="366.147" transform="matrix(-1 -1.224647e-16 1.224647e-16 -1 410.986 774.7304)" style="fill:#407BFF;" width="6.545" height="42.435"/>
				
					<rect x="202.221" y="366.147" transform="matrix(-1 -1.224647e-16 1.224647e-16 -1 410.986 774.7304)" style="opacity:0.1;" width="6.545" height="42.435"/>
				
					<rect x="208.765" y="366.147" transform="matrix(-1 -1.224647e-16 1.224647e-16 -1 422.5942 774.7304)" style="fill:#407BFF;" width="5.064" height="42.435"/>
				
					<rect x="208.765" y="366.147" transform="matrix(-1 -1.224647e-16 1.224647e-16 -1 422.5942 774.7304)" style="opacity:0.2;fill:#FFFFFF;" width="5.064" height="42.435"/>
			</g>
			<g>
				
					<rect x="192.093" y="367.153" transform="matrix(-1 -1.224647e-16 1.224647e-16 -1 394.3137 775.7355)" style="fill:#407BFF;" width="10.128" height="41.43"/>
				
					<rect x="192.093" y="367.153" transform="matrix(-1 -1.224647e-16 1.224647e-16 -1 394.3137 775.7355)" style="opacity:0.1;fill:#FFFFFF;" width="10.128" height="41.43"/>
				
					<rect x="187.029" y="367.153" transform="matrix(-1 -1.224647e-16 1.224647e-16 -1 379.1222 775.7355)" style="fill:#407BFF;" width="5.064" height="41.43"/>
				
					<rect x="187.029" y="367.153" transform="matrix(-1 -1.224647e-16 1.224647e-16 -1 379.1222 775.7355)" style="opacity:0.6;fill:#FFFFFF;" width="5.064" height="41.43"/>
			</g>
			<g>
				<g>
					
						<rect x="217.205" y="367.153" transform="matrix(-1 -1.224647e-16 1.224647e-16 -1 441.1611 775.7355)" style="fill:#407BFF;" width="6.752" height="41.43"/>
					
						<rect x="217.205" y="367.153" transform="matrix(-1 -1.224647e-16 1.224647e-16 -1 441.1611 775.7355)" style="opacity:0.1;fill:#FFFFFF;" width="6.752" height="41.43"/>
				</g>
				<g>
					
						<rect x="213.829" y="367.153" transform="matrix(-1 -1.224647e-16 1.224647e-16 -1 431.0335 775.7355)" style="fill:#407BFF;" width="3.376" height="41.43"/>
					
						<rect x="213.829" y="367.153" transform="matrix(-1 -1.224647e-16 1.224647e-16 -1 431.0335 775.7355)" style="opacity:0.6;fill:#FFFFFF;" width="3.376" height="41.43"/>
				</g>
			</g>
		</g>
		<g>
			<g>
				<g>
					<rect x="140.839" y="241.472" style="fill:#407BFF;" width="5.235" height="44.113"/>
					<rect x="140.839" y="241.472" style="opacity:0.1;fill:#FFFFFF;" width="5.235" height="44.113"/>
					<rect x="135.604" y="241.472" style="fill:#407BFF;" width="5.235" height="44.113"/>
					<rect x="135.604" y="241.472" style="opacity:0.4;fill:#FFFFFF;" width="5.235" height="44.113"/>
				</g>
				<g>
					<rect x="146.074" y="244.572" style="fill:#407BFF;" width="10.47" height="41.013"/>
					<rect x="146.074" y="244.572" style="opacity:0.6;fill:#FFFFFF;" width="10.47" height="41.013"/>
				</g>
				<g>
					<rect x="161.779" y="241.472" style="fill:#407BFF;" width="6.766" height="44.113"/>
					<g>
						<rect x="156.544" y="241.472" style="fill:#407BFF;" width="5.235" height="44.113"/>
						<rect x="156.544" y="241.472" style="opacity:0.1;" width="5.235" height="44.113"/>
					</g>
				</g>
				<g>
					<rect x="201.485" y="241.472" style="fill:#407BFF;" width="6.766" height="44.113"/>
					<rect x="201.485" y="241.472" style="opacity:0.1;" width="6.766" height="44.113"/>
					<rect x="196.251" y="241.472" style="fill:#407BFF;" width="5.235" height="44.113"/>
					<rect x="196.251" y="241.472" style="opacity:0.6;fill:#FFFFFF;" width="5.235" height="44.113"/>
				</g>
				<g>
					<g>
						<rect x="179.015" y="241.472" style="fill:#407BFF;" width="6.766" height="44.113"/>
						<rect x="179.015" y="241.472" style="opacity:0.6;fill:#FFFFFF;" width="6.766" height="44.113"/>
					</g>
					<g>
						<rect x="173.78" y="241.472" style="fill:#407BFF;" width="5.235" height="44.113"/>
						<rect x="173.78" y="241.472" style="opacity:0.1;" width="5.235" height="44.113"/>
					</g>
				</g>
				<g>
					<rect x="208.251" y="242.516" style="fill:#407BFF;" width="10.47" height="43.068"/>
					<rect x="208.251" y="242.516" style="opacity:0.1;fill:#FFFFFF;" width="10.47" height="43.068"/>
					<rect x="218.721" y="242.516" style="fill:#407BFF;" width="5.235" height="43.068"/>
					<rect x="218.721" y="242.516" style="opacity:0.6;fill:#FFFFFF;" width="5.235" height="43.068"/>
				</g>
				<g>
					<g>
						<rect x="185.781" y="242.516" style="fill:#407BFF;" width="6.98" height="43.068"/>
						<rect x="185.781" y="242.516" style="opacity:0.1;fill:#FFFFFF;" width="6.98" height="43.068"/>
					</g>
					<g>
						<rect x="192.761" y="242.516" style="fill:#407BFF;" width="3.49" height="43.068"/>
						<rect x="192.761" y="242.516" style="opacity:0.3;fill:#FFFFFF;" width="3.49" height="43.068"/>
					</g>
				</g>
				<g>
					<rect x="168.545" y="244.572" style="fill:#407BFF;" width="10.47" height="41.013"/>
					<rect x="168.545" y="244.572" style="opacity:0.1;fill:#FFFFFF;" width="10.47" height="41.013"/>
				</g>
			</g>
			<g>
				<rect x="113.133" y="241.472" style="fill:#407BFF;" width="6.766" height="44.113"/>
				<rect x="113.133" y="241.472" style="opacity:0.2;fill:#FFFFFF;" width="6.766" height="44.113"/>
				<rect x="107.898" y="241.472" style="fill:#407BFF;" width="5.235" height="44.113"/>
				<rect x="107.898" y="241.472" style="opacity:0.2;fill:#FFFFFF;" width="5.235" height="44.113"/>
			</g>
			<g>
				<rect x="119.899" y="242.516" style="fill:#407BFF;" width="10.47" height="43.068"/>
				<rect x="119.899" y="242.516" style="opacity:0.1;fill:#FFFFFF;" width="10.47" height="43.068"/>
				<rect x="130.369" y="242.516" style="fill:#407BFF;" width="5.235" height="43.068"/>
				<rect x="130.369" y="242.516" style="opacity:0.6;fill:#FFFFFF;" width="5.235" height="43.068"/>
			</g>
			<g>
				<g>
					<rect x="97.428" y="242.516" style="fill:#407BFF;" width="6.98" height="43.068"/>
					<rect x="97.428" y="242.516" style="opacity:0.1;fill:#FFFFFF;" width="6.98" height="43.068"/>
				</g>
				<g>
					<rect x="104.408" y="242.516" style="fill:#407BFF;" width="3.49" height="43.068"/>
					<rect x="104.408" y="242.516" style="opacity:0.6;fill:#FFFFFF;" width="3.49" height="43.068"/>
				</g>
			</g>
		</g>
	</g>
</g>
<g id="Sign">
	<g>
		<g>
			<rect x="111.286" y="68.701" style="fill:#407BFF;" width="80.944" height="26.794"/>
		</g>
		<g>
			<rect x="112.786" y="54.953" style="fill:#407BFF;" width="1" height="13.749"/>
		</g>
		<g>
			<rect x="190.845" y="54.953" style="fill:#407BFF;" width="1" height="13.749"/>
		</g>
		<g style="opacity:0.7;">
			<rect x="111.286" y="68.701" style="fill:#FFFFFF;" width="79.332" height="25.031"/>
		</g>
		<g>
			<rect x="124.983" y="73.535" style="fill:#407BFF;" width="56.342" height="4.871"/>
		</g>
		<g>
			<rect x="169.248" y="82.098" style="fill:#407BFF;" width="12.076" height="1.901"/>
		</g>
		<g>
			<rect x="157.087" y="87.691" style="fill:#407BFF;" width="24.237" height="1.901"/>
		</g>
	</g>
</g>
<g id="Character_1">
	<g>
		<g>
			<path style="opacity:0.2;" d="M93.66,413.911c1.75,0.292,3.163-0.85,3.155-2.549l-0.024-4.942h64.464l0.019,3.887
				c0.008,1.699,1.434,3.312,3.184,3.604c1.75,0.292,3.163-0.85,3.155-2.549l-1.201-245.107c-0.008-1.699-1.434-3.312-3.184-3.603
				c-1.751-0.292-3.163,0.85-3.155,2.549l0.019,3.917H95.628l-0.014-2.862c-0.008-1.699-1.434-3.312-3.184-3.603
				c-1.751-0.292-3.163,0.85-3.155,2.549l1.201,245.107C90.485,412.006,91.91,413.619,93.66,413.911z M161.002,354.965H96.538
				l-0.203-41.469h64.464L161.002,354.965z M95.88,220.573h64.464l0.203,41.469H96.083L95.88,220.573z M160.572,267.035
				l0.203,41.467H96.311l-0.203-41.467H160.572z M160.117,174.111l0.203,41.467H95.856l-0.203-41.467H160.117z M96.766,401.426
				l-0.203-41.467h64.464l0.203,41.467H96.766z"/>
			<path style="fill:#263238;" d="M50.164,413.911c1.699,0.292,3.313-0.85,3.604-2.549l0.847-4.942h64.464l-0.667,3.887
				c-0.291,1.699,0.85,3.312,2.549,3.604c1.699,0.292,3.313-0.85,3.604-2.549l42.018-245.107c0.291-1.699-0.85-3.312-2.548-3.603
				c-1.699-0.292-3.313,0.85-3.604,2.549l-0.671,3.917H95.296l0.491-2.862c0.291-1.699-0.85-3.312-2.548-3.603
				c-1.699-0.292-3.313,0.85-3.604,2.549L47.616,410.308C47.325,412.006,48.465,413.619,50.164,413.911z M127.9,354.965H63.436
				l7.109-41.469h64.464L127.9,354.965z M86.475,220.573h64.464l-7.109,41.469H79.366L86.475,220.573z M142.974,267.035
				l-7.109,41.467H71.401l7.109-41.467H142.974z M158.904,174.111l-7.109,41.467H87.331l7.109-41.467H158.904z M55.471,401.426
				l7.109-41.467h64.464l-7.109,41.467H55.471z"/>
			<path style="opacity:0.2;fill:#FFFFFF;" d="M50.164,413.911c1.699,0.292,3.313-0.85,3.604-2.549l0.847-4.942h64.464l-0.667,3.887
				c-0.291,1.699,0.85,3.312,2.549,3.604c1.699,0.292,3.313-0.85,3.604-2.549l42.018-245.107c0.291-1.699-0.85-3.312-2.548-3.603
				c-1.699-0.292-3.313,0.85-3.604,2.549l-0.671,3.917H95.296l0.491-2.862c0.291-1.699-0.85-3.312-2.548-3.603
				c-1.699-0.292-3.313,0.85-3.604,2.549L47.616,410.308C47.325,412.006,48.465,413.619,50.164,413.911z M127.9,354.965H63.436
				l7.109-41.469h64.464L127.9,354.965z M86.475,220.573h64.464l-7.109,41.469H79.366L86.475,220.573z M142.974,267.035
				l-7.109,41.467H71.401l7.109-41.467H142.974z M158.904,174.111l-7.109,41.467H87.331l7.109-41.467H158.904z M55.471,401.426
				l7.109-41.467h64.464l-7.109,41.467H55.471z"/>
		</g>
		<g>
			<g>
				<g>
					<g>
						<path style="fill:#407BFF;" d="M176.222,183.748h-21.56c-1.114,0-2.017-0.903-2.017-2.017l0,0v-26.82l0,0
							c0,1.114,0.903,2.017,2.017,2.017h21.56V183.748z"/>
						<path style="opacity:0.3;" d="M176.222,183.748h-21.56c-1.114,0-2.017-0.903-2.017-2.017l0,0v-26.82l0,0
							c0,1.114,0.903,2.017,2.017,2.017h21.56V183.748z"/>
					</g>
					<g>
						<path style="fill:#263238;" d="M176.222,156.927h-21.56c-1.114,0-2.017-0.903-2.017-2.017l0,0
							c0-1.114,0.903-2.017,2.017-2.017h21.56V156.927z"/>
						<path style="opacity:0.5;fill:#FFFFFF;" d="M176.222,156.927h-21.56c-1.114,0-2.017-0.903-2.017-2.017l0,0
							c0-1.114,0.903-2.017,2.017-2.017h21.56V156.927z"/>
					</g>
					<path style="fill:#407BFF;" d="M152.645,154.91c0,1.114,0.903,2.017,2.017,2.017h21.56v-0.7h-21.56
						c-0.726,0-1.317-0.591-1.317-1.317c0-0.726,0.59-1.316,1.317-1.316h21.56v-0.701h-21.56
						C153.548,152.893,152.645,153.796,152.645,154.91z"/>
				</g>
				<g>
					<rect x="157.428" y="162.696" style="fill:#407BFF;" width="14.01" height="8.873"/>
					<rect x="157.428" y="162.696" style="opacity:0.5;fill:#FFFFFF;" width="14.01" height="8.873"/>
				</g>
			</g>
			<g>
				<polygon style="fill:#FF8B7B;" points="49.113,320.503 44.246,334.004 51.739,336.905 57.585,324.455 				"/>
				<g>
					<path style="fill:#407BFF;" d="M52.51,337.554c-0.07-0.045-0.107-0.126-0.094-0.208c0.015-0.082,0.079-0.147,0.162-0.16
						c0.146-0.025,3.465-0.571,4.642,0.276c0.221,0.154,0.373,0.388,0.424,0.653c0.087,0.305-0.028,0.631-0.286,0.814
						c-0.479,0.299-1.554,0.103-2.53-0.259C54.024,338.365,53.248,337.992,52.51,337.554z M53.204,337.528
						c1.393,0.723,3.378,1.446,3.931,1.071c0.076-0.044,0.166-0.137,0.114-0.42c-0.024-0.166-0.123-0.311-0.268-0.396
						c-0.104-0.076-0.217-0.135-0.338-0.178C55.512,337.363,54.345,337.336,53.204,337.528z"/>
					<path style="fill:#407BFF;" d="M52.415,337.506c-0.043-0.057-0.051-0.134-0.021-0.199c0.047-0.095,1.043-2.134,2.348-2.584
						c0.377-0.136,0.794-0.112,1.153,0.067c0.493,0.241,0.557,0.56,0.497,0.78c-0.16,0.945-2.679,1.946-3.772,2.013
						c-0.028,0.003-0.057-0.005-0.08-0.022C52.493,337.56,52.448,337.54,52.415,337.506z M55.639,335.097
						c-0.234-0.09-0.494-0.092-0.729-0.005c-0.837,0.459-1.513,1.164-1.936,2.019c1.187-0.214,2.918-1.086,3.067-1.636
						c0.004-0.053,0.032-0.196-0.292-0.348L55.639,335.097L55.639,335.097z"/>
					<path style="fill:#263238;" d="M52.116,336.157l-8.567-3.182c-0.323-0.12-0.686,0-0.874,0.289l-4.138,6.395
						c-0.371,0.565-0.214,1.323,0.35,1.694c0.072,0.048,0.15,0.087,0.231,0.119c3.108,1.094,5.917,1.945,9.76,3.378
						c4.537,1.687,3.184,1.802,8.49,3.86c3.198,1.237,5.144-2.198,3.848-2.884c-5.946-3.102-5.894-5.226-7.471-8.353
						C53.382,336.848,52.802,336.381,52.116,336.157z"/>
				</g>
				<polygon style="opacity:0.2;fill:#263238;" points="46.78,326.976 54.638,330.731 57.585,324.455 49.113,320.503 				"/>
			</g>
			<g>
				<polygon style="fill:#FF8B7B;" points="93.928,333.425 95.225,347.719 103.242,347.179 103.276,333.425 				"/>
				<g>
					<path style="fill:#407BFF;" d="M104.623,346.94c-0.082-0.014-0.147-0.076-0.166-0.157c-0.018-0.082,0.018-0.166,0.088-0.21
						c0.126-0.078,2.985-1.85,4.396-1.516c0.263,0.058,0.493,0.217,0.641,0.442c0.197,0.248,0.215,0.593,0.046,0.861
						c-0.328,0.459-1.397,0.688-2.437,0.725C106.333,347.113,105.474,347.064,104.623,346.94z M105.256,346.651
						c1.564,0.137,3.674,0.048,4.042-0.51c0.054-0.07,0.101-0.19-0.055-0.432c-0.086-0.144-0.233-0.241-0.399-0.263
						c-0.124-0.03-0.253-0.043-0.381-0.035C107.326,345.618,106.237,346.039,105.256,346.651z"/>
					<path style="fill:#407BFF;" d="M104.518,346.932c-0.061-0.037-0.098-0.104-0.095-0.176c0.008-0.105,0.15-2.37,1.184-3.284
						c0.297-0.269,0.691-0.406,1.091-0.378c0.548,0.035,0.728,0.305,0.757,0.531c0.212,0.935-1.734,2.821-2.718,3.3
						c-0.025,0.014-0.055,0.017-0.082,0.01C104.61,346.952,104.561,346.951,104.518,346.932z M106.579,343.475
						c-0.251,0.006-0.491,0.104-0.676,0.274c-0.598,0.743-0.954,1.653-1.02,2.605c1.015-0.65,2.283-2.117,2.211-2.682
						c-0.017-0.05-0.045-0.193-0.403-0.21L106.579,343.475L106.579,343.475z"/>
					<path style="fill:#263238;" d="M103.727,345.799l-9.133,0.327c-0.344,0.012-0.634,0.261-0.697,0.6l-1.385,7.489
						c-0.128,0.663,0.307,1.305,0.97,1.432c0.085,0.016,0.172,0.024,0.258,0.022c3.29-0.175,6.211-0.46,10.311-0.601
						c4.837-0.172,3.631,0.451,9.32,0.329c3.428-0.077,3.916-3.994,2.456-4.134c-6.68-0.599-7.442-2.582-10.092-4.871
						C105.161,345.955,104.447,345.744,103.727,345.799z"/>
				</g>
				<polygon style="opacity:0.2;fill:#263238;" points="103.276,333.425 93.928,333.425 94.606,340.892 103.258,340.648 				"/>
			</g>
			<g>
				<path style="fill:#263238;" d="M87.05,201.008c0,0-14.34,9.439-11.995,37.217l-2.386,31.456c0,0-14.224,9.537-25.551,53.496
					c0,0,3.797,3.326,9.979,4.854l34.207-52.32l12.66-54.477l1.481-18.136L87.05,201.008z"/>
				<path style="opacity:0.4;" d="M97.625,248.513l-5.164-19.997l-8.219-4.045c0,0-0.011,38.996,3.687,56.403l3.375-5.163
					L97.625,248.513z"/>
				<path style="fill:#FF8B7B;" d="M79.617,167.297c0,0-10.314,12.945-7.517,18.474c2.797,5.529,11.608,6.068,11.608,6.068
					s0.628,1.753,3.325,2.292l1.739-7.956c0,0-1.703-1.107-3.879,0.121l-5.777-3.492l7.949-10.53L79.617,167.297z"/>
				<path style="fill:#407BFF;" d="M94.343,158.375c0,0-7.985,0.292-12.3,3.933c-4.315,3.641-4.989,5.798-4.989,5.798
					s2.843,4.144,11.333,6.387L94.343,158.375z"/>
				<path style="opacity:0.1;" d="M88.387,174.493l3.216-8.702l-3.45-3.544c0,0-3.251,4.553-3.911,10.845
					C85.443,173.598,86.817,174.078,88.387,174.493z"/>
				<path style="fill:#263238;" d="M90.46,201.008c0,0-11.832,12.945-4.594,38.296l5.081,31.823c0,0-6.474,30.312,1.48,66.343
					c0,0,6.175,0.989,12.068-0.27l7.393-67.842l3.702-64.845L90.46,201.008z"/>
				<g>
					<path style="fill:#FF8B7B;" d="M98.464,157.915c0,0,4.364-0.449,4.294-8.479c0,0,4.03-1.842,6.642,0.531
						s-2.355,7.916,0.889,10.247C110.288,160.213,107.44,162.13,98.464,157.915z"/>
					<path style="fill:#263238;" d="M117.571,138.168c0.04-0.538,0.357-0.952,0.709-0.926c0.351,0.026,0.604,0.483,0.564,1.021
						c-0.04,0.538-0.358,0.952-0.709,0.926C117.783,139.163,117.53,138.706,117.571,138.168z"/>
					<path style="fill:#FF5652;" d="M117.938,139.142l2.837,3.749c0,0-1.233,1.074-3.122,0.565L117.938,139.142z"/>
					<path style="fill:#FF8B7B;" d="M98.987,137.327c0.327,6.8,0.318,9.691,3.703,13.224c5.197,3.621,13.386,3.43,15.096-3.336
						c1.542-6.088,0.75-16.162-5.872-18.993c-4.721-2.016-10.182,0.177-12.198,4.897C99.151,134.447,98.901,135.887,98.987,137.327z
						"/>
					<path style="fill:#263238;" d="M116.564,136.577c0.102,0.027,0.211,0.003,0.292-0.063c0.59-0.546,1.406-0.775,2.194-0.613
						c0.166,0.045,0.337-0.051,0.385-0.216c0.045-0.167-0.05-0.341-0.215-0.392c-0.991-0.219-2.027,0.057-2.778,0.739
						c-0.134,0.104-0.159,0.297-0.055,0.431c0.003,0.004,0.006,0.008,0.01,0.012C116.438,136.529,116.497,136.565,116.564,136.577z"
						/>
					<path style="fill:#263238;" d="M118.149,137.268l1.481-0.216C119.63,137.052,118.744,138.063,118.149,137.268z"/>
					<path style="opacity:0.2;" d="M105.876,152.171c0.452,0.745,1.577,2.289,3.635,3.318c0.22-0.884,0.475-1.776,0.596-2.609
						C108.71,152.895,107.261,152.654,105.876,152.171z"/>
					<path style="fill:#263238;" d="M111.133,141.273c0,0,4.088-4.38,2.435-8.715c0,0,4.665,0.557,4.371-3.027
						c-0.294-3.584-5.16-2.519-5.16-2.519s2.636-4.197,0.472-5.349c-2.164-1.152-6.015,2.278-6.015,2.278s-9.508-1.458-12.377,9.374
						c-2.869,10.832-9.165,4.396-9.621,9.107c-0.505,5.216,7.013,4.512,7.013,4.512s-1.196,3.62,2.795,4.782
						c3.991,1.161,6.084-1.562,6.084-1.562s-0.257,3.682,4.005,3.241c4.973-0.515,3.92-3.774,4.346-5.467
						C109.898,146.265,111.89,144.542,111.133,141.273z"/>
					<path style="fill:#263238;" d="M107.319,124.836c0,0-1.843-5.425,1.379-5.727C111.92,118.807,107.201,120.874,107.319,124.836z
						"/>
					<path style="fill:#FF8B7B;" d="M111.08,139.635c1.031,0.933,1.648,2.239,1.714,3.629c0.074,1.844-1.684,2.357-3.205,1.504
						c-1.378-0.772-3.06-2.659-2.41-4.351C107.829,138.725,109.806,138.508,111.08,139.635z"/>
				</g>
				<path style="fill:#407BFF;" d="M96.368,159.071c0,0-1.514-6.473,8.195-3.641c9.709,2.832,8.9,8.36,8.9,8.36L96.368,159.071z"/>
				<path style="opacity:0.5;fill:#FFFFFF;" d="M96.368,159.071c0,0-1.514-6.473,8.195-3.641c9.709,2.832,8.9,8.36,8.9,8.36
					L96.368,159.071z"/>
				<path style="fill:#407BFF;" d="M83.383,204.244c0,0,4.521-15.557,4.127-25.645c-0.394-10.088-4.002-22.09,12.687-20.202
					c16.689,1.888,20.255,7.686,20.255,16.856c0,9.169-4.689,35.194-4.689,35.194S98.798,214.897,83.383,204.244z"/>
				<path style="opacity:0.1;" d="M120.453,175.253c0-2.196-0.208-4.196-0.749-5.997l-5.544-2.583l-3.139,4.633
					c0,0,4.498,10.115,8.585,14.25C120.108,181.454,120.453,177.734,120.453,175.253z"/>
				<path style="fill:#FF8B7B;" d="M126.212,171.292c0,0,5.421,5.394,7.629,7.568l16.839-4.637l1.45-4.361l2.528-0.139l7.67-2.293
					l2.852,2.812l-2.773,5.962l-9.085,1.784c0,0-14.809,8.177-20.24,7.666c-5.43-0.511-12.565-7.041-12.565-7.041L126.212,171.292z"
					/>
				<path style="fill:#407BFF;" d="M112.685,161.485c4.662,0.682,9.426,4.389,16.824,10.936c0,0-2.427,5.596-7.821,9.035
					c0,0-4.315-1.888-9.451-8.423C106.023,165.126,109.827,161.067,112.685,161.485z"/>
			</g>
		</g>
	</g>
</g>
<g id="Table">
	<g>
		<g>
			<path style="fill:#263238;" d="M296.677,413.957L296.677,413.957c-1.583,0-2.853-0.469-2.802-2.051l3.274-103.116h5.61
				l-3.28,103.294C299.431,413.596,298.191,413.957,296.677,413.957z"/>
			<path style="opacity:0.2;fill:#FFFFFF;" d="M296.677,413.957L296.677,413.957c-1.583,0-2.853-0.469-2.802-2.051l3.274-103.116
				h5.61l-3.28,103.294C299.431,413.596,298.191,413.957,296.677,413.957z"/>
			<g>
				<rect x="282.001" y="308.789" style="fill:#263238;" width="69.899" height="14.71"/>
				<rect x="282.001" y="308.789" style="opacity:0.2;fill:#FFFFFF;" width="69.899" height="14.71"/>
			</g>
			<g>
				<rect x="351.901" y="308.789" style="fill:#407BFF;" width="17.934" height="14.71"/>
				<rect x="351.901" y="308.789" style="fill:#263238;" width="17.934" height="14.71"/>
				<rect x="351.901" y="308.789" style="opacity:0.2;fill:#FFFFFF;" width="17.934" height="14.71"/>
			</g>
			<path style="fill:#263238;" d="M375.536,413.957L375.536,413.957c1.608,0,2.886-0.509,2.796-2.115l-5.727-103.053h-5.61
				l5.744,103.363C372.822,413.637,374.05,413.957,375.536,413.957z"/>
			<path style="opacity:0.2;fill:#FFFFFF;" d="M375.536,413.957L375.536,413.957c1.608,0,2.886-0.509,2.796-2.115l-5.727-103.053
				h-5.61l5.744,103.363C372.822,413.637,374.05,413.957,375.536,413.957z"/>
			<path style="fill:#263238;" d="M355.126,413.957L355.126,413.957c1.583,0,2.852-0.469,2.802-2.051l-3.274-103.116h-5.61
				l3.28,103.294C352.371,413.596,353.612,413.957,355.126,413.957z"/>
			<path style="opacity:0.2;fill:#FFFFFF;" d="M355.126,413.957L355.126,413.957c1.583,0,2.852-0.469,2.802-2.051l-3.274-103.116
				h-5.61l3.28,103.294C352.371,413.596,353.612,413.957,355.126,413.957z"/>
			<path style="fill:#263238;" d="M276.266,413.957L276.266,413.957c-1.608,0-2.886-0.509-2.797-2.115l5.727-103.053h5.61
				l-5.744,103.363C278.98,413.637,277.753,413.957,276.266,413.957z"/>
			<path style="opacity:0.2;fill:#FFFFFF;" d="M276.266,413.957L276.266,413.957c-1.608,0-2.886-0.509-2.797-2.115l5.727-103.053
				h5.61l-5.744,103.363C278.98,413.637,277.753,413.957,276.266,413.957z"/>
			<g>
				<path style="fill:#263238;" d="M392.754,313.426H259.048c-1.483,0-2.685-1.202-2.685-2.685v-3.903
					c0-1.483,1.202-2.685,2.685-2.685h133.706c1.483,0,2.685,1.202,2.685,2.685v3.903
					C395.439,312.224,394.237,313.426,392.754,313.426z"/>
				<path style="opacity:0.5;fill:#FFFFFF;" d="M392.754,313.426H259.048c-1.483,0-2.685-1.202-2.685-2.685v-3.903
					c0-1.483,1.202-2.685,2.685-2.685h133.706c1.483,0,2.685,1.202,2.685,2.685v3.903
					C395.439,312.224,394.237,313.426,392.754,313.426z"/>
			</g>
		</g>
		<g>
			<g>
				<g>
					<g>
						<path style="fill:#407BFF;" d="M331.888,275.43v7.394c0.911,0,0.913,1.416,0,1.416c-2.818,0-5.638,0.019-8.458,0.036v-10.262
							c2.819,0,5.639,0,8.458,0C332.799,274.014,332.801,275.43,331.888,275.43z"/>
						<path style="opacity:0.3;fill:#FFFFFF;" d="M331.888,275.43v7.394c0.911,0,0.913,1.416,0,1.416
							c-2.818,0-5.638,0.019-8.458,0.036v-10.262c2.819,0,5.639,0,8.458,0C332.799,274.014,332.801,275.43,331.888,275.43z"/>
					</g>
					<rect x="325.318" y="275.441" style="fill:#407BFF;" width="6.57" height="7.384"/>
					<rect x="325.318" y="275.441" style="opacity:0.6;fill:#FFFFFF;" width="6.57" height="7.384"/>
				</g>
				<path style="fill:#407BFF;" d="M326.696,274.722h-36.271c-1.566,0-2.835,1.972-2.835,4.405c0,2.433,1.269,4.405,2.835,4.405
					h36.271V274.722z"/>
				<path style="opacity:0.9;fill:#FFFFFF;" d="M326.696,274.722h-36.271c-1.566,0-2.835,1.972-2.835,4.405
					c0,2.433,1.269,4.405,2.835,4.405h36.271V274.722z"/>
				<g>
					<g>
						<path style="fill:#407BFF;" d="M326.696,284.241c-7.458,0-28.42,0.135-35.876,0c-5.108-0.092-5.382-9.883-0.372-10.226
							c3.492-0.24,7.085,0,10.583,0c4.057,0,21.607,0,25.665,0c0.911,0,0.913,1.416,0,1.416c-7.068,0-27.629,0-34.697,0
							c-1.636,0-2.806,0.018-3.438,1.948c-0.547,1.67-0.375,5.078,1.864,5.446c0.241,0.04,0.525,0,0.767,0c3.854,0,7.708,0,11.561,0
							c3.483,0,20.459,0,23.942,0C327.608,282.825,327.609,284.241,326.696,284.241L326.696,284.241z"/>
					</g>
				</g>
				<g style="opacity:0.2;">
					<g>
						<path style="fill:#FFFFFF;" d="M326.696,284.241c-7.458,0-28.42,0.135-35.876,0c-5.108-0.092-5.382-9.883-0.372-10.226
							c3.492-0.24,7.085,0,10.583,0c4.057,0,21.607,0,25.665,0c0.911,0,0.913,1.416,0,1.416c-7.068,0-27.629,0-34.697,0
							c-1.636,0-2.806,0.018-3.438,1.948c-0.547,1.67-0.375,5.078,1.864,5.446c0.241,0.04,0.525,0,0.767,0c3.854,0,7.708,0,11.561,0
							c3.483,0,20.459,0,23.942,0C327.608,282.825,327.609,284.241,326.696,284.241L326.696,284.241z"/>
					</g>
				</g>
			</g>
			<g>
				<g>
					<g>
						<path style="fill:#407BFF;" d="M330.627,285.41v6.848c0.844,0,0.845,1.311,0,1.311c-2.61,0-5.222,0.018-7.833,0.033v-9.504
							c2.611,0,5.222,0,7.833,0C331.471,284.099,331.472,285.41,330.627,285.41z"/>
						<path style="opacity:0.3;fill:#FFFFFF;" d="M330.627,285.41v6.848c0.844,0,0.845,1.311,0,1.311
							c-2.61,0-5.222,0.018-7.833,0.033v-9.504c2.611,0,5.222,0,7.833,0C331.471,284.099,331.472,285.41,330.627,285.41z"/>
					</g>
					<rect x="324.542" y="285.42" style="fill:#407BFF;" width="6.085" height="6.838"/>
					<rect x="324.542" y="285.42" style="opacity:0.6;fill:#FFFFFF;" width="6.085" height="6.838"/>
				</g>
				<path style="fill:#407BFF;" d="M325.819,284.754h-33.591c-1.45,0-2.626,1.826-2.626,4.08s1.176,4.08,2.626,4.08h33.591V284.754z
					"/>
				<path style="opacity:0.9;fill:#FFFFFF;" d="M325.819,284.754h-33.591c-1.45,0-2.626,1.826-2.626,4.08s1.176,4.08,2.626,4.08
					h33.591V284.754z"/>
				<g>
					<g>
						<path style="fill:#407BFF;" d="M325.819,293.569c-6.907,0-26.32,0.125-33.225,0c-4.73-0.085-4.984-9.152-0.345-9.471
							c3.234-0.222,6.561,0,9.802,0c3.758,0,20.011,0,23.769,0c0.844,0,0.845,1.311,0,1.311c-6.546,0-25.587,0-32.134,0
							c-1.515,0-2.599,0.017-3.184,1.804c-0.507,1.546-0.347,4.702,1.727,5.044c0.223,0.037,0.486,0,0.711,0
							c3.569,0,7.138,0,10.707,0c3.226,0,18.947,0,22.173,0C326.663,292.258,326.664,293.569,325.819,293.569L325.819,293.569z"/>
					</g>
				</g>
			</g>
			<g>
				<g>
					<g>
						<path style="fill:#407BFF;" d="M334.531,295.01v8.15c1.004,0,1.006,1.561,0,1.561c-3.106,0-6.214,0.021-9.322,0.04v-11.31
							c3.108,0,6.215,0,9.322,0C335.536,293.449,335.537,295.01,334.531,295.01z"/>
						<path style="opacity:0.3;fill:#FFFFFF;" d="M334.531,295.01v8.15c1.004,0,1.006,1.561,0,1.561
							c-3.106,0-6.214,0.021-9.322,0.04v-11.31c3.108,0,6.215,0,9.322,0C335.536,293.449,335.537,295.01,334.531,295.01z"/>
					</g>
					<rect x="327.29" y="295.022" style="fill:#407BFF;" width="7.241" height="8.138"/>
					<rect x="327.29" y="295.022" style="opacity:0.6;fill:#FFFFFF;" width="7.241" height="8.138"/>
				</g>
				<path style="fill:#407BFF;" d="M328.81,294.23h-39.975c-1.726,0-3.125,2.174-3.125,4.855c0,2.681,1.399,4.855,3.125,4.855
					h39.975V294.23z"/>
				<path style="opacity:0.9;fill:#FFFFFF;" d="M328.81,294.23h-39.975c-1.726,0-3.125,2.174-3.125,4.855
					c0,2.681,1.399,4.855,3.125,4.855h39.975V294.23z"/>
				<g>
					<g>
						<path style="fill:#407BFF;" d="M328.81,304.72c-8.219,0-31.322,0.148-39.54,0c-5.629-0.102-5.932-10.892-0.41-11.271
							c3.849-0.264,7.808,0,11.664,0c4.472,0,23.814,0,28.286,0c1.004,0,1.006,1.56,0,1.56c-7.79,0-30.45,0-38.24,0
							c-1.803,0-3.092,0.02-3.789,2.147c-0.603,1.841-0.413,5.596,2.055,6.003c0.266,0.044,0.579,0,0.846,0
							c4.247,0,8.495,0,12.742,0c3.839,0,22.548,0,26.387,0C329.814,303.159,329.815,304.72,328.81,304.72L328.81,304.72z"/>
					</g>
				</g>
				<g style="opacity:0.2;">
					<g>
						<path d="M328.81,304.72c-8.219,0-31.322,0.148-39.54,0c-5.629-0.102-5.932-10.892-0.41-11.271c3.849-0.264,7.808,0,11.664,0
							c4.472,0,23.814,0,28.286,0c1.004,0,1.006,1.56,0,1.56c-7.79,0-30.45,0-38.24,0c-1.803,0-3.092,0.02-3.789,2.147
							c-0.603,1.841-0.413,5.596,2.055,6.003c0.266,0.044,0.579,0,0.846,0c4.247,0,8.495,0,12.742,0c3.839,0,22.548,0,26.387,0
							C329.814,303.159,329.815,304.72,328.81,304.72L328.81,304.72z"/>
					</g>
				</g>
			</g>
		</g>
	</g>
</g>
</svg>
